<svg width="639" height="504" viewBox="0 0 639 504" fill="none" xmlns="http://www.w3.org/2000/svg">
<g clip-path="url(#clip0_4_2864)">
<path d="M612.258 361.103C612.015 361.508 611.771 361.922 611.52 362.327C611.351 362.6 611.188 362.866 611.011 363.139C609.302 365.83 607.426 368.412 605.397 370.871L604.747 371.661L604.415 372.052C604.164 372.354 603.899 372.657 603.633 372.959L602.895 373.8L601.803 375.01C601.302 375.549 600.793 376.087 600.284 376.619L599.169 377.755C598.756 378.175 598.336 378.589 597.908 379.002C597.856 379.061 597.797 379.112 597.738 379.171C597.332 379.562 596.927 379.954 596.513 380.337L595.141 381.606C594.315 382.359 593.474 383.097 592.618 383.82C592.33 384.07 592.042 384.321 591.747 384.557C591.452 384.793 591.157 385.059 590.854 385.295C590.552 385.531 590.117 385.93 589.703 386.247C588.774 386.985 587.815 387.759 586.848 388.505C586.524 388.763 586.192 389.006 585.86 389.242C585.402 389.597 584.93 389.98 584.465 390.29L583.181 391.227L581.794 392.216C581.056 392.725 580.37 393.227 579.64 393.691L578.297 394.599C576.212 395.991 574.077 397.361 571.893 398.708L570.565 399.513C563.88 403.556 556.797 407.304 549.515 410.779L546.631 412.136L545.155 412.808C543.679 413.477 542.204 414.138 540.728 414.793L539.253 415.442C536.793 416.519 534.309 417.564 531.801 418.578C530.974 418.917 530.148 419.249 529.314 419.574C525.153 421.234 520.977 422.82 516.823 424.31L515.606 424.746L514.418 425.173L512.824 425.734C510.759 426.457 508.695 427.163 506.634 427.852L504.945 428.412C502.812 429.15 500.688 429.799 498.585 430.464L497.109 430.936L494.815 431.673L491.288 432.736C490.122 433.09 488.957 433.429 487.806 433.761C485.927 434.317 484.067 434.849 482.228 435.355L480.605 435.805C477.55 436.661 474.569 437.458 471.685 438.203L469.161 438.86L467.914 439.17C467.095 439.376 466.291 439.583 465.487 439.775L463.93 440.158L462.388 440.535L459.629 441.199L457.415 441.73L453.749 442.615L450.31 443.353L450.06 443.419L449.669 443.5L448.407 443.773L447.175 444.039L445.98 444.297L443.272 444.865H443.132L441.531 445.197C437.893 445.935 434.927 446.496 432.78 446.887L432.19 446.998L430.486 447.3L429.969 447.389L429.231 447.514H429.017H428.958H428.877C427.402 447.691 425.985 447.876 424.539 448.038L424.096 448.09L421.492 448.392C420.016 448.562 418.578 448.709 417.124 448.864L414.239 449.159C412.326 449.351 410.425 449.533 408.536 449.705L405.814 449.949H405.718L401.815 450.259C400.723 450.355 399.601 450.436 398.561 450.51C398.074 450.554 397.587 450.583 397.085 450.613C394.688 450.783 392.319 450.938 389.973 451.063C388.497 451.144 387.073 451.225 385.649 451.284C384.225 451.343 382.971 451.417 381.651 451.469H381.444L377.696 451.609C374.981 451.69 372.303 451.764 369.661 451.801L366.282 451.845C362.101 451.879 358.009 451.862 354.005 451.793C352.434 451.793 350.884 451.727 349.342 451.683H348.796C347.173 451.631 345.565 451.579 343.978 451.513C341.485 451.41 339.02 451.292 336.6 451.144L334.18 450.997C332.579 450.901 331 450.783 329.429 450.665L327.083 450.48L324.759 450.281L322.464 450.074C320.752 449.912 319.048 449.742 317.381 449.565C315.713 449.388 314.046 449.196 312.408 448.997L309.966 448.687L307.553 448.37C306.749 448.267 305.959 448.149 305.163 448.038L302.802 447.691L300.802 447.389L299.865 447.241C298.522 447.035 297.202 446.813 295.888 446.592C292.116 445.948 288.461 445.259 284.925 444.526C278.225 443.139 271.927 441.624 266.029 439.981L265.55 439.848L263.491 439.265C259.146 438.019 255.014 436.713 251.104 435.385L249.281 434.75C248.052 434.312 246.842 433.877 245.651 433.444C243.261 432.569 240.959 431.678 238.746 430.773L236.776 429.962C234.808 429.15 232.929 428.339 231.139 427.527C230.763 427.357 230.401 427.18 230.017 427.018L228.254 426.199C227.044 425.633 225.864 425.065 224.713 424.495L223.702 423.993L222.706 423.491L220.773 422.495L219.821 422.001C219.518 421.831 219.201 421.669 218.899 421.507C218.596 421.344 218.286 421.182 217.991 421.012L216.213 420.038C215.342 419.551 214.501 419.072 213.675 418.563L212.76 418.024L211.285 417.146L209.47 416.032L208.695 415.545C204.757 413.082 200.956 410.404 197.311 407.525C197.17 407.407 197.023 407.289 196.875 407.186C196.864 407.163 196.846 407.145 196.824 407.134L196.44 406.817C195.702 406.212 195.023 405.644 194.441 405.142L194.153 404.899L193.769 404.552C193.636 404.441 193.511 404.323 193.393 404.212C192.847 403.726 192.412 403.32 192.094 403.01C191.555 402.483 190.983 401.99 190.383 401.534C171.812 387.715 134.59 383.392 134.59 383.392C119.118 380.566 103.899 376.495 89.0823 371.218C12.1959 341.234 14.1363 274.367 14.1363 274.367C-6.98699 121 151.168 116.912 151.168 116.912C235.234 109.859 292.273 93.5164 292.273 93.5164C442.254 17.567 490.963 99.6033 490.963 99.6033C512.109 122.682 573 189.977 573 189.977C596.713 214.324 612.258 248.057 612.258 248.057C644.463 307.413 612.258 361.103 612.258 361.103Z" fill="#0071F2"/>
<path opacity="0.7" d="M612.258 361.103C612.015 361.508 611.771 361.922 611.52 362.327C611.351 362.6 611.188 362.866 611.011 363.139C609.302 365.83 607.426 368.412 605.397 370.871L604.747 371.661L604.415 372.052C604.164 372.354 603.899 372.657 603.633 372.959L602.895 373.8L601.803 375.01C601.302 375.549 600.793 376.087 600.284 376.619L599.169 377.755C598.756 378.175 598.336 378.589 597.908 379.002C597.856 379.061 597.797 379.112 597.738 379.171C597.332 379.562 596.927 379.954 596.513 380.337L595.141 381.606C594.315 382.359 593.474 383.097 592.618 383.82C592.33 384.07 592.042 384.321 591.747 384.557C591.452 384.793 591.157 385.059 590.854 385.295C590.552 385.531 590.117 385.93 589.703 386.247C588.774 386.985 587.815 387.759 586.848 388.505C586.524 388.763 586.192 389.006 585.86 389.242C585.402 389.597 584.93 389.98 584.465 390.29L583.181 391.227L581.794 392.216C581.056 392.725 580.37 393.227 579.64 393.691L578.297 394.599C576.212 395.991 574.077 397.361 571.893 398.708L570.565 399.513C563.88 403.556 556.797 407.304 549.515 410.779L546.631 412.136L545.155 412.808C543.679 413.477 542.204 414.138 540.728 414.793L539.253 415.442C536.793 416.519 534.309 417.564 531.801 418.578C530.974 418.917 530.148 419.249 529.314 419.574C525.153 421.234 520.977 422.82 516.823 424.31L515.606 424.746L514.418 425.173L512.824 425.734C510.759 426.457 508.695 427.163 506.634 427.852L504.945 428.412C502.812 429.15 500.688 429.799 498.585 430.464L497.109 430.936L494.815 431.673L491.288 432.736C490.122 433.09 488.957 433.429 487.806 433.761C485.927 434.317 484.067 434.849 482.228 435.355L480.605 435.805C477.55 436.661 474.569 437.458 471.685 438.203L469.161 438.86L467.914 439.17C467.095 439.376 466.291 439.583 465.487 439.775L463.93 440.158L462.388 440.535L459.629 441.199L457.415 441.73L453.749 442.615L450.31 443.353L450.06 443.419L449.669 443.5L448.407 443.773L447.175 444.039L445.98 444.297L443.272 444.865H443.132L441.531 445.197C437.893 445.935 434.927 446.496 432.78 446.887L432.19 446.998L430.486 447.3L429.969 447.389L429.231 447.514H429.017H428.958H428.877C427.402 447.691 425.985 447.876 424.539 448.038L424.096 448.09L421.492 448.392C420.016 448.562 418.578 448.709 417.124 448.864L414.239 449.159C412.326 449.351 410.425 449.533 408.536 449.705L405.814 449.949H405.718L401.815 450.259C400.723 450.355 399.601 450.436 398.561 450.51C398.074 450.554 397.587 450.583 397.085 450.613C394.688 450.783 392.319 450.938 389.973 451.063C388.497 451.144 387.073 451.225 385.649 451.284C384.225 451.343 382.971 451.417 381.651 451.469H381.444L377.696 451.609C374.981 451.69 372.303 451.764 369.661 451.801L366.282 451.845C362.101 451.879 358.009 451.862 354.005 451.793C352.434 451.793 350.884 451.727 349.342 451.683H348.796C347.173 451.631 345.565 451.579 343.978 451.513C341.485 451.41 339.02 451.292 336.6 451.144L334.18 450.997C332.579 450.901 331 450.783 329.429 450.665L327.083 450.48L324.759 450.281L322.464 450.074C320.752 449.912 319.048 449.742 317.381 449.565C315.713 449.388 314.046 449.196 312.408 448.997L309.966 448.687L307.553 448.37C306.749 448.267 305.959 448.149 305.163 448.038L302.802 447.691L300.802 447.389L299.865 447.241C298.522 447.035 297.202 446.813 295.888 446.592C292.116 445.948 288.461 445.259 284.925 444.526C278.225 443.139 271.927 441.624 266.029 439.981L265.55 439.848L263.491 439.265C259.146 438.019 255.014 436.713 251.104 435.385L249.281 434.75C248.052 434.312 246.842 433.877 245.651 433.444C243.261 432.569 240.959 431.678 238.746 430.773L236.776 429.962C234.808 429.15 232.929 428.339 231.139 427.527C230.763 427.357 230.401 427.18 230.017 427.018L228.254 426.199C227.044 425.633 225.864 425.065 224.713 424.495L223.702 423.993L222.706 423.491L220.773 422.495L219.821 422.001C219.518 421.831 219.201 421.669 218.899 421.507C218.596 421.344 218.286 421.182 217.991 421.012L216.213 420.038C215.342 419.551 214.501 419.072 213.675 418.563L212.76 418.024L211.285 417.146L209.47 416.032L208.695 415.545C204.757 413.082 200.956 410.404 197.311 407.525C197.163 407.4 197.023 407.289 196.875 407.186C196.864 407.163 196.846 407.145 196.824 407.134L196.44 406.817C195.702 406.212 195.023 405.644 194.441 405.142L194.153 404.899L193.769 404.552C193.636 404.441 193.511 404.323 193.393 404.212C192.847 403.726 192.412 403.32 192.094 403.01C191.555 402.483 190.983 401.99 190.383 401.534C171.812 387.715 134.59 383.392 134.59 383.392C119.118 380.566 103.899 376.495 89.0823 371.218C12.1959 341.234 14.1363 274.367 14.1363 274.367C-6.98699 121 151.168 116.912 151.168 116.912C235.234 109.859 292.273 93.5164 292.273 93.5164C442.254 17.567 490.963 99.6033 490.963 99.6033C512.109 122.682 573 189.977 573 189.977C596.713 214.324 612.258 248.057 612.258 248.057C644.463 307.413 612.258 361.103 612.258 361.103Z" fill="white"/>
<path d="M272.087 225.546C272.087 225.546 261.876 224.203 259.271 224.262C259.271 224.262 259.633 220.146 256.504 212.716C254.086 207.18 250.975 201.974 247.245 197.222C246.376 196.068 245.737 194.758 245.364 193.363C244.87 191.721 244.663 190.007 244.751 188.295C244.786 187.981 244.909 187.683 245.105 187.435C245.3 187.187 245.562 186.999 245.859 186.892C246.157 186.785 246.478 186.764 246.787 186.831C247.096 186.897 247.38 187.049 247.607 187.269L259.02 198.336C263.296 204.417 266.838 210.982 269.571 217.895C270.558 220.394 271.398 222.949 272.087 225.546Z" fill="#F9B499"/>
<path d="M451.867 395.713C451.867 395.713 449.484 423.012 450.023 443.441L449.632 443.523L448.37 443.796L447.138 444.061L445.943 444.319L443.235 444.888H443.095L441.494 445.22C437.856 445.957 434.89 446.518 432.743 446.909L432.153 447.02L430.449 447.322L429.932 447.411L429.195 447.536H428.981H428.922H428.84C427.365 447.713 425.948 447.898 424.502 448.06L424.059 448.112L421.455 448.414C419.979 448.584 418.541 448.731 417.087 448.886L414.202 449.182C412.289 449.373 410.388 449.555 408.499 449.728L405.777 449.971H405.681L401.778 450.281C400.686 450.377 399.564 450.458 398.524 450.532C398.037 450.576 397.55 450.606 397.049 450.635C394.651 450.805 392.282 450.96 389.936 451.085C388.46 451.166 387.037 451.247 385.613 451.306C384.189 451.365 382.934 451.439 381.614 451.491H381.444L377.696 451.631C374.981 451.712 372.303 451.786 369.661 451.823L366.282 451.867C362.101 451.902 358.009 451.884 354.005 451.815C352.434 451.815 350.884 451.749 349.342 451.705H348.796C347.173 451.653 345.565 451.602 343.978 451.535C341.485 451.432 339.02 451.314 336.6 451.166L334.18 451.019C332.579 450.923 331 450.805 329.429 450.687L327.083 450.502L324.759 450.303L322.464 450.096C325.098 440.756 328.588 425.144 325.585 416.157C325.585 416.157 326.861 425.137 308.918 430.914C293.372 435.908 286.489 442.829 284.925 444.592C278.225 443.205 271.927 441.69 266.03 440.048L265.55 439.915L263.491 439.332C259.146 438.085 255.014 436.779 251.104 435.451L249.281 434.817C248.052 434.379 246.842 433.943 245.651 433.511C243.261 432.635 240.959 431.745 238.746 430.84L236.776 430.028C234.808 429.217 232.929 428.405 231.139 427.593C241.151 421.691 257.198 411.922 262.768 407.201C262.768 407.201 271.747 400.796 277.524 396.945C277.524 396.945 299.319 380.286 301.245 370.672C301.245 370.672 311.058 299.363 348.767 290.148L362.128 297.607L366.747 294.796L413.406 280.608C425.489 285.096 437.093 290.781 448.045 297.578C448.045 297.578 459.548 302.064 458.906 327.702C458.913 327.776 460.839 348.28 451.867 395.713Z" fill="#0071F2"/>
<path d="M404.759 228.431C404.758 232.6 404.363 236.761 403.578 240.855C403.357 242.021 403.098 243.18 402.84 244.308C398.236 262.694 385.871 275.857 371.277 275.857C367.836 275.851 364.435 275.122 361.295 273.717C347.675 267.704 337.788 249.702 337.788 228.431C337.788 202.239 352.78 181.005 371.277 181.005C389.774 181.005 404.759 202.239 404.759 228.431Z" fill="#F9B499"/>
<path d="M420.134 218.604C419.566 219.57 419.175 220.079 419.175 220.079C411.487 232.253 398.17 226.719 398.17 226.719C389.98 223.768 391.618 213.653 391.618 213.653C394.82 195.71 381.363 196.344 381.363 196.344C370.643 198.639 364.497 196.595 361.287 194.573C360.109 193.889 359.088 192.964 358.292 191.858C352.537 193.784 348.745 193.548 346.273 192.493C345.078 191.997 344.027 191.21 343.215 190.203C342.403 189.197 341.856 188.003 341.625 186.731C352.522 184.812 355.724 179.685 355.724 179.685C363.419 169.429 374.317 171.355 374.317 171.355C403.829 167.503 404.759 180.946 404.759 180.946C408.322 179.234 411.945 180.437 414.874 182.304C419.29 185.167 422.454 189.6 423.727 194.706C426.583 205.906 422.185 215.121 420.134 218.604Z" fill="#2F2E41"/>
<path opacity="0.2" d="M361.287 194.61C360.109 193.926 359.088 193.001 358.292 191.895C352.537 193.821 348.745 193.585 346.273 192.53C346.31 192.53 353.821 192.53 358.934 187.409C358.934 187.402 360.439 191.556 361.287 194.61Z" fill="black"/>
<path opacity="0.2" d="M420.134 218.603C419.566 219.57 419.175 220.079 419.175 220.079C411.487 232.253 398.17 226.719 398.17 226.719C389.98 223.768 391.618 213.653 391.618 213.653C394.82 195.709 381.363 196.344 381.363 196.344C385.112 195.193 389.01 194.596 392.932 194.573C392.932 194.573 397.381 221.592 420.134 218.603Z" fill="black"/>
<path d="M406.079 242.309C401.947 247.208 401.874 271.371 401.874 271.371C401.276 271.674 400.575 272.058 399.786 272.515C390.453 277.894 369.189 293.173 369.189 293.173C366.945 294.831 364.588 296.33 362.136 297.659C357.65 282.276 361.287 273.725 361.287 273.725C364.428 275.13 367.829 275.858 371.27 275.865C385.834 275.865 398.229 262.702 402.833 244.316C403.113 243.187 403.371 242.029 403.571 240.863L406.079 242.309Z" fill="#F9B499"/>
<path d="M406.079 242.309C401.947 247.208 401.874 271.371 401.874 271.371C401.276 271.674 400.575 272.057 399.786 272.515C400.251 264.037 394.82 267.527 394.82 267.527C372.391 285.471 361.287 273.717 361.287 273.717C364.428 275.122 367.829 275.851 371.27 275.857C385.834 275.857 398.229 262.695 402.833 244.309L406.079 242.309Z" fill="#F7A48B"/>
<path d="M366.762 294.841L376.235 311.109C376.235 311.109 398.03 286.113 413.413 282.269L407.643 269.446C407.643 269.446 405.718 265.609 366.762 294.841Z" fill="#2F2E41"/>
<path d="M359.9 280.653C359.9 280.653 352.079 289.152 348.774 290.193L350.596 305.34L362.136 297.652C362.136 297.652 358.941 288.009 359.9 280.653Z" fill="#2F2E41"/>
<path opacity="0.1" d="M449.322 347.638C449.322 347.638 447.404 364.947 433.939 371.358C433.939 371.358 389.715 400.87 368.569 382.89C368.569 382.89 364.356 381.311 366.776 386.262C366.776 386.262 375.63 402.117 385.871 404.043C385.871 404.043 370.495 404.316 359.922 389.442C359.922 389.442 354.02 379.814 348.796 384.558C348.796 384.558 344.178 387.509 346.944 406.315C347.513 410.155 348.659 413.886 350.346 417.382C351.083 418.939 351.961 420.843 352.817 422.96C355.113 428.751 358.799 433.887 363.549 437.916C368.3 441.945 373.969 444.742 380.057 446.061C380.492 446.157 380.935 446.238 381.385 446.319C389.532 447.129 397.632 448.361 405.651 450.008L401.748 450.318C400.656 450.414 399.535 450.495 398.495 450.569C398.008 450.613 397.521 450.643 397.019 450.672C394.621 450.842 392.253 450.997 389.907 451.122C388.431 451.203 387.007 451.284 385.583 451.344C384.159 451.403 382.905 451.476 381.584 451.528H381.444L377.696 451.668C374.981 451.749 372.303 451.823 369.661 451.86L366.282 451.904C362.101 451.939 358.009 451.921 354.005 451.853C352.434 451.853 350.884 451.786 349.342 451.742H348.796C347.173 451.69 345.565 451.639 343.978 451.572C341.485 451.469 339.02 451.351 336.6 451.203L334.18 451.056C332.579 450.96 331 450.842 329.429 450.724L327.083 450.539L324.759 450.34L322.464 450.133C325.098 440.793 328.588 425.181 325.585 416.195C325.585 416.195 326.861 425.174 308.918 430.951C293.372 435.946 286.489 442.866 284.925 444.63C278.225 443.242 271.927 441.727 266.03 440.085C276.403 435.717 295.792 426.694 303.148 417.493C303.148 417.493 316.606 405.954 312.74 400.192C312.74 400.192 306.837 394.85 302.934 392.164C305.317 393.743 316.503 400.561 321.07 393.138C326.197 384.808 334.534 364.939 334.534 364.939C334.534 364.939 335.176 366.223 337.737 366.223C337.737 366.223 344.79 357.244 353.762 357.886C353.762 357.886 354.012 346.207 365.198 342.938C366.301 342.596 367.367 342.142 368.377 341.581C371.786 339.736 379.902 336.062 387.73 338.017C387.73 338.017 389.648 338.017 386.446 331.613C386.446 331.613 378.116 322.021 376.191 311.102C376.191 311.102 388.733 296.973 397.189 291.226C396.849 291.698 389.161 302.366 396.06 304.469C403.205 305.487 410.492 304.464 417.08 301.518C417.131 301.485 417.193 301.473 417.252 301.485C417.312 301.498 417.364 301.533 417.397 301.584C417.43 301.635 417.442 301.697 417.43 301.757C417.417 301.816 417.382 301.868 417.331 301.902C413.642 305.185 401.918 314.946 392.858 314.946C392.858 314.946 402.449 316.082 396.06 319.373C396.06 319.373 382.602 324.537 391.574 335.464C391.574 335.464 397.985 341.876 390.932 341.876C390.932 341.876 362.741 343.956 359.856 354.765C359.856 354.765 358.934 363.331 368.2 369.263C368.2 369.263 381.931 370.252 388.527 373.114C391.62 374.484 395.025 374.994 398.384 374.59C410.344 373.085 435.082 367.551 449.322 347.638Z" fill="black"/>
<path opacity="0.1" d="M333.295 373.276C332.029 386.904 329.67 400.407 326.242 413.656C328.839 400.45 331.148 386.601 333.295 373.276Z" fill="black"/>
<path opacity="0.1" d="M376.707 313.632C383.927 315.171 391.415 314.906 398.509 312.862C405.602 310.817 412.082 307.055 417.375 301.909C416.127 303.275 414.791 304.559 413.376 305.753C403.445 314.171 389.213 317.078 376.707 313.632Z" fill="black"/>
<path d="M350.279 348.28C345.793 345.078 340.688 348.922 340.688 348.922C332.277 350.604 329.385 347.874 328.389 345.793C327.039 343.075 325.412 340.504 323.534 338.12L319.535 332.897L286.85 282.911C284.29 277.783 274.035 272.655 274.035 272.655C261.854 267.527 261.212 262.4 261.212 262.4C257.368 262.4 254.807 257.272 254.807 257.272C251.598 255.988 249.038 251.502 249.038 251.502C245.828 250.86 241.985 247.658 241.985 247.658H241.94C240.133 246.681 238.457 245.479 236.953 244.08C233.212 240.531 232.696 237.071 232.777 235.153C232.79 234.886 232.861 234.625 232.983 234.387C233.105 234.149 233.277 233.94 233.486 233.774C233.696 233.608 233.938 233.488 234.198 233.423C234.457 233.358 234.727 233.349 234.99 233.397C236.741 233.791 238.447 234.364 240.081 235.108C240.819 235.418 241.291 235.647 241.291 235.647V235.167V231.021C240.015 220.765 272.057 224.617 272.057 224.617C283.597 222.049 286.813 239.033 286.813 239.033L293.867 253.457C298.994 264.355 311.168 274.603 311.168 274.603L346.583 301.997C346.133 303.746 345.107 305.369 346.398 309.855C347.689 314.341 348.368 329.562 348.368 329.562C348.427 334.527 350.375 342.459 350.375 342.459C351.821 350.043 350.279 348.28 350.279 348.28Z" fill="#F9B499"/>
<path d="M248.691 250.853C248.824 246.153 249.104 241.431 249.429 236.739C249.909 232.437 253.856 232.031 257.323 231.249C259.954 230.631 262.648 230.326 265.351 230.342C261.322 230.615 257.419 231.699 253.546 232.777C252.621 233.012 251.791 233.524 251.165 234.244C250.539 234.963 250.147 235.857 250.041 236.805L249.872 238.804C249.547 242.825 249.171 246.847 248.684 250.853H248.691Z" fill="#F7A48B"/>
<path d="M241.918 247.629C240.111 246.652 238.435 245.449 236.931 244.05C238.871 241.697 239.815 236.672 240.074 235.079C240.811 235.388 241.284 235.617 241.284 235.617V235.138L241.918 247.629Z" fill="#F7A48B"/>
<path d="M272.087 225.546C272.087 225.546 261.876 224.204 259.271 224.263C259.271 224.263 259.633 220.146 256.504 212.716C256.504 212.716 256.504 212.672 256.504 212.642C256.504 212.613 263.469 217.379 269.541 217.866C270.54 220.374 271.39 222.939 272.087 225.546Z" fill="#F7A48B"/>
<path d="M267.284 254.704C267.284 254.704 270.471 250.218 275.289 250.86C275.289 250.86 274.972 263.742 279.458 267.557C279.458 267.557 269.866 273.297 260.872 261.758C260.872 261.758 268.56 267.527 270.803 261.758C270.774 261.758 272.404 257.272 267.284 254.704Z" fill="#F7A48B"/>
<path opacity="0.39" d="M271.128 220.101C252.085 221.496 234.902 222.89 219.4 224.27C186.576 227.184 161.284 230.032 141.835 232.644C86.0425 240.14 78.2071 245.733 78.2071 245.733V106.657C78.2071 106.657 110.788 95.5898 150.017 84.3236C170.882 78.3326 193.629 72.2605 214.354 67.7673C233.094 63.6873 250.189 60.891 262.746 60.5737L265.329 109.615L271.128 220.101Z" fill="#0071F2"/>
<path d="M121.155 113.068L123.073 164.98L165.452 161.306L162.169 104.731L121.155 113.068Z" fill="white"/>
<path opacity="0.39" d="M150.268 130.798C150.121 127.751 147.915 126.312 144.868 126.526L142.3 126.718V125.323C143.249 124.822 144.002 124.018 144.441 123.039C144.879 122.06 144.977 120.962 144.719 119.921C144.461 118.879 143.862 117.954 143.017 117.293C142.172 116.632 141.13 116.273 140.057 116.273C138.984 116.273 137.942 116.632 137.097 117.293C136.252 117.954 135.653 118.879 135.395 119.921C135.137 120.962 135.235 122.06 135.673 123.039C136.112 124.018 136.865 124.822 137.814 125.323V127.064L136.53 127.168C133.675 127.367 132.045 128.71 132.045 131.595V141.282L150.63 138.073L150.268 130.798Z" fill="#0071F2"/>
<g opacity="0.39">
<path d="M127.559 147.354C127.482 147.353 127.408 147.325 127.35 147.275C127.292 147.226 127.254 147.157 127.241 147.081C127.235 147.039 127.237 146.997 127.248 146.956C127.258 146.915 127.277 146.877 127.302 146.843C127.327 146.809 127.359 146.781 127.396 146.76C127.432 146.739 127.473 146.725 127.514 146.72L157.027 142.411C157.11 142.4 157.195 142.423 157.263 142.474C157.33 142.525 157.375 142.6 157.388 142.684C157.395 142.726 157.394 142.768 157.384 142.81C157.374 142.851 157.356 142.89 157.33 142.924C157.304 142.958 157.272 142.986 157.235 143.007C157.198 143.028 157.157 143.041 157.115 143.045L127.603 147.354H127.559Z" fill="#0071F2"/>
</g>
<g opacity="0.39">
<path d="M127.559 152.481C127.482 152.481 127.408 152.453 127.35 152.403C127.292 152.353 127.254 152.284 127.241 152.208C127.235 152.167 127.237 152.124 127.248 152.083C127.258 152.042 127.277 152.004 127.302 151.97C127.327 151.937 127.359 151.908 127.396 151.887C127.432 151.866 127.473 151.852 127.514 151.847L157.027 147.538C157.068 147.532 157.111 147.534 157.152 147.544C157.193 147.555 157.231 147.573 157.265 147.599C157.298 147.624 157.327 147.656 157.348 147.692C157.369 147.729 157.383 147.769 157.388 147.811C157.395 147.853 157.394 147.896 157.384 147.937C157.374 147.978 157.356 148.017 157.33 148.051C157.304 148.085 157.272 148.113 157.235 148.134C157.198 148.155 157.157 148.168 157.115 148.173L127.603 152.474L127.559 152.481Z" fill="#0071F2"/>
</g>
<g opacity="0.39">
<path d="M127.559 157.609C127.482 157.609 127.408 157.581 127.35 157.531C127.292 157.481 127.254 157.412 127.241 157.336C127.231 157.252 127.253 157.166 127.304 157.097C127.355 157.028 127.43 156.982 127.514 156.968L157.027 152.666C157.11 152.656 157.195 152.678 157.263 152.729C157.33 152.78 157.375 152.855 157.388 152.939C157.395 152.981 157.394 153.024 157.384 153.065C157.374 153.106 157.356 153.145 157.33 153.179C157.304 153.213 157.272 153.241 157.235 153.262C157.198 153.283 157.157 153.296 157.115 153.301L127.603 157.602L127.559 157.609Z" fill="#0071F2"/>
</g>
<path d="M121.531 123.353L105.13 133.572L122.431 179.079L152.548 162.427L123.073 164.98L121.531 123.353Z" fill="white"/>
<path opacity="0.39" d="M118.321 125.352L120.513 168.182L146.284 165.887L152.548 162.427L123.073 164.98L121.531 123.353L118.321 125.352Z" fill="#0071F2"/>
<path opacity="0.39" d="M244.205 212.406C253.41 212.406 260.872 201.36 260.872 187.734C260.872 174.108 253.41 163.062 244.205 163.062C235 163.062 227.538 174.108 227.538 187.734C227.538 201.36 235 212.406 244.205 212.406Z" fill="#0071F2"/>
<path d="M78.2071 213.941L80.1327 107.941L143.296 86.2788L78.2071 104.731V213.941Z" fill="#0071F2"/>
<path opacity="0.39" d="M258.231 339.153L199.332 344.436C178.113 345.653 159.129 347.387 143.082 349.158C125.301 351.142 111.128 353.201 101.492 354.75C92.2327 356.226 87.1714 357.244 87.1714 357.244C84.7293 342.34 83.3127 324.921 82.4863 309.073C81.1657 283.346 81.4091 261.75 81.4091 261.75L118.299 253.007C136.744 248.846 153.308 245.629 167.968 243.128C183.049 240.546 196.115 238.701 207.175 237.469C237.831 233.957 253.096 234.592 253.096 234.592L258.231 339.153Z" fill="#0071F2"/>
<path d="M82.2871 304.683L79.4908 260.474L112.884 254.298L81.4165 261.758L82.2871 304.683Z" fill="#0071F2"/>
<path opacity="0.22" d="M167.99 243.135L101.5 354.75C92.2401 356.226 87.1788 357.244 87.1788 357.244C84.7366 342.34 83.3201 324.921 82.4937 309.073L118.321 253C136.774 248.853 153.33 245.629 167.99 243.135Z" fill="white"/>
<path d="M99.3599 273.297C117.805 270.08 137.335 267.395 155.89 265.181C174.763 263.042 193.806 261.123 212.804 260.489C210.429 260.715 208.058 260.927 205.692 261.123C170.831 264.355 134.228 269.106 99.3599 273.312V273.297Z" fill="white"/>
<path d="M104.488 284.829C124.224 282.054 144.071 280.07 163.94 278.491C181.285 277.244 198.823 276.277 216.235 276.742C218.722 276.86 221.215 276.993 223.694 277.141C221.208 277.141 218.714 277.141 216.228 277.082C179.662 277.701 141.016 281.693 104.488 284.829Z" fill="white"/>
<path d="M96.1873 310.615C137.01 305.214 178.386 300.603 219.4 296.914C178.548 302.352 137.231 306.926 96.1873 310.615Z" fill="white"/>
<path d="M107.719 324.567C143.872 319.092 180.614 314.414 217.032 310.615C180.835 316.097 144.108 320.767 107.69 324.537L107.719 324.567Z" fill="white"/>
<path d="M111.534 332.897C133.587 328.418 156.422 324.574 178.674 321.52C189.586 320.044 201.546 318.569 212.561 317.897C214.826 317.757 217.098 317.691 219.371 317.609L212.583 318.236C178.932 322.088 145.037 327.99 111.504 332.897H111.534Z" fill="white"/>
<path opacity="0.22" d="M258.231 339.153L199.332 344.436C178.113 345.653 159.129 347.387 143.082 349.158L207.19 237.476C237.845 233.964 253.111 234.599 253.111 234.599L258.231 339.153Z" fill="white"/>
<path d="M222.551 342.355L260.872 340.843L256.003 293.535L258.238 339.153L222.551 342.355Z" fill="#0071F2"/>
<path opacity="0.39" d="M499.337 186.767C499.337 186.767 461.577 187.837 417.441 189.719C406.264 190.183 394.68 190.7 383.2 191.261C361.28 192.33 339.721 193.563 322.088 194.95C304.454 196.337 290.584 197.82 284.342 199.413L282.637 153.419L279.465 67.8337C279.465 67.8337 295.379 62.8166 325.467 58.7587C339.906 56.8035 357.591 55.0697 378.36 54.2138C378.714 54.2138 379.098 54.2138 379.452 54.1696L432.574 53.0776L469.242 52.3398L488.898 51.9414C488.898 51.9414 498.755 161.114 499.337 186.767Z" fill="#0071F2"/>
<path d="M370.488 167.865L370.451 167.223L400.612 165.268L424.51 142.477L435.171 141.584L435.23 142.226L424.782 143.097L400.885 165.895L370.488 167.865Z" fill="#0071F2"/>
<path d="M368.547 169.783C368.109 169.783 367.681 169.653 367.317 169.41C366.953 169.167 366.67 168.821 366.502 168.417C366.335 168.012 366.291 167.567 366.376 167.138C366.462 166.709 366.672 166.314 366.982 166.005C367.292 165.695 367.686 165.484 368.115 165.399C368.545 165.314 368.99 165.357 369.394 165.525C369.799 165.692 370.144 165.976 370.388 166.34C370.631 166.704 370.761 167.132 370.761 167.57C370.761 168.157 370.527 168.72 370.112 169.135C369.697 169.55 369.134 169.783 368.547 169.783ZM368.547 165.939C368.228 165.938 367.916 166.031 367.651 166.207C367.385 166.383 367.178 166.635 367.055 166.929C366.933 167.223 366.9 167.547 366.962 167.86C367.024 168.172 367.177 168.46 367.402 168.685C367.628 168.91 367.915 169.064 368.228 169.126C368.54 169.187 368.865 169.155 369.159 169.032C369.453 168.91 369.704 168.702 369.88 168.437C370.056 168.171 370.15 167.859 370.148 167.54C370.148 167.116 369.98 166.708 369.679 166.408C369.379 166.108 368.972 165.939 368.547 165.939Z" fill="#0071F2"/>
<path d="M362.136 75.5733C361.698 75.5733 361.27 75.4435 360.906 75.2003C360.542 74.9571 360.258 74.6114 360.091 74.2069C359.923 73.8025 359.879 73.3574 359.965 72.9281C360.05 72.4987 360.261 72.1043 360.571 71.7948C360.88 71.4852 361.274 71.2744 361.704 71.189C362.133 71.1036 362.578 71.1474 362.983 71.315C363.387 71.4825 363.733 71.7662 363.976 72.1302C364.219 72.4942 364.349 72.9221 364.349 73.3599C364.349 73.9469 364.116 74.5099 363.701 74.925C363.286 75.3401 362.723 75.5733 362.136 75.5733ZM362.136 71.7294C361.819 71.7294 361.509 71.8232 361.246 71.9992C360.983 72.1751 360.778 72.4251 360.657 72.7177C360.535 73.0102 360.504 73.3322 360.565 73.6427C360.627 73.9533 360.78 74.2386 361.004 74.4625C361.227 74.6864 361.513 74.8389 361.823 74.9007C362.134 74.9624 362.456 74.9307 362.748 74.8095C363.041 74.6884 363.291 74.4832 363.467 74.2199C363.643 73.9566 363.737 73.647 363.737 73.3304C363.737 72.9058 363.568 72.4985 363.268 72.1983C362.967 71.898 362.56 71.7294 362.136 71.7294Z" fill="#0071F2"/>
<path d="M373.675 75.5733C373.237 75.5733 372.809 75.4435 372.445 75.2003C372.081 74.9571 371.798 74.6114 371.63 74.2069C371.462 73.8025 371.419 73.3574 371.504 72.9281C371.589 72.4987 371.8 72.1043 372.11 71.7948C372.419 71.4852 372.814 71.2744 373.243 71.189C373.672 71.1036 374.117 71.1474 374.522 71.315C374.926 71.4825 375.272 71.7662 375.515 72.1302C375.758 72.4942 375.888 72.9221 375.888 73.3599C375.888 73.9469 375.655 74.5099 375.24 74.925C374.825 75.3401 374.262 75.5733 373.675 75.5733ZM373.675 71.7294C373.358 71.7294 373.049 71.8232 372.785 71.9992C372.522 72.1751 372.317 72.4251 372.196 72.7177C372.075 73.0102 372.043 73.3322 372.105 73.6427C372.166 73.9533 372.319 74.2386 372.543 74.4625C372.767 74.6864 373.052 74.8389 373.363 74.9007C373.673 74.9624 373.995 74.9307 374.288 74.8095C374.58 74.6884 374.83 74.4832 375.006 74.2199C375.182 73.9566 375.276 73.647 375.276 73.3304C375.276 72.9058 375.107 72.4985 374.807 72.1983C374.507 71.898 374.1 71.7294 373.675 71.7294Z" fill="#0071F2"/>
<path d="M439.044 72.3638C438.606 72.3638 438.179 72.234 437.815 71.9908C437.451 71.7476 437.167 71.4019 436.999 70.9975C436.832 70.593 436.788 70.148 436.873 69.7186C436.959 69.2892 437.17 68.8949 437.479 68.5853C437.789 68.2758 438.183 68.0649 438.612 67.9795C439.042 67.8941 439.487 67.938 439.891 68.1055C440.296 68.273 440.641 68.5567 440.885 68.9207C441.128 69.2847 441.258 69.7127 441.258 70.1504C441.258 70.7375 441.024 71.3004 440.609 71.7155C440.194 72.1306 439.631 72.3638 439.044 72.3638ZM439.044 68.5199C438.724 68.5185 438.411 68.6126 438.145 68.7901C437.879 68.9676 437.671 69.2205 437.55 69.5165C437.428 69.8124 437.397 70.1379 437.462 70.4514C437.526 70.7648 437.682 71.052 437.911 71.2761C438.139 71.5003 438.429 71.6512 438.744 71.7096C439.058 71.7681 439.383 71.7313 439.677 71.6041C439.97 71.4769 440.219 71.2651 440.392 70.9956C440.564 70.7261 440.653 70.4113 440.645 70.0914C440.636 69.6725 440.463 69.2739 440.164 68.9804C439.865 68.6869 439.463 68.5217 439.044 68.5199Z" fill="#0071F2"/>
<path d="M408.285 111.46C407.847 111.46 407.42 111.33 407.056 111.087C406.692 110.844 406.408 110.498 406.24 110.094C406.073 109.689 406.029 109.244 406.114 108.815C406.2 108.385 406.411 107.991 406.72 107.682C407.03 107.372 407.424 107.161 407.853 107.076C408.283 106.99 408.728 107.034 409.132 107.202C409.537 107.369 409.882 107.653 410.126 108.017C410.369 108.381 410.499 108.809 410.499 109.247C410.499 109.834 410.265 110.397 409.85 110.812C409.435 111.227 408.872 111.46 408.285 111.46ZM408.285 107.616C407.969 107.616 407.659 107.71 407.396 107.886C407.132 108.062 406.927 108.312 406.806 108.604C406.685 108.897 406.653 109.219 406.715 109.529C406.777 109.84 406.929 110.125 407.153 110.349C407.377 110.573 407.662 110.726 407.973 110.787C408.283 110.849 408.605 110.817 408.898 110.696C409.19 110.575 409.441 110.37 409.616 110.107C409.792 109.843 409.886 109.534 409.886 109.217C409.884 108.793 409.715 108.387 409.415 108.087C409.115 107.787 408.709 107.618 408.285 107.616Z" fill="#0071F2"/>
<path d="M383.377 191.438L382.89 191.017L397.233 174.284L422.872 172.358L436.89 157.071L437.362 157.506L423.174 172.978L397.543 174.903L383.377 191.438Z" fill="#0071F2"/>
<path d="M429.925 189.423L429.504 188.936L441.922 178.297L440.011 148.335L440.645 148.298L442.578 178.578L429.925 189.423Z" fill="#0071F2"/>
<path d="M445.751 188.774L445.257 188.368L457.098 174.151L455.394 147.052L456.028 147.015L457.755 174.365L457.674 174.461L445.751 188.774Z" fill="#0071F2"/>
<path d="M463.71 152.819L463.069 152.86L465.317 187.9L465.957 187.859L463.71 152.819Z" fill="#0071F2"/>
<path d="M434.986 117.104L415.855 99.9355L393.433 101.212L393.33 101.131L363.205 74.8502L363.626 74.3706L393.655 100.563L416.091 99.2788L435.414 116.625L434.986 117.104Z" fill="#0071F2"/>
<path d="M434.986 105.853L418.423 90.9564L394.068 92.2402L393.964 92.1516L374.759 74.8502L375.187 74.3706L394.296 91.5909L418.651 90.3071L435.414 105.373L434.986 105.853Z" fill="#0071F2"/>
<path d="M437.443 107.948L436.809 86.2936L411.915 64.5948L412.336 64.1152L437.436 85.9985L437.443 86.1386L438.085 107.926L437.443 107.948Z" fill="#0071F2"/>
<path d="M422.916 122.365L409.355 110.744L409.776 110.257L423.137 121.715L435.827 121.074L435.857 121.715L422.916 122.365Z" fill="#0071F2"/>
<path d="M433.892 130.721L402.807 132.726L402.848 133.367L433.934 131.362L433.892 130.721Z" fill="#0071F2"/>
<path d="M452.826 100.267L451.557 81.1731L440.254 71.6481L440.667 71.1611L452.177 80.8632L452.184 80.996L453.468 100.223L452.826 100.267Z" fill="#0071F2"/>
<path d="M459.88 99.6255L457.961 69.6338L447.706 60.3449V52.6938H448.348V60.0645L458.589 69.3313L458.596 69.4641L460.514 99.5812L459.88 99.6255Z" fill="#0071F2"/>
<path d="M306.705 116.735L333.487 86.2711C333.794 85.9221 334.168 85.6383 334.587 85.4366C335.006 85.2348 335.461 85.1191 335.925 85.0964C336.39 85.0737 336.854 85.1444 337.291 85.3044C337.727 85.4643 338.127 85.7103 338.467 86.0276L358.757 105.041C359.406 105.649 359.796 106.484 359.847 107.373C359.898 108.262 359.605 109.136 359.03 109.814L333.206 140.234C332.739 140.785 332.166 141.237 331.521 141.563C330.877 141.889 330.173 142.082 329.452 142.132C328.732 142.181 328.008 142.086 327.325 141.851C326.642 141.616 326.012 141.247 325.474 140.765L307.147 124.327C306.087 123.376 305.446 122.044 305.363 120.622C305.28 119.2 305.762 117.803 306.705 116.735Z" fill="white"/>
<path opacity="0.39" d="M324.368 105.616L310.224 120.756L327.525 136.781L341.662 121.199L324.368 105.616Z" fill="#0071F2"/>
<path opacity="0.39" d="M332.579 117.311C332.254 117.009 331.872 116.775 331.455 116.622C331.038 116.469 330.595 116.401 330.151 116.42C329.708 116.44 329.273 116.548 328.871 116.738C328.47 116.927 328.11 117.195 327.813 117.525L327.525 117.849C327.517 116.899 327.227 115.973 326.693 115.188C326.159 114.403 325.404 113.793 324.524 113.436C323.643 113.079 322.677 112.99 321.747 113.181C320.816 113.373 319.963 113.835 319.295 114.51C318.627 115.185 318.174 116.043 317.993 116.976C317.812 117.908 317.911 118.873 318.277 119.75C318.644 120.626 319.261 121.374 320.052 121.9C320.843 122.426 321.772 122.705 322.722 122.704C322.87 122.704 323.01 122.704 323.158 122.704L322.678 123.228C322.092 123.876 321.781 124.728 321.813 125.601C321.845 126.475 322.216 127.301 322.848 127.905L328.809 133.616L338.401 122.726L332.579 117.311Z" fill="#0071F2"/>
<path opacity="0.39" d="M325.939 103.89L328.809 106.657L340.983 93.1994L338.423 90.6318L325.939 103.89Z" fill="#0071F2"/>
<g opacity="0.39">
<path d="M336.29 113.385C336.21 113.385 336.134 113.353 336.076 113.297C336.047 113.267 336.023 113.232 336.007 113.194C335.991 113.155 335.983 113.114 335.983 113.072C335.983 113.03 335.991 112.989 336.007 112.95C336.023 112.911 336.047 112.876 336.076 112.847L348.575 99.3967C348.603 99.3661 348.638 99.3416 348.676 99.3243C348.714 99.307 348.755 99.2974 348.797 99.2961C348.839 99.2947 348.88 99.3016 348.919 99.3163C348.959 99.331 348.994 99.3533 349.025 99.3819C349.055 99.4105 349.08 99.4448 349.097 99.4829C349.115 99.521 349.124 99.5621 349.125 99.6039C349.127 99.6457 349.12 99.6873 349.105 99.7265C349.091 99.7656 349.068 99.8014 349.04 99.832L336.549 113.282C336.516 113.317 336.475 113.344 336.431 113.362C336.386 113.38 336.338 113.388 336.29 113.385Z" fill="#0071F2"/>
</g>
<g opacity="0.39">
<path d="M338.216 115.311C338.154 115.31 338.094 115.291 338.043 115.256C337.992 115.222 337.952 115.173 337.927 115.117C337.902 115.06 337.894 114.998 337.903 114.937C337.913 114.876 337.939 114.819 337.98 114.772L350.456 101.315C350.518 101.256 350.6 101.224 350.685 101.224C350.77 101.224 350.852 101.256 350.914 101.315C350.972 101.375 351.004 101.456 351.004 101.54C351.004 101.624 350.972 101.705 350.914 101.765L338.423 115.223C338.366 115.274 338.293 115.305 338.216 115.311Z" fill="#0071F2"/>
</g>
<g opacity="0.39">
<path d="M340.127 116.573C340.048 116.571 339.973 116.543 339.913 116.492C339.882 116.462 339.858 116.427 339.841 116.387C339.824 116.348 339.816 116.306 339.816 116.263C339.816 116.22 339.824 116.178 339.841 116.139C339.858 116.099 339.882 116.064 339.913 116.034L352.404 102.584C352.433 102.554 352.468 102.529 352.507 102.513C352.545 102.496 352.587 102.487 352.629 102.487C352.671 102.487 352.713 102.496 352.752 102.513C352.79 102.529 352.825 102.554 352.854 102.584C352.884 102.614 352.907 102.649 352.923 102.687C352.939 102.726 352.948 102.767 352.948 102.809C352.948 102.851 352.939 102.892 352.923 102.931C352.907 102.97 352.884 103.005 352.854 103.034L340.356 116.484C340.326 116.515 340.29 116.538 340.251 116.553C340.212 116.569 340.169 116.575 340.127 116.573Z" fill="#0071F2"/>
</g>
<g opacity="0.39">
<path d="M342.06 118.513C342.02 118.514 341.981 118.506 341.944 118.491C341.907 118.476 341.874 118.453 341.846 118.425C341.816 118.395 341.793 118.36 341.777 118.322C341.761 118.283 341.752 118.242 341.752 118.2C341.752 118.158 341.761 118.117 341.777 118.078C341.793 118.039 341.816 118.004 341.846 117.975L354.344 104.525C354.402 104.463 354.482 104.427 354.566 104.424C354.651 104.421 354.733 104.452 354.795 104.51C354.856 104.568 354.892 104.647 354.895 104.732C354.898 104.816 354.867 104.898 354.809 104.96L342.318 118.41C342.285 118.445 342.245 118.472 342.201 118.49C342.156 118.508 342.108 118.516 342.06 118.513Z" fill="#0071F2"/>
</g>
<path opacity="0.22" d="M325.459 58.6924L282.63 153.36L279.457 67.7747C279.457 67.7747 295.372 62.7503 325.459 58.6924Z" fill="white"/>
<path opacity="0.22" d="M499.337 186.768C499.337 186.768 461.577 187.837 417.441 189.719L469.242 52.2588L488.898 51.8604C488.898 51.8604 498.755 161.114 499.337 186.768Z" fill="white"/>
<path d="M403.157 243.172C407.053 243.172 410.211 238.868 410.211 233.559C410.211 228.249 407.053 223.945 403.157 223.945C399.262 223.945 396.104 228.249 396.104 233.559C396.104 238.868 399.262 243.172 403.157 243.172Z" fill="#F9B499"/>
<path d="M349.785 347.394C351.998 349.224 349.357 339.278 348.686 335.796C348.245 333.437 347.998 331.046 347.948 328.647C347.782 322.038 347.121 315.45 345.97 308.94C342.768 294.184 355.311 299.467 355.311 299.467C365.301 303.451 369.042 303.812 369.042 303.812C378.633 303.178 376.095 310.866 376.095 310.866C376.737 318.554 386.35 331.377 386.35 331.377C389.552 337.781 387.634 337.781 387.634 337.781C381.039 336.377 374.156 337.552 368.4 341.064C367.136 341.837 365.786 342.461 364.379 342.923C353.902 346.479 353.666 357.679 353.666 357.679C345.329 356.403 337.641 366.016 337.641 366.016C315.204 362.165 319.055 332.077 319.055 332.077C319.055 332.077 321.121 334.667 323.482 337.707C325.199 340.005 326.736 342.432 328.079 344.967C329.208 347.047 332.233 349.777 340.223 348.095C340.171 348.036 345.941 344.192 349.785 347.394Z" fill="#0071F2"/>
<path d="M349.962 347.638C352.028 349.254 349.696 340.363 349.6 339.611C348.859 336.686 348.365 333.705 348.125 330.698C347.973 323.16 347.193 315.648 345.793 308.239C344.753 303.318 345.683 297.954 351.939 298.603C353.465 298.766 354.958 299.159 356.366 299.769C359.17 300.846 362.01 301.857 364.895 302.72C366.299 303.134 367.725 303.466 369.167 303.716C372.391 303.466 376.368 304.211 376.921 308.018C377.072 309.112 376.991 310.225 376.685 311.286V311.102C377.135 314.835 378.935 318.354 380.721 321.652C382.591 325.016 384.678 328.255 386.97 331.347C387.708 332.911 390.253 337.545 388.062 338.6C387.927 338.648 387.783 338.663 387.641 338.644C380.072 337.168 373.623 338.851 367.123 342.813C364.652 343.905 362.032 344.598 359.952 346.391C358.301 347.849 356.956 349.621 355.995 351.603C355.034 353.585 354.475 355.738 354.352 357.938L354.315 358.557L353.703 358.476C347.505 357.738 342.016 362.165 338.12 366.54L337.943 366.747L337.692 366.703C325.666 364.652 320.11 354.315 319.041 343.019C318.65 339.34 318.665 335.628 319.085 331.952L319.284 332.21L323.748 337.995C325.203 339.951 326.52 342.007 327.688 344.148C328.156 345.268 328.896 346.254 329.84 347.018C330.784 347.781 331.903 348.299 333.096 348.523C335.497 348.928 337.956 348.848 340.326 348.287C343.071 346.59 347.143 345.336 349.918 347.675L349.962 347.638ZM349.962 347.638C347.136 345.351 343.145 346.575 340.37 348.309C337.994 348.89 335.524 348.983 333.11 348.582C331.897 348.358 330.758 347.837 329.796 347.064C328.835 346.291 328.079 345.292 327.599 344.155C326.425 342.025 325.101 339.981 323.637 338.039L319.114 332.314L319.35 332.247C319.023 335.796 319.073 339.37 319.498 342.908C320.701 353.835 326.138 363.958 337.877 365.78L337.449 365.943C341.529 361.213 347.269 356.55 353.909 357.34L353.267 357.886C353.377 355.997 353.775 354.136 354.448 352.367C355.699 348.757 358.212 345.721 361.523 343.816C363.095 342.872 364.939 342.436 366.57 341.603C369.735 339.773 373.085 337.98 376.744 337.345C380.417 336.626 384.196 336.641 387.863 337.39H387.745C387.619 337.39 387.664 337.39 387.634 337.39C387.944 336.121 387.132 334.586 386.675 333.383C386.454 332.852 386.188 332.336 385.937 331.819L385.996 331.908C384.838 330.329 383.783 328.728 382.713 327.09C380.563 323.83 378.732 320.371 377.246 316.761C376.458 314.913 375.948 312.959 375.733 310.962C376.287 309.198 376.25 306.904 374.752 305.613C373.254 304.321 371.063 304.277 369.174 304.336C366.154 303.757 363.191 302.91 360.321 301.806C357.495 300.883 354.802 299.312 351.814 298.987C348.508 298.544 346.037 300.234 345.756 303.635C345.439 306.586 346.398 309.538 346.73 312.563C347.062 315.588 347.468 318.546 347.712 321.556C347.955 324.567 348.021 327.584 348.154 330.595C348.38 333.6 348.859 336.582 349.586 339.507C349.682 340.304 351.969 349.099 349.895 347.542L349.962 347.638Z" fill="#0071F2"/>
<path opacity="0.2" d="M349.962 347.638C352.028 349.254 349.696 340.363 349.6 339.611C348.859 336.686 348.365 333.705 348.125 330.698C347.973 323.16 347.193 315.648 345.793 308.239C344.753 303.318 345.683 297.954 351.939 298.603C353.465 298.766 354.958 299.159 356.366 299.769C359.17 300.846 362.01 301.857 364.895 302.72C366.299 303.134 367.725 303.466 369.167 303.716C372.391 303.466 376.368 304.211 376.921 308.018C377.072 309.112 376.991 310.225 376.685 311.286V311.102C377.135 314.835 378.935 318.354 380.721 321.652C382.591 325.016 384.678 328.255 386.97 331.347C387.708 332.911 390.253 337.545 388.062 338.6C387.927 338.648 387.783 338.663 387.641 338.644C380.072 337.168 373.623 338.851 367.123 342.813C364.652 343.905 362.032 344.598 359.952 346.391C358.301 347.849 356.956 349.621 355.995 351.603C355.034 353.585 354.475 355.738 354.352 357.938L354.315 358.557L353.703 358.476C347.505 357.738 342.016 362.165 338.12 366.54L337.943 366.747L337.692 366.703C325.666 364.652 320.11 354.315 319.041 343.019C318.65 339.34 318.665 335.628 319.085 331.952L319.284 332.21L323.748 337.995C325.203 339.951 326.52 342.007 327.688 344.148C328.156 345.268 328.896 346.254 329.84 347.018C330.784 347.781 331.903 348.299 333.096 348.523C335.497 348.928 337.956 348.848 340.326 348.287C343.071 346.59 347.143 345.336 349.918 347.675L349.962 347.638ZM349.962 347.638C347.136 345.351 343.145 346.575 340.37 348.309C337.994 348.89 335.524 348.983 333.11 348.582C331.897 348.358 330.758 347.837 329.796 347.064C328.835 346.291 328.079 345.292 327.599 344.155C326.425 342.025 325.101 339.981 323.637 338.039L319.114 332.314L319.35 332.247C319.023 335.796 319.073 339.37 319.498 342.908C320.701 353.835 326.138 363.958 337.877 365.78L337.449 365.943C341.529 361.213 347.269 356.55 353.909 357.34L353.267 357.886C353.377 355.997 353.775 354.136 354.448 352.367C355.699 348.757 358.212 345.721 361.523 343.816C363.095 342.872 364.939 342.436 366.57 341.603C369.735 339.773 373.085 337.98 376.744 337.345C380.417 336.626 384.196 336.641 387.863 337.39H387.745C387.619 337.39 387.664 337.39 387.634 337.39C387.944 336.121 387.132 334.586 386.675 333.383C386.454 332.852 386.188 332.336 385.937 331.819L385.996 331.908C384.838 330.329 383.783 328.728 382.713 327.09C380.563 323.83 378.732 320.371 377.246 316.761C376.458 314.913 375.948 312.959 375.733 310.962C376.287 309.198 376.25 306.904 374.752 305.613C373.254 304.321 371.063 304.277 369.174 304.336C366.154 303.757 363.191 302.91 360.321 301.806C357.495 300.883 354.802 299.312 351.814 298.987C348.508 298.544 346.037 300.234 345.756 303.635C345.439 306.586 346.398 309.538 346.73 312.563C347.062 315.588 347.468 318.546 347.712 321.556C347.955 324.567 348.021 327.584 348.154 330.595C348.38 333.6 348.859 336.582 349.586 339.507C349.682 340.304 351.969 349.099 349.895 347.542L349.962 347.638Z" fill="black"/>
<path d="M157.041 120.756C144.299 120.756 133.97 131.514 133.97 144.794C133.97 158.074 144.299 168.824 157.041 168.824C169.783 168.824 180.112 158.067 180.112 144.794C180.112 131.521 169.783 120.756 157.041 120.756ZM157.041 163.483C147.133 163.483 139.098 155.116 139.098 144.794C139.098 134.472 147.133 126.098 157.041 126.098C166.95 126.098 174.985 134.465 174.985 144.794C174.985 155.123 166.95 163.483 157.041 163.483Z" fill="#0071F2"/>
<path d="M204.43 177.287L188.14 163.918C187.284 163.217 186.239 162.79 185.138 162.69C184.037 162.59 182.932 162.822 181.964 163.357L174.675 156.717L169.872 161.144L179.116 168.079C179.1 168.905 179.269 169.725 179.611 170.477C179.953 171.229 180.46 171.895 181.094 172.425L197.229 185.926C198.318 186.836 199.714 187.292 201.13 187.201C202.546 187.111 203.872 186.48 204.836 185.439L204.984 185.277C205.49 184.725 205.878 184.075 206.125 183.368C206.372 182.661 206.473 181.911 206.421 181.163C206.369 180.416 206.166 179.687 205.824 179.02C205.482 178.354 205.008 177.764 204.43 177.287Z" fill="#0071F2"/>
<path opacity="0.22" d="M214.354 67.7671L141.835 232.644C86.0425 240.14 78.2071 245.732 78.2071 245.732V230.74L150.017 84.3234C170.882 78.3324 193.629 72.2603 214.354 67.7671Z" fill="white"/>
<path opacity="0.46" d="M244.205 202.158C249.584 202.158 253.944 195.7 253.944 187.734C253.944 179.768 249.584 173.31 244.205 173.31C238.827 173.31 234.466 179.768 234.466 187.734C234.466 195.7 238.827 202.158 244.205 202.158Z" fill="#0071F2"/>
<path opacity="0.53" d="M244.205 196.277C247.392 196.277 249.975 192.452 249.975 187.734C249.975 183.015 247.392 179.19 244.205 179.19C241.019 179.19 238.436 183.015 238.436 187.734C238.436 192.452 241.019 196.277 244.205 196.277Z" fill="#0071F2"/>
<path opacity="0.22" d="M271.128 220.101C252.085 221.496 234.902 222.89 219.4 224.27L265.329 109.615L271.128 220.101Z" fill="white"/>
<path d="M234.466 223.237L268.922 218.293L268.472 169.488L271.77 221.702L234.466 223.237Z" fill="#0071F2"/>
<path d="M281.265 116.573L277.532 65.6349L323.763 58.9209L279.457 67.7671L281.265 116.573Z" fill="#0071F2"/>
<path d="M473.197 187.734L499.337 186.76L497.463 154.857L501.853 189.335L473.197 187.734Z" fill="#0071F2"/>
<path d="M378.412 138.648C378.412 138.998 378.272 139.334 378.025 139.582C377.777 139.829 377.441 139.968 377.091 139.968H351.932C350.883 139.969 349.872 139.572 349.104 138.857C348.336 138.143 347.867 137.164 347.793 136.117L346.029 111.57C345.994 111.003 346.178 110.444 346.543 110.008C346.908 109.573 347.427 109.295 347.992 109.231H348.228H366.024C366.168 109.231 366.311 109.201 366.443 109.143C366.575 109.085 366.694 109 366.792 108.894C366.891 108.788 366.966 108.664 367.014 108.527C367.062 108.391 367.082 108.247 367.072 108.103L366.622 101.544C366.622 101.544 366.622 97.9874 363.419 97.8546L354.064 98.2604C353.472 98.2758 352.909 98.522 352.495 98.9465C352.082 99.371 351.851 99.9402 351.851 100.533V105.638H348.759V99.6032C348.759 98.0723 349.367 96.604 350.449 95.5208C351.531 94.4376 352.998 93.8281 354.529 93.8262H364.253C365.745 93.8249 367.18 94.4011 368.257 95.4339C369.334 96.4668 369.969 97.8762 370.03 99.3671L370.399 108.221C370.405 108.339 370.436 108.455 370.489 108.561C370.541 108.668 370.615 108.762 370.706 108.839C370.796 108.915 370.901 108.973 371.015 109.007C371.128 109.042 371.248 109.053 371.366 109.04C372.174 108.944 372.994 109.018 373.773 109.256C374.552 109.495 375.272 109.894 375.888 110.427C376.601 111.053 377.172 111.825 377.561 112.69C377.951 113.556 378.15 114.495 378.146 115.444L378.412 138.648Z" fill="#0071F2"/>
<path d="M373.675 143.827L350.596 144.469C343.55 143.827 343.956 139.983 343.956 139.983L342.267 114.36C341.699 109.807 346.848 109.298 348.014 109.247C347.449 109.31 346.93 109.588 346.565 110.023C346.2 110.459 346.016 111.018 346.052 111.585L347.763 136.147C347.838 137.193 348.307 138.173 349.075 138.887C349.843 139.602 350.853 139.999 351.902 139.998H377.091C377.441 139.998 377.777 139.859 378.025 139.611C378.272 139.364 378.412 139.028 378.412 138.678C379.968 143.724 373.675 143.827 373.675 143.827Z" fill="#0071F2"/>
<path opacity="0.1" d="M373.675 143.827L350.596 144.469C343.55 143.827 343.956 139.983 343.956 139.983L342.267 114.36C341.699 109.807 346.848 109.298 348.014 109.247C347.449 109.31 346.93 109.588 346.565 110.023C346.2 110.459 346.016 111.018 346.052 111.585L347.763 136.147C347.838 137.193 348.307 138.173 349.075 138.887C349.843 139.602 350.853 139.999 351.902 139.998H377.091C377.441 139.998 377.777 139.859 378.025 139.611C378.272 139.364 378.412 139.028 378.412 138.678C379.968 143.724 373.675 143.827 373.675 143.827Z" fill="black"/>
<path opacity="0.1" d="M362.261 119.591C361.096 119.338 359.879 119.523 358.841 120.109C357.803 120.695 357.017 121.643 356.632 122.77C356.253 123.9 356.308 125.13 356.787 126.222C357.266 127.313 358.134 128.187 359.221 128.673V132.805C359.221 133.364 359.444 133.901 359.839 134.297C360.235 134.692 360.772 134.915 361.331 134.915C361.891 134.915 362.428 134.692 362.824 134.297C363.219 133.901 363.442 133.364 363.442 132.805V128.525C364.311 128.068 365.018 127.355 365.469 126.482C365.921 125.61 366.094 124.62 365.965 123.647C365.836 122.673 365.412 121.762 364.75 121.037C364.088 120.312 363.219 119.807 362.261 119.591Z" fill="black"/>
<path opacity="0.1" d="M372.883 111.753L372.625 111.769C371.637 111.828 370.883 112.677 370.942 113.665L371.301 119.682C371.359 120.671 372.208 121.424 373.197 121.365L373.455 121.35C374.443 121.291 375.197 120.442 375.138 119.454L374.779 113.437C374.72 112.448 373.871 111.695 372.883 111.753Z" fill="black"/>
<path d="M381.525 124.762C381.079 124.315 380.549 123.96 379.965 123.718C379.381 123.475 378.756 123.351 378.124 123.351C377.492 123.351 376.866 123.475 376.283 123.718C375.699 123.96 375.169 124.315 374.723 124.762L370.296 129.189C369.55 129.94 369.074 130.917 368.94 131.967C368.807 133.017 369.024 134.082 369.558 134.996L368.009 136.641C367.113 136.218 366.109 136.082 365.133 136.251C364.157 136.42 363.257 136.886 362.556 137.585L358.129 142.012C357.327 142.817 356.835 143.881 356.742 145.014C356.649 146.147 356.96 147.277 357.62 148.202L355.997 149.921C355.144 149.623 354.223 149.57 353.341 149.77C352.459 149.969 351.651 150.413 351.01 151.05L346.583 155.477C346.11 155.917 345.731 156.448 345.468 157.038C345.205 157.628 345.063 158.265 345.051 158.911C345.04 159.556 345.158 160.198 345.4 160.797C345.641 161.396 346.001 161.94 346.458 162.397C346.914 162.854 347.458 163.215 348.057 163.457C348.655 163.699 349.297 163.818 349.943 163.807C350.589 163.796 351.226 163.655 351.816 163.393C352.406 163.13 352.937 162.752 353.378 162.28L357.805 157.853C358.641 157.017 359.139 155.902 359.204 154.722C359.269 153.542 358.897 152.379 358.159 151.456L359.634 149.833C360.517 150.209 361.491 150.312 362.433 150.129C363.374 149.947 364.24 149.486 364.917 148.807L369.344 144.381C370.123 143.603 370.611 142.582 370.728 141.487C370.845 140.393 370.583 139.292 369.986 138.367L371.417 136.803C372.328 137.297 373.374 137.484 374.399 137.335C375.424 137.186 376.373 136.71 377.106 135.977L381.532 131.55C382.429 130.648 382.932 129.427 382.93 128.155C382.929 126.883 382.424 125.663 381.525 124.762ZM355.245 156.879L352.434 159.69C351.997 160.112 351.411 160.346 350.804 160.341C350.196 160.336 349.615 160.092 349.185 159.663C348.755 159.233 348.512 158.652 348.507 158.044C348.501 157.436 348.735 156.851 349.158 156.414L351.969 153.603C352.406 153.181 352.991 152.947 353.599 152.952C354.206 152.957 354.788 153.201 355.217 153.63C355.647 154.06 355.891 154.641 355.896 155.249C355.901 155.857 355.667 156.442 355.245 156.879ZM366.784 143.421L363.973 146.232C363.536 146.655 362.951 146.889 362.343 146.884C361.735 146.878 361.154 146.635 360.724 146.205C360.295 145.775 360.051 145.194 360.046 144.586C360.041 143.979 360.275 143.393 360.697 142.957L363.508 140.146C363.945 139.723 364.53 139.489 365.138 139.494C365.745 139.5 366.327 139.743 366.756 140.173C367.186 140.603 367.43 141.184 367.435 141.792C367.44 142.399 367.206 142.985 366.784 143.421ZM378.958 130.591L376.147 133.402C375.711 133.836 375.121 134.08 374.506 134.079C373.891 134.079 373.301 133.834 372.867 133.398C372.433 132.963 372.189 132.373 372.19 131.758C372.19 131.143 372.435 130.553 372.871 130.119L375.682 127.308C376.117 126.873 376.707 126.63 377.322 126.63C377.937 126.631 378.527 126.876 378.961 127.311C379.396 127.747 379.639 128.337 379.639 128.952C379.638 129.567 379.393 130.157 378.958 130.591Z" fill="white"/>
<path opacity="0.22" d="M432.588 53.0112C422.163 81.2396 391.058 169.016 383.156 191.231C361.236 192.301 339.677 193.533 322.043 194.92L378.353 54.1474C378.707 54.1474 379.09 54.1474 379.444 54.1032L432.588 53.0112Z" fill="white"/>
</g>
<defs>
<clipPath id="clip0_4_2864">
<rect width="638.76" height="503.838" fill="white"/>
</clipPath>
</defs>
</svg>
