<svg width="1512" height="982" viewBox="0 0 1512 982" fill="none" xmlns="http://www.w3.org/2000/svg">
<g clip-path="url(#clip0_8_1694)">
<rect width="1512" height="982" fill="white"/>
<rect width="1512" height="982" fill="white"/>
<path d="M156.447 737.743C151.515 693.052 239.779 641.898 284.47 636.966C329.161 632.034 335.618 687.752 340.55 732.443C345.482 777.133 313.784 819.362 269.093 824.294C224.402 829.226 161.379 782.434 156.447 737.743Z" fill="url(#paint0_linear_8_1694)"/>
<path d="M1105.72 834.068C1112.45 807.93 1172.87 797.966 1199.01 804.693C1225.15 811.421 1216.93 844.073 1210.21 870.212C1203.48 896.35 1176.71 913.322 1150.57 906.595C1124.43 899.867 1098.99 860.206 1105.72 834.068Z" fill="url(#paint1_linear_8_1694)"/>
<path d="M1404.2 592.986C1415.22 627.01 1361.23 618.963 1327.2 629.986C1293.18 641.008 1275.26 654.082 1264.24 620.058C1253.22 586.034 1206.1 556.63 1240.12 545.607C1274.15 534.584 1393.18 558.961 1404.2 592.986Z" fill="url(#paint2_linear_8_1694)"/>
<path d="M85.3145 326.027C62.1803 281.335 133.781 192.392 178.473 169.258C223.165 146.123 208.068 226.877 231.202 271.569C254.337 316.261 282.483 347.962 237.791 371.096C193.099 394.23 108.449 370.719 85.3145 326.027Z" fill="url(#paint3_linear_8_1694)"/>
<rect width="1512" height="80" fill="#0071F2"/>
<path d="M1208.66 177.738C1249.98 236.114 1166.62 375.343 1108.25 416.663C1049.87 457.984 1116.94 330.287 1075.62 271.91C1034.3 213.534 926.826 185.493 985.202 144.172C1043.58 102.851 1167.34 119.361 1208.66 177.738Z" fill="url(#paint4_linear_8_1694)"/>
</g>
<defs>
<linearGradient id="paint0_linear_8_1694" x1="166.308" y1="827.099" x2="255.118" y2="613.749" gradientUnits="userSpaceOnUse">
<stop stop-color="#0071F2" stop-opacity="0"/>
<stop offset="1" stop-color="#0071F2"/>
</linearGradient>
<linearGradient id="paint1_linear_8_1694" x1="1153.5" y1="885" x2="1217.23" y2="675.282" gradientUnits="userSpaceOnUse">
<stop stop-color="#0071F2" stop-opacity="0"/>
<stop offset="0.947717" stop-color="#0071F2"/>
</linearGradient>
<linearGradient id="paint2_linear_8_1694" x1="1170.15" y1="526.482" x2="1363.18" y2="674.108" gradientUnits="userSpaceOnUse">
<stop stop-color="#0071F2" stop-opacity="0"/>
<stop offset="1" stop-color="#0071F2"/>
</linearGradient>
<linearGradient id="paint3_linear_8_1694" x1="131.569" y1="415.384" x2="145.57" y2="110.779" gradientUnits="userSpaceOnUse">
<stop stop-color="#0071F2" stop-opacity="0"/>
<stop offset="1" stop-color="#0071F2"/>
</linearGradient>
<linearGradient id="paint4_linear_8_1694" x1="1126.05" y1="61.0186" x2="1157.98" y2="488.66" gradientUnits="userSpaceOnUse">
<stop stop-color="#0071F2"/>
<stop offset="1" stop-color="#0071F2" stop-opacity="0"/>
</linearGradient>
<clipPath id="clip0_8_1694">
<rect width="1512" height="982" fill="white"/>
</clipPath>
</defs>
</svg>
