<svg width="620" height="490" viewBox="0 0 620 490" fill="none" xmlns="http://www.w3.org/2000/svg">
<path d="M469.863 48.7188H166.508V284.764H469.863V48.7188Z" fill="white"/>
<path d="M470.221 285.121H166.143V48.3604H470.213L470.221 285.121ZM166.866 284.405H469.505V49.0765H166.859L166.866 284.405Z" fill="#2F2E41"/>
<path d="M204.112 120.568H203.396V264.941H204.112V120.568Z" fill="#2F2E41"/>
<path d="M250.26 149.865H249.544V264.833H250.26V149.865Z" fill="#2F2E41"/>
<path d="M295.219 119.1H294.503V234.068H295.219V119.1Z" fill="#2F2E41"/>
<path d="M334.771 95.6611H334.055V210.629H334.771V95.6611Z" fill="#2F2E41"/>
<path d="M381.929 151.333H381.212V266.302H381.929V151.333Z" fill="#2F2E41"/>
<path d="M433.626 118.37H432.91V233.338H433.626V118.37Z" fill="#2F2E41"/>
<path d="M250.998 150.324C250.998 150.536 250.935 150.744 250.817 150.921C250.699 151.097 250.531 151.235 250.335 151.316C250.138 151.397 249.922 151.419 249.714 151.377C249.506 151.336 249.314 151.234 249.164 151.083C249.014 150.933 248.911 150.742 248.87 150.533C248.829 150.325 248.85 150.109 248.931 149.913C249.012 149.716 249.15 149.549 249.327 149.431C249.503 149.313 249.711 149.25 249.924 149.25C250.208 149.25 250.482 149.363 250.683 149.564C250.885 149.766 250.998 150.039 250.998 150.324Z" fill="#2F2E41"/>
<path d="M294.861 119.487C295.454 119.487 295.935 119.006 295.935 118.413C295.935 117.819 295.454 117.338 294.861 117.338C294.268 117.338 293.787 117.819 293.787 118.413C293.787 119.006 294.268 119.487 294.861 119.487Z" fill="#2F2E41"/>
<path d="M294.861 122.187C294.114 122.188 293.384 121.968 292.762 121.554C292.141 121.14 291.656 120.551 291.369 119.862C291.082 119.172 291.007 118.413 291.151 117.681C291.296 116.948 291.655 116.275 292.183 115.747C292.71 115.218 293.383 114.858 294.115 114.712C294.847 114.566 295.606 114.64 296.296 114.925C296.986 115.211 297.576 115.694 297.991 116.315C298.406 116.936 298.628 117.666 298.628 118.413C298.628 119.412 298.231 120.371 297.525 121.079C296.819 121.786 295.861 122.185 294.861 122.187ZM294.861 114.889C294.164 114.889 293.483 115.096 292.904 115.483C292.324 115.87 291.873 116.421 291.606 117.064C291.339 117.708 291.269 118.417 291.405 119.1C291.541 119.784 291.877 120.411 292.37 120.904C292.862 121.397 293.49 121.732 294.174 121.868C294.857 122.004 295.566 121.935 296.209 121.668C296.853 121.401 297.403 120.95 297.791 120.37C298.178 119.791 298.384 119.11 298.384 118.413C298.384 117.478 298.013 116.582 297.352 115.921C296.692 115.261 295.795 114.889 294.861 114.889Z" fill="#2F2E41"/>
<path d="M334.277 96.8286C334.87 96.8286 335.351 96.3476 335.351 95.7544C335.351 95.1611 334.87 94.6802 334.277 94.6802C333.684 94.6802 333.203 95.1611 333.203 95.7544C333.203 96.3476 333.684 96.8286 334.277 96.8286Z" fill="#2F2E41"/>
<path d="M381.57 152.472C382.164 152.472 382.645 151.991 382.645 151.398C382.645 150.805 382.164 150.324 381.57 150.324C380.977 150.324 380.496 150.805 380.496 151.398C380.496 151.991 380.977 152.472 381.57 152.472Z" fill="#2F2E41"/>
<path d="M433.268 119.487C433.861 119.487 434.342 119.006 434.342 118.413C434.342 117.819 433.861 117.338 433.268 117.338C432.675 117.338 432.194 117.819 432.194 118.413C432.194 119.006 432.675 119.487 433.268 119.487Z" fill="#263238"/>
<path d="M204.814 119.494C204.813 119.706 204.749 119.913 204.63 120.089C204.511 120.264 204.343 120.401 204.146 120.481C203.95 120.561 203.734 120.582 203.526 120.539C203.318 120.497 203.128 120.394 202.978 120.244C202.828 120.093 202.727 119.902 202.686 119.694C202.645 119.486 202.667 119.27 202.748 119.074C202.83 118.878 202.968 118.711 203.144 118.593C203.321 118.475 203.528 118.413 203.74 118.413C203.88 118.413 204.019 118.44 204.148 118.494C204.278 118.547 204.395 118.626 204.495 118.725C204.594 118.824 204.672 118.942 204.726 119.071C204.78 119.201 204.807 119.34 204.807 119.48L204.814 119.494Z" fill="#2F2E41"/>
<path d="M443.423 170.268C443.152 170.39 442.868 170.484 442.578 170.547C441.745 170.769 440.929 171.049 440.136 171.385C437.134 172.782 434.464 174.801 432.301 177.307C429.344 180.487 426.429 184.906 422.748 189.883C420.79 192.566 418.618 195.085 416.253 197.417C414.939 198.683 413.531 199.849 412.042 200.904C410.442 201.993 408.739 202.921 406.957 203.676C403.097 205.237 398.942 205.934 394.783 205.716C392.579 205.674 390.385 205.4 388.238 204.9C385.959 204.414 383.804 203.466 381.907 202.114C379.967 200.702 378.294 198.956 376.966 196.958C375.605 194.982 374.38 192.891 373.199 190.771C370.828 186.474 368.379 182.177 365.586 177.88C362.793 173.584 360.308 168.9 357.48 164.36C354.718 159.684 351.378 155.375 347.54 151.534C345.552 149.634 343.304 148.026 340.865 146.757C338.407 145.499 335.736 144.712 332.988 144.437C327.267 143.877 321.513 145.103 316.517 147.946C311.578 150.925 307.316 154.903 304.006 159.626C300.719 164.222 297.741 169.03 295.09 174.02C292.478 178.87 289.595 183.568 286.453 188.092C283.427 192.467 279.907 196.477 275.962 200.045C274.99 200.905 273.974 201.716 272.919 202.472C271.881 203.232 270.803 203.935 269.689 204.578C267.5 205.841 265.152 206.805 262.706 207.442C261.508 207.761 260.287 207.989 259.054 208.123C258.444 208.199 257.829 208.233 257.214 208.223H255.388C253.01 208.087 250.658 207.649 248.391 206.92C244.173 205.429 240.187 203.348 236.553 200.739C233.037 198.326 229.829 195.805 226.678 193.578C223.768 191.36 220.63 189.459 217.318 187.906C214.372 186.542 211.231 185.645 208.008 185.249C205.206 184.913 202.365 185.098 199.629 185.794C199.012 185.944 198.407 186.137 197.818 186.374C197.232 186.551 196.662 186.776 196.113 187.047C195.088 187.516 194.099 188.062 193.156 188.68C191.572 189.742 190.084 190.94 188.708 192.26L187.154 193.958C186.708 194.407 186.292 194.885 185.908 195.39L184.34 197.452C184.168 197.697 183.974 197.924 183.76 198.133C183.879 197.858 184.03 197.598 184.211 197.359L185.643 195.211C186.01 194.682 186.409 194.178 186.839 193.7L188.343 191.924C189.703 190.532 191.195 189.275 192.797 188.171C193.737 187.518 194.726 186.939 195.755 186.438C196.307 186.147 196.885 185.907 197.481 185.722C198.089 185.465 198.713 185.249 199.35 185.078C202.17 184.307 205.107 184.064 208.015 184.361C211.343 184.724 214.593 185.606 217.647 186.975C221.041 188.528 224.263 190.434 227.258 192.661C230.437 194.91 233.667 197.388 237.126 199.744C240.678 202.253 244.567 204.246 248.677 205.666C250.838 206.353 253.08 206.755 255.345 206.862H257.092C257.672 206.87 258.251 206.834 258.825 206.755C259.991 206.625 261.145 206.405 262.277 206.096C267.012 204.753 271.366 202.317 274.988 198.985C278.837 195.481 282.269 191.545 285.215 187.255C288.308 182.764 291.153 178.107 293.737 173.304C296.421 168.257 299.438 163.393 302.767 158.745C306.206 153.852 310.628 149.73 315.751 146.643C318.39 145.159 321.239 144.082 324.201 143.449C327.118 142.833 330.112 142.661 333.081 142.94C336.032 143.235 338.901 144.083 341.538 145.439C344.108 146.762 346.472 148.451 348.557 150.452C352.478 154.388 355.889 158.801 358.711 163.586C361.576 168.177 364.082 172.803 366.775 177.136C369.468 181.468 372.039 185.872 374.366 190.126C376.693 194.38 379.035 198.548 382.652 201.105C384.421 202.378 386.435 203.271 388.567 203.726C390.63 204.213 392.736 204.491 394.855 204.556C398.846 204.785 402.84 204.15 406.563 202.694C408.289 201.979 409.941 201.099 411.498 200.066C412.954 199.058 414.333 197.943 415.623 196.729C417.968 194.458 420.124 191.998 422.068 189.374C425.799 184.44 428.828 180.065 431.879 176.921C434.146 174.413 436.945 172.444 440.071 171.156C440.883 170.835 441.725 170.595 442.585 170.44C442.859 170.358 443.139 170.3 443.423 170.268Z" fill="#0071F2"/>
<path d="M255.581 75.2085H202.687V78.1518H255.581V75.2085Z" fill="#2F2E41"/>
<path d="M228.819 82.0977H202.687V85.041H228.819V82.0977Z" fill="#2F2E41"/>
<path d="M170.59 29.4619H465.415C466 29.4619 466.579 29.5772 467.119 29.8011C467.659 30.0251 468.15 30.3533 468.563 30.767C468.976 31.1807 469.303 31.6718 469.526 32.2122C469.749 32.7526 469.864 33.3317 469.863 33.9163V48.6973H166.143V33.9163C166.142 33.3317 166.256 32.7526 166.48 32.2122C166.703 31.6718 167.03 31.1807 167.443 30.767C167.856 30.3533 168.347 30.0251 168.887 29.8011C169.427 29.5772 170.006 29.4619 170.59 29.4619Z" fill="#2F2E41"/>
<path d="M181.898 39.4588C181.899 39.8702 181.779 40.2727 181.551 40.6153C181.323 40.9579 180.999 41.2252 180.619 41.3833C180.239 41.5414 179.821 41.5831 179.418 41.5032C179.014 41.4233 178.644 41.2253 178.353 40.9345C178.062 40.6436 177.864 40.2729 177.784 39.8694C177.704 39.4658 177.746 39.0477 177.904 38.6679C178.062 38.2881 178.329 37.9638 178.672 37.7362C179.014 37.5085 179.417 37.3878 179.828 37.3892C180.377 37.3892 180.904 37.6072 181.292 37.9954C181.68 38.3835 181.898 38.9099 181.898 39.4588Z" fill="white"/>
<path d="M190.936 39.4588C190.937 39.8699 190.816 40.2721 190.589 40.6145C190.362 40.957 190.038 41.2243 189.658 41.3826C189.279 41.5409 188.861 41.583 188.458 41.5037C188.055 41.4244 187.684 41.2272 187.393 40.937C187.102 40.6468 186.903 40.2768 186.822 39.8738C186.742 39.4707 186.782 39.0528 186.939 38.6729C187.096 38.293 187.363 37.9682 187.704 37.7397C188.046 37.5112 188.448 37.3892 188.859 37.3892C189.131 37.3882 189.401 37.4411 189.653 37.5447C189.905 37.6482 190.134 37.8005 190.327 37.9928C190.52 38.1851 190.673 38.4136 190.777 38.6651C190.882 38.9167 190.936 39.1864 190.936 39.4588Z" fill="white"/>
<path d="M199.973 39.4588C199.975 39.8702 199.854 40.2727 199.626 40.6153C199.398 40.9579 199.074 41.2252 198.694 41.3833C198.315 41.5414 197.896 41.5831 197.493 41.5032C197.089 41.4233 196.719 41.2253 196.428 40.9345C196.137 40.6436 195.939 40.2729 195.859 39.8694C195.779 39.4658 195.821 39.0477 195.979 38.6679C196.137 38.2881 196.404 37.9638 196.747 37.7362C197.09 37.5085 197.492 37.3878 197.904 37.3892C198.452 37.3892 198.979 37.6072 199.367 37.9954C199.755 38.3835 199.973 38.9099 199.973 39.4588Z" fill="white"/>
<path d="M227.014 93.2192H109.382C107.954 93.2192 106.797 94.3767 106.797 95.8045V141.63C106.797 143.058 107.954 144.215 109.382 144.215H227.014C228.442 144.215 229.6 143.058 229.6 141.63V95.8045C229.6 94.3767 228.442 93.2192 227.014 93.2192Z" fill="#E0E0E0"/>
<path d="M132.313 109.332C132.313 110.465 131.977 111.573 131.347 112.515C130.718 113.457 129.823 114.191 128.776 114.625C127.729 115.059 126.577 115.172 125.466 114.951C124.355 114.73 123.334 114.184 122.533 113.383C121.732 112.582 121.186 111.561 120.965 110.45C120.744 109.338 120.857 108.187 121.291 107.14C121.724 106.093 122.459 105.198 123.401 104.569C124.343 103.939 125.451 103.603 126.584 103.603C128.103 103.603 129.56 104.207 130.635 105.281C131.709 106.355 132.313 107.813 132.313 109.332Z" fill="#0071F2"/>
<path d="M177.931 105.379H138.035V107.592H177.931V105.379Z" fill="#0071F2"/>
<path d="M215.628 110.414H138.035V112.626H215.628V110.414Z" fill="white"/>
<path d="M132.313 126.935C132.313 128.068 131.977 129.175 131.347 130.118C130.718 131.06 129.823 131.794 128.776 132.228C127.729 132.661 126.577 132.775 125.466 132.554C124.355 132.333 123.334 131.787 122.533 130.986C121.732 130.184 121.186 129.164 120.965 128.052C120.744 126.941 120.857 125.789 121.291 124.742C121.724 123.695 122.459 122.801 123.401 122.171C124.343 121.542 125.451 121.206 126.584 121.206C128.103 121.206 129.56 121.809 130.635 122.884C131.709 123.958 132.313 125.415 132.313 126.935Z" fill="#0071F2"/>
<path d="M158.409 122.981H138.035V125.194H158.409V122.981Z" fill="#0071F2"/>
<path d="M215.628 128.009H138.035V130.222H215.628V128.009Z" fill="white"/>
<path d="M232.436 247.839H81.8111C79.6516 247.839 77.901 249.59 77.901 251.749V311.282C77.901 313.441 79.6516 315.192 81.8111 315.192H232.436C234.595 315.192 236.346 313.441 236.346 311.282V251.749C236.346 249.59 234.595 247.839 232.436 247.839Z" fill="#E0E0E0"/>
<path d="M106.89 280.381L106.797 266.724C102.632 266.797 98.6301 268.359 95.5179 271.128C93.5255 272.861 91.9887 275.055 91.0423 277.52C90.0958 279.985 89.7687 282.644 90.0896 285.265C90.1612 285.916 90.2686 286.583 90.4047 287.241C90.408 287.249 90.4097 287.258 90.4097 287.266C90.4097 287.275 90.408 287.284 90.4047 287.291L106.876 283.589L106.89 280.381Z" fill="#0071F2"/>
<path d="M123.891 276.177C122.69 273.595 120.83 271.375 118.498 269.741C116.166 268.106 113.444 267.115 110.607 266.868L110.084 266.817H108.652L108.738 280.474V283.682L125.209 287.22C125.466 286.056 125.589 284.867 125.574 283.675C125.572 281.082 124.998 278.522 123.891 276.177Z" fill="#0071F2"/>
<g opacity="0.2">
<path d="M123.891 276.177C122.69 273.595 120.83 271.375 118.498 269.741C116.166 268.106 113.444 267.115 110.607 266.868L110.084 266.817H108.652L108.738 280.474V283.682L125.209 287.22C125.466 286.056 125.589 284.867 125.574 283.675C125.572 281.082 124.998 278.522 123.891 276.177Z" fill="black"/>
</g>
<path d="M107.764 285.258L91.2927 288.967C92.137 292.713 94.2335 296.058 97.236 298.451C100.239 300.845 103.967 302.142 107.807 302.129C111.646 302.117 115.367 300.795 118.354 298.383C121.34 295.97 123.415 292.611 124.235 288.86L107.764 285.279" fill="#0071F2"/>
<g opacity="0.1">
<path d="M107.764 285.258L91.2927 288.967C92.137 292.713 94.2335 296.058 97.236 298.451C100.239 300.845 103.967 302.142 107.807 302.129C111.646 302.117 115.367 300.795 118.354 298.383C121.34 295.97 123.415 292.611 124.235 288.86L107.764 285.279" fill="black"/>
</g>
<path d="M220.247 270.806H136.624V274.595H220.247V270.806Z" fill="white"/>
<path d="M220.247 280.796H136.624V284.584H220.247V280.796Z" fill="white"/>
<path d="M181.826 291.839H136.624V295.627H181.826V291.839Z" fill="white"/>
<path d="M449.524 189.833H300.919C296.335 189.833 292.619 193.549 292.619 198.133V340.6C292.619 345.184 296.335 348.9 300.919 348.9H449.524C454.108 348.9 457.824 345.184 457.824 340.6V198.133C457.824 193.549 454.108 189.833 449.524 189.833Z" fill="#E6E6E6"/>
<path d="M309.585 298.8H304.164V300.361H309.585V298.8Z" fill="#2F2E41"/>
<path d="M323.37 307.157H316.431V308.718H323.37V307.157Z" fill="#2F2E41"/>
<path d="M347.511 307.157H340.572V308.718H347.511V307.157Z" fill="#2F2E41"/>
<path d="M371.645 307.157H364.705V308.718H371.645V307.157Z" fill="#2F2E41"/>
<path d="M395.786 307.157H388.846V308.718H395.786V307.157Z" fill="#2F2E41"/>
<path d="M419.927 307.157H412.987V308.718H419.927V307.157Z" fill="#2F2E41"/>
<path d="M444.067 307.157H437.128V308.718H444.067V307.157Z" fill="#2F2E41"/>
<path d="M309.585 277.932H304.164V279.493H309.585V277.932Z" fill="#2F2E41"/>
<path d="M309.585 238.651H304.164V240.213H309.585V238.651Z" fill="#2F2E41"/>
<path d="M309.585 218.922H304.164V220.483H309.585V218.922Z" fill="#2F2E41"/>
<path d="M309.864 258.295H304.443V259.856H309.864V258.295Z" fill="#2F2E41"/>
<path d="M445.099 259.033H317.369V259.749H445.099V259.033Z" fill="#2F2E41"/>
<path d="M445.099 239.26H317.369V239.976H445.099V239.26Z" fill="#2F2E41"/>
<path d="M445.385 219.373H317.656V220.089H445.385V219.373Z" fill="#2F2E41"/>
<path d="M445.099 278.182H317.369V278.898H445.099V278.182Z" fill="#2F2E41"/>
<path d="M318.987 296.136V278.712L329.844 261.854L337.22 267.512L352.338 244.016L361.225 250.303L373.636 228.59L383.726 236.797L398.844 208.051L415.136 240.184L428.327 224.107L443.838 219.667V296.093L318.987 296.136Z" fill="#0071F2"/>
<path d="M445.385 213.515H441.138L429.236 213.573H429.344L416.589 230.244L416.518 230.323H416.425L384.485 230.373L384.7 230.258L371.272 252.638L358.081 274.551L357.895 274.866L357.673 274.566L340.378 250.776H340.722L324.931 275.368C323.048 278.333 321.558 280.581 320.534 282.157C320.04 282.93 319.646 283.51 319.367 283.933C319.088 284.355 318.952 284.527 318.952 284.527C318.952 284.527 319.073 284.312 319.317 283.904C319.56 283.496 319.947 282.873 320.434 282.092L324.731 275.232L340.364 250.554L340.522 250.303L340.708 250.547C345.878 257.622 351.729 265.635 358.067 274.294H357.652L370.821 252.373L384.27 230.029L384.342 229.908H416.417L416.26 229.986L429.122 213.408V213.351H429.2L441.138 213.408H445.099L445.385 213.515Z" fill="#2F2E41"/>
<path d="M345.807 256.254C345.814 256.496 345.749 256.735 345.62 256.94C345.491 257.145 345.305 257.308 345.084 257.407C344.863 257.506 344.618 257.537 344.379 257.497C344.14 257.457 343.919 257.346 343.742 257.18C343.566 257.014 343.443 256.799 343.389 256.563C343.335 256.327 343.352 256.081 343.438 255.854C343.524 255.628 343.675 255.432 343.872 255.292C344.07 255.151 344.304 255.072 344.546 255.065H344.582C344.739 255.061 344.895 255.089 345.042 255.145C345.189 255.202 345.323 255.287 345.436 255.395C345.55 255.504 345.641 255.633 345.705 255.777C345.768 255.921 345.803 256.076 345.807 256.233V256.254Z" fill="#2F2E41"/>
<path d="M382.652 235.3C382.66 235.542 382.597 235.781 382.469 235.987C382.342 236.193 382.156 236.357 381.936 236.457C381.715 236.557 381.47 236.59 381.231 236.551C380.992 236.512 380.77 236.403 380.593 236.238C380.416 236.073 380.292 235.859 380.236 235.624C380.18 235.388 380.196 235.141 380.281 234.914C380.365 234.687 380.515 234.491 380.712 234.349C380.908 234.207 381.142 234.127 381.384 234.119H381.427C381.746 234.117 382.054 234.24 382.283 234.463C382.512 234.685 382.644 234.988 382.652 235.307V235.3Z" fill="#2F2E41"/>
<path d="M411.29 230.158C411.3 230.402 411.237 230.642 411.11 230.85C410.983 231.058 410.797 231.223 410.576 231.325C410.355 231.428 410.108 231.462 409.868 231.424C409.627 231.386 409.403 231.278 409.224 231.113C409.045 230.948 408.919 230.734 408.862 230.497C408.805 230.26 408.819 230.012 408.903 229.783C408.987 229.554 409.136 229.356 409.333 229.212C409.53 229.069 409.765 228.987 410.008 228.977H410.065C410.385 228.973 410.693 229.096 410.923 229.318C411.152 229.541 411.284 229.846 411.29 230.165V230.158Z" fill="#2F2E41"/>
<path d="M324.359 335.659C328.737 335.659 332.286 332.244 332.286 328.032C332.286 323.82 328.737 320.405 324.359 320.405C319.98 320.405 316.431 323.82 316.431 328.032C316.431 332.244 319.98 335.659 324.359 335.659Z" fill="white"/>
<path d="M437.128 322.919H344.038V325.769H437.128V322.919Z" fill="white"/>
<path d="M382.688 330.052H344.038V332.902H382.688V330.052Z" fill="white"/>
<path d="M509.458 66.2852H409.521C406.828 66.2852 404.644 68.4686 404.644 71.162V152.386C404.644 155.079 406.828 157.263 409.521 157.263H509.458C512.151 157.263 514.335 155.079 514.335 152.386V71.162C514.335 68.4686 512.151 66.2852 509.458 66.2852Z" fill="#E6E6E6"/>
<path d="M429.709 102.715H423.794V147.351H429.709V102.715Z" fill="#0071F2"/>
<path d="M456.585 99.0913H450.67V147.352H456.585V99.0913Z" fill="#0071F2"/>
<path d="M484.414 92.9614H478.499V147.352H484.414V92.9614Z" fill="#0071F2"/>
<path d="M471.345 125.61H465.43V147.345H471.345V125.61Z" fill="#0071F2"/>
<g opacity="0.2">
<path d="M471.345 125.61H465.43V147.345H471.345V125.61Z" fill="black"/>
</g>
<path d="M436.598 97.9243H430.683V147.352H436.598V97.9243Z" fill="#0071F2"/>
<g opacity="0.1">
<path d="M436.598 97.9243H430.683V147.352H436.598V97.9243Z" fill="black"/>
</g>
<path d="M463.954 87.5762H458.039V147.352H463.954V87.5762Z" fill="#0071F2"/>
<g opacity="0.1">
<path d="M463.954 87.5762H458.039V147.352H463.954V87.5762Z" fill="black"/>
</g>
<path d="M499.675 87.5762H493.76V147.352H499.675V87.5762Z" fill="#0071F2"/>
<g opacity="0.2">
<path d="M499.675 87.5762H493.76V147.352H499.675V87.5762Z" fill="black"/>
</g>
<path d="M491.955 75.7671H486.04V147.352H491.955V75.7671Z" fill="#0071F2"/>
<g opacity="0.1">
<path d="M491.955 75.7671H486.04V147.352H491.955V75.7671Z" fill="black"/>
</g>
<path d="M443.831 115.985H437.916V147.352H443.831V115.985Z" fill="#0071F2"/>
<g opacity="0.2">
<path d="M443.831 115.985H437.916V147.352H443.831V115.985Z" fill="black"/>
</g>
<path d="M512.974 150.438H412.787V151.155H512.974V150.438Z" fill="#2F2E41"/>
<path d="M414.749 139.41H411.14V140.606H414.749V139.41Z" fill="#2F2E41"/>
<path d="M414.749 123.526H411.14V124.722H414.749V123.526Z" fill="#2F2E41"/>
<path d="M414.749 93.6201H411.14V94.8161H414.749V93.6201Z" fill="#2F2E41"/>
<path d="M414.749 78.603H411.14V79.799H414.749V78.603Z" fill="#2F2E41"/>
<path d="M414.935 108.573H411.326V109.769H414.935V108.573Z" fill="#2F2E41"/>
<path d="M387.665 58.895H281.527C279.766 58.895 278.34 60.3218 278.34 62.0818V87.2539C278.34 89.0139 279.766 90.4407 281.527 90.4407H387.665C389.425 90.4407 390.852 89.0139 390.852 87.2539V62.0818C390.852 60.3218 389.425 58.895 387.665 58.895Z" fill="#0071F2"/>
<path d="M302.051 79.9275C301.201 80.9852 300.057 81.7672 298.762 82.1746C297.468 82.582 296.082 82.5965 294.78 82.2162C293.477 81.8359 292.317 81.078 291.445 80.0383C290.574 78.9985 290.03 77.7237 289.883 76.3749C289.735 75.0261 289.991 73.6639 290.618 72.4606C291.245 71.2573 292.215 70.2669 293.405 69.6147C294.594 68.9625 295.951 68.6777 297.302 68.7963C298.654 68.9149 299.94 69.4317 300.998 70.2812C302.407 71.4273 303.308 73.0825 303.505 74.8882C303.702 76.6939 303.18 78.5045 302.051 79.9275Z" fill="white"/>
<path d="M300.554 73.3032C299.453 74.7331 298.218 76.0544 296.866 77.2491L295.964 78.1156L295.778 78.2947L295.613 78.1156C294.588 77.1784 293.664 76.1367 292.856 75.0076C293.985 75.816 295.026 76.7401 295.964 77.7647H295.613L296.508 76.8767C297.743 75.5624 299.097 74.3661 300.554 73.3032Z" fill="#0071F2"/>
<path d="M440.723 89.402H404.83C404.64 89.402 404.458 89.3265 404.324 89.1922C404.19 89.0579 404.114 88.8758 404.114 88.6859C404.114 88.4959 404.19 88.3138 404.324 88.1795C404.458 88.0452 404.64 87.9697 404.83 87.9697H440.723C440.913 87.9697 441.095 88.0452 441.229 88.1795C441.364 88.3138 441.439 88.4959 441.439 88.6859C441.439 88.8758 441.364 89.0579 441.229 89.1922C441.095 89.3265 440.913 89.402 440.723 89.402Z" fill="white"/>
<path d="M487.336 184.655C481.199 177.909 472.512 188.723 468.602 193.249C465.38 196.987 451.086 213.172 451.086 213.172L430.117 194.409L419.561 206.855C419.561 206.855 444.705 235.973 451.35 238.515C460.932 242.196 474.446 217.547 483.913 208.724C493.38 199.902 491.175 188.866 487.336 184.648" fill="#0071F2"/>
<path d="M535.826 263.788C539.184 278.827 542.529 278.999 537.394 351.278C536.993 356.957 539.915 378.491 539.127 403.456C538.518 422.669 536.556 429.594 536.556 429.594H520.973C520.973 429.594 513.36 363.359 511.957 350.24C510.553 337.12 507.66 289.827 507.66 289.827H504.982C504.982 289.827 502.633 299.015 495.386 348.943C495.386 348.943 497.734 379.415 488.89 427.217H471.796C471.796 427.217 467.986 358.848 467.907 348.07C467.829 337.292 473.2 275.418 474.761 264.518C476.322 253.619 482.123 247.696 482.123 247.696L528.342 246.608C528.342 246.608 534.007 255.638 535.826 263.795" fill="#2F2E41"/>
<path d="M473.078 427.217C473.078 427.217 473.551 436.591 471.975 438.145C469.734 440.365 455.504 445.614 451.078 447.218C448.815 448.028 447.311 449.295 446.696 450.914C446.583 451.245 446.551 451.598 446.602 451.944C446.653 452.29 446.786 452.619 446.99 452.903C447.193 453.188 447.462 453.419 447.773 453.579C448.085 453.739 448.43 453.822 448.779 453.821H487.687C487.687 453.821 489.069 453.284 489.234 450.813C489.37 448.722 487.358 442.692 487.358 442.692C487 441.332 487.88 427.217 487.88 427.217H473.078Z" fill="#F9B499"/>
<path d="M473.078 427.217L487.673 430.848L487.888 427.217H473.078Z" fill="#F7A48B"/>
<path d="M488.439 446.273C488.439 446.273 488.196 448.207 485.281 448.207H461.09C461.09 448.207 455.891 446.982 459.006 444.311C459.006 444.311 453.356 445.199 449.632 447.433C447.405 448.773 445.45 449.252 445.686 453.821L445.736 454.795H489.306C489.306 454.795 490.738 449.209 488.439 446.273Z" fill="#0071F2"/>
<path d="M445.736 454.795L445.851 457.051H477.31L481.901 454.795L482.015 457.051H488.017C488.201 457.055 488.385 457.019 488.555 456.947C488.725 456.876 488.878 456.768 489.003 456.633C489.129 456.498 489.225 456.338 489.284 456.163C489.344 455.988 489.366 455.802 489.349 455.619L489.306 454.759L445.736 454.795Z" fill="#2F2E41"/>
<path fill-rule="evenodd" clip-rule="evenodd" d="M470.955 437.83C470.955 437.829 470.955 437.829 471.309 437.88C471.664 437.931 471.664 437.93 471.664 437.93L471.664 437.93C471.664 437.93 471.664 437.93 471.664 437.93L471.664 437.931L471.662 437.941C471.661 437.95 471.66 437.965 471.658 437.987C471.654 438.029 471.649 438.094 471.645 438.181C471.639 438.353 471.639 438.611 471.667 438.938C471.723 439.592 471.891 440.525 472.342 441.62C473.241 443.803 475.279 446.662 479.87 449.241L479.52 449.865C474.801 447.215 472.646 444.238 471.68 441.892C471.198 440.722 471.015 439.717 470.954 438.999C470.923 438.64 470.922 438.353 470.93 438.153C470.934 438.053 470.939 437.975 470.945 437.92C470.947 437.893 470.949 437.872 470.951 437.856L470.954 437.838L470.954 437.832L470.955 437.83L470.955 437.83Z" fill="#0071F2"/>
<path d="M521.639 429.737C521.639 429.737 522.112 439.119 520.536 440.673C518.295 442.893 504.065 448.135 499.639 449.739C497.376 450.555 495.872 451.823 495.249 453.441C495.138 453.773 495.107 454.126 495.159 454.472C495.212 454.818 495.346 455.147 495.55 455.431C495.754 455.715 496.023 455.946 496.334 456.106C496.646 456.266 496.991 456.349 497.34 456.349H536.255C536.255 456.349 537.637 455.812 537.802 453.334C537.938 451.25 535.926 445.22 535.926 445.22C535.568 443.859 536.441 429.737 536.441 429.737H521.639Z" fill="#F9B499"/>
<path d="M521.639 429.745L536.234 433.375L536.442 429.745H521.639Z" fill="#F7A48B"/>
<path d="M537 448.801C537 448.801 536.757 450.735 533.842 450.735H509.644C509.644 450.735 504.452 449.51 507.567 446.839C507.567 446.839 501.91 447.727 498.186 449.961C495.966 451.293 494.011 451.78 494.24 456.349L494.29 457.323H537.867C537.867 457.323 539.299 451.737 537 448.801Z" fill="#0071F2"/>
<path d="M494.29 457.323L494.412 459.579H525.871L530.462 457.323L530.576 459.579H536.578C536.762 459.581 536.945 459.545 537.114 459.473C537.284 459.401 537.436 459.294 537.562 459.159C537.687 459.024 537.783 458.864 537.843 458.689C537.903 458.515 537.926 458.33 537.91 458.146L537.867 457.287L494.29 457.323Z" fill="#2F2E41"/>
<path fill-rule="evenodd" clip-rule="evenodd" d="M519.516 440.372C519.516 440.372 519.516 440.372 519.87 440.422C520.225 440.473 520.225 440.473 520.225 440.473L520.225 440.472C520.225 440.472 520.225 440.472 520.225 440.472L520.225 440.474L520.223 440.483C520.222 440.493 520.221 440.508 520.219 440.529C520.215 440.571 520.21 440.637 520.207 440.723C520.2 440.896 520.2 441.153 520.228 441.481C520.284 442.135 520.452 443.068 520.902 444.163C521.801 446.348 523.837 449.209 528.425 451.79L528.073 452.415C523.359 449.761 521.205 446.782 520.24 444.435C519.759 443.265 519.576 442.26 519.514 441.542C519.484 441.183 519.483 440.896 519.491 440.696C519.495 440.596 519.501 440.518 519.506 440.463C519.508 440.436 519.51 440.414 519.512 440.399L519.515 440.38L519.515 440.375L519.516 440.373L519.516 440.372Z" fill="#0071F2"/>
<path d="M525.298 196.178C518.72 199.394 511.331 200.568 504.079 199.551C503.657 199.486 503.234 199.422 502.812 199.343C494.125 197.732 484.035 197.817 482.409 183.86C480.784 169.903 492.435 162.756 493.416 156.382C493.636 154.769 493.614 153.133 493.352 151.527C492.75 147.23 491.304 143.484 494.533 139.624C500.842 132.084 507.288 132.427 507.288 132.427C507.288 132.427 512.909 128.267 519.655 133.272C526.895 138.643 529.137 146.005 528.163 153.79C527.495 158.514 527.232 163.286 527.375 168.055C527.49 170.576 528.141 173.24 530.24 178.797C532.338 184.354 530.813 193.377 525.277 196.163" fill="#2F2E41"/>
<path opacity="0.2" d="M504.079 199.551C503.657 199.486 503.234 199.422 502.812 199.343C494.125 197.732 484.035 197.818 482.409 183.86C480.784 169.903 492.435 162.756 493.416 156.382C493.632 154.769 493.611 153.133 493.352 151.527C502.661 152.866 514.957 158.029 519.319 166.072C519.319 166.072 516.998 168.936 519.068 173.87C521.41 179.435 526.229 178.948 524.382 187.341C523.551 191.129 513.948 193.922 504.079 199.515" fill="black"/>
<path d="M498.3 168.614C498.3 168.614 499.503 173.39 497.828 176.878C496.152 180.365 494.068 181.483 494.068 181.483C494.068 181.483 497.684 188.164 506.801 187.985C515.917 187.806 518.832 180.945 518.832 180.945C518.832 180.945 516.218 180.408 515.086 177C513.955 173.591 514.7 167.36 514.7 167.36L498.3 168.614Z" fill="#F9B499"/>
<path d="M481.113 185.579C481.113 185.579 482.044 192.619 482.252 201.019C482.517 211.618 477.06 246.758 477.024 246.135C477.024 246.135 483.469 250.375 501.451 251.392C512.206 252.013 522.939 249.837 532.603 245.075C532.603 245.075 533.663 217.497 535.833 204.664C537.766 193.263 539.413 187.971 539.413 187.971L516.791 179.75L506.393 187.419L496.08 179.628L481.113 185.558V185.579Z" fill="#F4F4F4"/>
<path d="M498.708 172.81C498.708 172.81 497.992 179.657 504.094 179.657C510.195 179.657 514.463 172.266 514.463 172.266L498.708 172.81Z" fill="#F7A48B"/>
<path d="M493.187 150.538C493.187 150.538 494.211 162.713 494.763 165.892C495.314 169.072 499.331 176.699 504.452 177.35C509.572 178.002 516.089 172.015 518.058 168.936C520.028 165.856 521.582 156.812 522.011 153.396C522.441 149.98 521.145 137.118 509.622 135.693C498.1 134.268 494.046 143.649 493.194 150.553" fill="#F9B499"/>
<path d="M491.712 180.537C490.264 185.663 489.305 190.914 488.847 196.221C487.243 215.556 489.32 249.515 489.248 265.843C489.177 282.171 488.74 294.224 488.74 294.224C488.74 294.224 471.144 293.701 470.271 284.054C469.397 274.408 476.186 254.757 476.995 246.099C477.396 241.767 480.44 184.24 480.44 182.922C486.935 181.089 487.093 181.44 491.683 180.523" fill="#0071F2"/>
<path d="M511.506 150.975C511.506 150.975 516.784 152.988 519.312 155.515C519.842 156.013 520.268 156.612 520.566 157.275C520.863 157.939 521.026 158.655 521.045 159.383L522.205 154.248C522.205 154.248 518.903 149.879 511.506 150.975Z" fill="#F7A48B"/>
<path d="M493.688 156.168C493.369 152.905 494.099 149.626 495.772 146.808C496.572 145.477 497.638 144.326 498.904 143.426C500.17 142.527 501.607 141.898 503.127 141.58L507.288 132.421C507.288 132.421 497.355 130.616 492.335 137.827C483.641 150.331 493.688 156.16 493.688 156.16" fill="#2F2E41"/>
<path d="M503.664 144.036C507.309 154.234 519.684 149.973 521.997 155.079C521.997 155.079 526.853 147.738 521.231 138.923C515.609 130.107 507.288 132.427 507.288 132.427C507.288 132.427 501.265 137.34 503.664 144.036Z" fill="#2F2E41"/>
<path d="M489.033 249C489.033 249 493.552 251.428 505.175 251.428C516.798 251.428 527.375 246.314 527.375 246.314L527.06 251.893C527.06 251.893 518.295 256.376 505.512 256.376C492.729 256.376 488.768 253.791 488.768 253.791L489.033 249.029V249Z" fill="#C2C4C6"/>
<path d="M521.03 180.867C521.03 180.867 522.463 184.977 522.391 196.622C522.348 209.67 521.918 294.252 521.918 294.252C521.918 294.252 537.423 290.901 539.936 284.942C542.45 278.984 533.018 252.795 532.603 245.054C532.152 236.646 542.729 197.51 542.901 188.945C542.901 188.229 521.03 180.867 521.03 180.867Z" fill="#0071F2"/>
<path d="M496.703 178.826L504.366 185.908L497.756 190.921C497.756 190.921 492.106 181.139 496.703 178.84" fill="#C2C4C6"/>
<path d="M516.254 179.184L508.305 186.037L514.356 191.422C514.356 191.422 520.257 181.089 516.254 179.184Z" fill="#C2C4C6"/>
<path fill-rule="evenodd" clip-rule="evenodd" d="M506.213 187.438C506.213 187.437 506.213 187.437 506.392 187.441C506.571 187.445 506.571 187.445 506.571 187.446L506.519 189.804C506.486 191.312 506.439 193.476 506.382 196.104C506.269 201.359 506.118 208.466 505.966 215.871C505.664 230.682 505.361 246.686 505.361 251.463H505.003C505.003 246.681 505.306 230.673 505.608 215.863C505.76 208.458 505.911 201.352 506.024 196.096C506.081 193.469 506.128 191.304 506.161 189.796L506.213 187.438Z" fill="#C2C4C6"/>
<path d="M428.885 195.863L420.743 188.859L413.983 195.863L420.85 205.337L428.885 195.863Z" fill="#F9B499"/>
<path d="M421.452 186.051C421.23 185.128 417.47 175.632 416.002 173.211C414.534 170.791 411.562 171.593 411.77 173.404C411.977 175.216 413.653 180.215 413.653 180.215C413.653 180.215 405.89 174.228 405.153 173.698C403.183 172.266 402.424 171.256 400.555 171.342C400.171 171.365 399.804 171.504 399.5 171.74C399.197 171.977 398.973 172.3 398.858 172.667C398.503 172.566 398.124 172.593 397.788 172.744C397.451 172.894 397.178 173.159 397.017 173.49C396.301 174.615 397.734 175.861 397.734 175.861C397.734 175.861 397.017 175.639 396.015 176.749C394.79 178.102 396.423 179.52 396.423 179.52C395.945 179.689 395.507 179.954 395.138 180.301C394.768 180.647 394.474 181.067 394.275 181.533C393.902 182.449 394.84 183.158 400.526 187.434C401.608 188.243 405.733 192.289 407.086 193.463C413.13 198.713 415.272 198.211 415.272 198.211C415.272 198.211 422.906 191.995 421.481 186.037" fill="#F9B499"/>
<path fill-rule="evenodd" clip-rule="evenodd" d="M409.911 181.23L398.674 172.956L399.099 172.379L410.364 180.674L410.461 180.555L411.016 181.007L405.287 188.04L404.732 187.587L407.819 183.797L397.527 176.149L397.954 175.574L408.272 183.242L409.911 181.23ZM405.471 186.577L396.226 179.81L396.649 179.232L405.894 185.999L405.471 186.577ZM412.75 185.612C412.378 184.403 412.363 183.112 412.707 181.894L413.396 182.089C413.09 183.174 413.103 184.324 413.434 185.401C413.766 186.479 414.402 187.438 415.265 188.162L414.805 188.711C413.836 187.897 413.122 186.821 412.75 185.612Z" fill="#F7A48B"/>
<path fill-rule="evenodd" clip-rule="evenodd" d="M480.169 183.067C480.169 183.067 480.169 183.066 480.411 183.33C480.653 183.594 480.653 183.594 480.654 183.594L480.654 183.593L480.655 183.592L480.656 183.591C480.657 183.591 480.656 183.592 480.654 183.593C480.651 183.597 480.644 183.603 480.634 183.614C480.614 183.636 480.581 183.675 480.537 183.733C480.448 183.85 480.313 184.046 480.149 184.349C479.822 184.954 479.376 185.983 478.938 187.648C478.06 190.981 477.214 196.843 477.382 206.914L476.666 206.926C476.497 196.816 477.345 190.883 478.245 187.466C478.695 185.757 479.16 184.672 479.52 184.008C479.7 183.675 479.854 183.448 479.967 183.299C480.024 183.225 480.07 183.17 480.105 183.133C480.122 183.114 480.136 183.099 480.147 183.088C480.152 183.083 480.157 183.078 480.161 183.074L480.166 183.07L480.168 183.068L480.169 183.067Z" fill="#0071F2"/>
<g opacity="0.2">
<path d="M476.666 206.963C476.329 186.854 480.01 183.244 480.168 183.101L480.655 183.624C480.655 183.66 477.074 187.326 477.382 206.948L476.666 206.963Z" fill="black"/>
</g>
<path d="M466.683 207.077L469.239 205.516L469.039 207.213L466.683 207.077Z" fill="#3F4347"/>
<path d="M498.973 247.417H474.918C474.465 247.417 474.027 247.249 473.689 246.947C473.351 246.644 473.136 246.228 473.085 245.777L468.452 206.913C468.429 206.721 468.448 206.527 468.506 206.344C468.565 206.16 468.661 205.991 468.79 205.847C468.919 205.704 469.076 205.589 469.253 205.511C469.429 205.433 469.62 205.393 469.812 205.395H493.867C494.321 205.394 494.76 205.561 495.098 205.863C495.437 206.166 495.651 206.583 495.701 207.035L500.334 245.899C500.355 246.09 500.336 246.284 500.277 246.467C500.218 246.65 500.122 246.819 499.993 246.962C499.865 247.106 499.708 247.22 499.532 247.299C499.356 247.377 499.166 247.417 498.973 247.417Z" fill="#3F4347"/>
<path d="M496.875 247.417H471.932C471.477 247.418 471.038 247.252 470.698 246.949C470.359 246.647 470.143 246.229 470.092 245.777L465.917 208.46C465.895 208.268 465.915 208.075 465.974 207.892C466.032 207.708 466.129 207.54 466.258 207.396C466.386 207.253 466.543 207.138 466.719 207.06C466.895 206.982 467.085 206.941 467.277 206.941H492.22C492.676 206.942 493.115 207.11 493.455 207.414C493.794 207.718 494.01 208.136 494.061 208.589L498.229 245.899C498.251 246.09 498.232 246.283 498.175 246.467C498.117 246.65 498.021 246.819 497.893 246.962C497.765 247.106 497.608 247.22 497.433 247.299C497.257 247.377 497.067 247.418 496.875 247.417Z" fill="#5D6166"/>
<path fill-rule="evenodd" clip-rule="evenodd" d="M481.373 223.66C482.069 223.522 482.79 223.593 483.446 223.864C484.101 224.136 484.662 224.596 485.056 225.186C485.45 225.776 485.66 226.47 485.66 227.179C485.66 228.131 485.282 229.043 484.61 229.716C483.937 230.389 483.024 230.767 482.073 230.767C481.363 230.767 480.669 230.557 480.079 230.162C479.489 229.768 479.029 229.208 478.758 228.552C478.486 227.897 478.415 227.175 478.554 226.479C478.692 225.783 479.034 225.144 479.536 224.642C480.037 224.14 480.677 223.799 481.373 223.66ZM483.172 224.526C482.647 224.309 482.069 224.252 481.512 224.363C480.955 224.473 480.444 224.747 480.042 225.149C479.64 225.55 479.367 226.062 479.256 226.619C479.145 227.176 479.202 227.753 479.419 228.278C479.637 228.803 480.005 229.251 480.477 229.567C480.949 229.882 481.505 230.051 482.073 230.051C482.834 230.051 483.565 229.748 484.103 229.21C484.642 228.671 484.944 227.941 484.944 227.179C484.944 226.611 484.776 226.056 484.46 225.584C484.145 225.111 483.696 224.743 483.172 224.526Z" fill="#9EA0A3"/>
<path d="M469.927 210.113C469.927 210.307 469.87 210.497 469.762 210.659C469.654 210.82 469.501 210.946 469.321 211.02C469.142 211.094 468.945 211.114 468.755 211.076C468.564 211.038 468.389 210.944 468.252 210.807C468.115 210.67 468.022 210.495 467.984 210.305C467.946 210.115 467.965 209.917 468.04 209.738C468.114 209.559 468.24 209.405 468.401 209.298C468.562 209.19 468.752 209.132 468.946 209.132C469.075 209.132 469.202 209.158 469.321 209.207C469.44 209.256 469.549 209.329 469.64 209.42C469.731 209.511 469.803 209.619 469.852 209.738C469.902 209.857 469.927 209.985 469.927 210.113Z" fill="#3F4347"/>
<path d="M503.907 247.546C502.556 247.743 501.176 247.585 499.904 247.087C498.243 246.264 498.2 245.34 496.71 244.939C495.342 244.595 492.721 245.089 491.697 244.939C491.434 244.926 491.177 244.859 490.941 244.742C490.706 244.625 490.497 244.461 490.328 244.259C490.159 244.057 490.034 243.822 489.96 243.569C489.886 243.317 489.866 243.052 489.9 242.791C489.534 242.581 489.246 242.258 489.08 241.87C488.913 241.483 488.877 241.052 488.976 240.642C488.511 240.642 487.637 239.926 488.324 238.601C488.503 238.25 487.902 238.372 487.837 237.398C487.752 235.966 490.466 234.705 490.466 234.705C488.854 234.978 488.181 233.545 488.546 232.944C488.912 232.342 492.349 230.079 492.807 230.043C493.266 230.008 495.815 230.043 496.789 230.523C497.763 231.003 500.37 233.452 500.37 233.452L508.068 239.067C508.068 239.067 508.068 245.648 503.9 247.56" fill="#F9B499"/>
<path fill-rule="evenodd" clip-rule="evenodd" d="M492.948 233.616C493.572 233.607 494.195 233.647 494.812 233.735L494.913 233.026C494.23 232.929 493.54 232.887 492.85 232.901L492.786 232.902L492.727 232.926C492.674 232.946 492.594 232.993 492.53 233.03C492.453 233.075 492.353 233.135 492.24 233.205C492.014 233.343 491.728 233.521 491.449 233.696C491.169 233.871 490.895 234.045 490.691 234.174C490.589 234.239 490.504 234.293 490.445 234.33L490.353 234.389L490.737 234.993L490.829 234.935C490.888 234.897 490.973 234.844 491.074 234.779C491.278 234.65 491.551 234.477 491.83 234.303C492.108 234.128 492.391 233.952 492.613 233.816C492.725 233.747 492.82 233.69 492.892 233.648C492.915 233.635 492.934 233.624 492.948 233.616ZM494.736 235.881C494.736 235.881 494.736 235.881 494.755 236.238C494.774 236.596 494.774 236.596 494.774 236.596L494.772 236.596L494.762 236.597L494.721 236.599C494.685 236.602 494.631 236.605 494.561 236.611C494.421 236.623 494.219 236.642 493.972 236.673C493.477 236.734 492.804 236.84 492.091 237.017C491.376 237.195 490.632 237.442 489.989 237.781C489.343 238.122 488.825 238.543 488.526 239.054L487.908 238.693C488.3 238.023 488.945 237.523 489.655 237.148C490.367 236.772 491.171 236.508 491.918 236.322C492.667 236.136 493.369 236.026 493.884 235.962C494.142 235.93 494.353 235.91 494.501 235.898C494.575 235.892 494.633 235.887 494.673 235.885L494.719 235.882L494.731 235.881L494.735 235.881L494.736 235.881ZM495.224 238.839C495.224 238.839 495.224 238.839 495.199 239.196C495.175 239.553 495.175 239.553 495.175 239.553L495.173 239.553L495.164 239.552L495.129 239.55C495.097 239.549 495.05 239.546 494.989 239.544C494.867 239.539 494.689 239.534 494.47 239.533C494.032 239.531 493.432 239.547 492.781 239.616C492.13 239.684 491.438 239.805 490.812 240.01C490.184 240.217 489.648 240.5 489.284 240.877L488.769 240.379C489.246 239.886 489.903 239.555 490.589 239.33C491.279 239.104 492.025 238.975 492.706 238.903C493.389 238.831 494.017 238.815 494.473 238.817C494.701 238.818 494.888 238.823 495.017 238.828C495.082 238.831 495.133 238.833 495.168 238.835L495.209 238.838L495.219 238.838L495.222 238.839L495.224 238.839ZM495.692 241.588C495.692 241.588 495.692 241.588 495.679 241.946L495.666 242.304L495.664 242.304L495.656 242.303L495.625 242.302C495.597 242.302 495.555 242.301 495.502 242.3C495.394 242.298 495.237 242.296 495.043 242.297C494.655 242.298 494.119 242.311 493.528 242.353C492.325 242.439 490.962 242.645 490.118 243.093L489.782 242.46C490.772 241.934 492.273 241.725 493.477 241.639C494.088 241.595 494.641 241.582 495.04 241.581C495.24 241.58 495.402 241.581 495.515 241.584C495.571 241.585 495.615 241.586 495.645 241.587L495.68 241.588L495.689 241.588L495.692 241.588Z" fill="#F7A48B"/>
<path d="M508.083 239.053L515.043 241.158L510.553 251.091L504.158 247.424C504.158 247.424 502.296 240.542 508.083 239.053Z" fill="#F9B499"/>
<path d="M539.156 188.343C550.041 188.422 548.881 200.202 549.031 205.172C549.181 210.142 550.872 254.843 541.154 259.928C531.436 265.012 510.36 252.05 510.36 252.05L513.719 240.105L528.041 241.451C528.041 241.451 529.058 214.138 529.767 206.361C530.476 198.584 532.087 188.286 539.156 188.343Z" fill="#0071F2"/>
<path d="M511.835 240.191L510.546 251.091L513.525 240.7L511.835 240.191Z" fill="#F7A48B"/>
<path fill-rule="evenodd" clip-rule="evenodd" d="M542.901 188.587C542.901 188.587 542.901 188.587 542.901 188.945C542.901 189.303 542.901 189.303 542.901 189.303L542.901 189.303L542.899 189.303L542.887 189.303C542.876 189.303 542.86 189.304 542.837 189.304C542.793 189.305 542.726 189.308 542.64 189.312C542.467 189.322 542.216 189.341 541.908 189.379C541.291 189.455 540.45 189.607 539.552 189.911C537.754 190.519 535.774 191.718 534.864 194.086C534.638 194.672 534.388 195.855 534.126 197.515C533.866 199.162 533.599 201.246 533.332 203.61C532.798 208.338 532.266 214.175 531.793 219.858C531.321 225.54 530.909 231.067 530.616 235.172C530.469 237.225 530.351 238.923 530.271 240.107C530.23 240.699 530.199 241.163 530.178 241.479L530.16 241.753L535.526 242.414L535.438 243.125L513.66 240.439L513.748 239.729L529.448 241.665L529.463 241.431C529.484 241.115 529.516 240.651 529.556 240.058C529.637 238.873 529.754 237.175 529.901 235.121C530.195 231.014 530.607 225.485 531.08 219.799C531.552 214.113 532.085 208.268 532.62 203.53C532.888 201.161 533.156 199.065 533.419 197.403C533.679 195.753 533.939 194.497 534.195 193.829C535.211 191.185 537.417 189.877 539.323 189.232C540.278 188.909 541.168 188.748 541.82 188.668C542.146 188.628 542.414 188.607 542.601 188.597C542.694 188.592 542.768 188.59 542.819 188.588C542.844 188.588 542.864 188.587 542.878 188.587L542.894 188.587L542.899 188.587L542.9 188.587L542.901 188.587ZM510.141 252.321C510.141 252.321 510.141 252.321 510.338 252.022L510.536 251.724L510.537 251.724L510.538 251.725L510.545 251.729L510.573 251.748C510.598 251.764 510.635 251.788 510.685 251.82C510.785 251.884 510.933 251.978 511.126 252.099C511.513 252.339 512.08 252.684 512.801 253.098C514.244 253.927 516.298 255.034 518.746 256.149C523.65 258.38 530.1 260.624 536.354 260.73L536.342 261.446C529.943 261.338 523.388 259.048 518.45 256.8C515.977 255.675 513.902 254.556 512.445 253.719C511.716 253.3 511.141 252.951 510.748 252.707C510.551 252.585 510.4 252.489 510.298 252.423C510.247 252.39 510.208 252.364 510.181 252.347L510.151 252.328L510.144 252.322L510.141 252.321L510.141 252.321Z" fill="#0071F2"/>
<g opacity="0.2">
<path d="M536.384 261.453C523.773 261.238 510.324 252.416 510.188 252.33C510.109 252.276 510.054 252.193 510.036 252.099C510.017 252.006 510.036 251.908 510.088 251.828C510.14 251.75 510.222 251.695 510.314 251.677C510.407 251.658 510.503 251.676 510.582 251.728C510.718 251.814 523.995 260.522 536.399 260.737C536.492 260.742 536.581 260.783 536.646 260.851C536.711 260.919 536.748 261.008 536.749 261.102C536.748 261.149 536.738 261.196 536.719 261.239C536.701 261.282 536.673 261.321 536.639 261.353C536.606 261.386 536.566 261.412 536.522 261.429C536.478 261.446 536.431 261.454 536.384 261.453ZM535.518 243.135H535.468L513.69 240.442C513.643 240.437 513.598 240.422 513.556 240.399C513.515 240.376 513.479 240.344 513.451 240.307C513.422 240.269 513.401 240.227 513.389 240.181C513.377 240.135 513.375 240.087 513.382 240.041C513.394 239.947 513.444 239.862 513.519 239.804C513.594 239.746 513.689 239.721 513.783 239.733L529.481 241.674C529.746 237.806 532.388 198.706 534.229 193.814C536.191 188.644 542.822 188.594 542.944 188.594C542.991 188.595 543.037 188.605 543.08 188.624C543.124 188.643 543.163 188.67 543.195 188.704C543.228 188.738 543.253 188.778 543.27 188.821C543.287 188.865 543.296 188.912 543.295 188.959C543.295 189.006 543.286 189.052 543.267 189.095C543.249 189.138 543.223 189.177 543.19 189.21C543.156 189.242 543.117 189.268 543.073 189.285C543.03 189.302 542.983 189.311 542.937 189.31C542.858 189.31 536.685 189.36 534.902 194.065C533.119 198.77 530.412 238.465 530.197 241.76L535.561 242.426C535.608 242.428 535.654 242.44 535.696 242.461C535.738 242.482 535.776 242.51 535.808 242.546C535.839 242.581 535.863 242.622 535.878 242.666C535.894 242.711 535.9 242.758 535.897 242.805C535.894 242.852 535.882 242.898 535.862 242.94C535.841 242.983 535.812 243.021 535.777 243.052C535.742 243.083 535.701 243.107 535.656 243.123C535.612 243.138 535.565 243.144 535.518 243.142V243.135Z" fill="black"/>
</g>
<path d="M192.146 179.592H73.9551C72.1951 179.592 70.7683 181.019 70.7683 182.779V211.331C70.7683 213.091 72.1951 214.518 73.9551 214.518H192.146C193.906 214.518 195.333 213.091 195.333 211.331V182.779C195.333 181.019 193.906 179.592 192.146 179.592Z" fill="#E6E6E6"/>
<path d="M97.0217 202.845C96.0827 204.016 94.8173 204.883 93.3857 205.335C91.954 205.788 90.4204 205.805 88.9788 205.386C87.5371 204.967 86.2522 204.129 85.2865 202.98C84.3208 201.83 83.7176 200.42 83.5534 198.927C83.3891 197.435 83.6711 195.927 84.3637 194.595C85.0562 193.263 86.1282 192.166 87.4442 191.444C88.7601 190.721 90.2609 190.404 91.7566 190.534C93.2523 190.665 94.6759 191.235 95.8473 192.174C97.4164 193.431 98.4224 195.26 98.6439 197.258C98.8655 199.256 98.2846 201.26 97.0289 202.83L97.0217 202.845Z" fill="white"/>
<path d="M95.3747 195.504C94.126 197.07 92.7486 198.529 91.257 199.866L90.2687 200.854L90.0897 201.033L89.9106 200.854C88.7818 199.814 87.7555 198.667 86.8456 197.431C88.0838 198.341 89.2303 199.37 90.2687 200.503H89.925L90.9132 199.515C92.2825 198.052 93.7752 196.711 95.3747 195.504Z" fill="#2F2E41"/>
<path d="M176.842 194.115H103.417C103.322 194.115 103.231 194.077 103.164 194.01C103.097 193.943 103.059 193.852 103.059 193.757C103.059 193.662 103.097 193.571 103.164 193.504C103.231 193.437 103.322 193.399 103.417 193.399H176.842C176.937 193.399 177.028 193.437 177.095 193.504C177.162 193.571 177.2 193.662 177.2 193.757C177.2 193.852 177.162 193.943 177.095 194.01C177.028 194.077 176.937 194.115 176.842 194.115Z" fill="#2F2E41"/>
<path d="M156.153 200.703H103.417C103.322 200.703 103.231 200.666 103.164 200.599C103.097 200.531 103.059 200.44 103.059 200.345C103.059 200.25 103.097 200.159 103.164 200.092C103.231 200.025 103.322 199.987 103.417 199.987H156.153C156.248 199.987 156.339 200.025 156.406 200.092C156.473 200.159 156.511 200.25 156.511 200.345C156.511 200.44 156.473 200.531 156.406 200.599C156.339 200.666 156.248 200.703 156.153 200.703Z" fill="#2F2E41"/>
<path fill-rule="evenodd" clip-rule="evenodd" d="M310.523 71.3698C310.523 71.172 310.683 71.0117 310.881 71.0117H384.306C384.504 71.0117 384.664 71.172 384.664 71.3698C384.664 71.5675 384.504 71.7279 384.306 71.7279H310.881C310.683 71.7279 310.523 71.5675 310.523 71.3698Z" fill="white"/>
<path fill-rule="evenodd" clip-rule="evenodd" d="M310.523 77.9582C310.523 77.7604 310.683 77.6001 310.881 77.6001H363.617C363.815 77.6001 363.975 77.7604 363.975 77.9582C363.975 78.1559 363.815 78.3162 363.617 78.3162H310.881C310.683 78.3162 310.523 78.1559 310.523 77.9582Z" fill="white"/>
<path d="M443.867 300.69H311.805V205.337H312.521V299.974H443.867V300.69Z" fill="#2F2E41"/>
</svg>
