<svg width="25" height="25" viewBox="0 0 25 25" fill="none" xmlns="http://www.w3.org/2000/svg">
<path fill-rule="evenodd" clip-rule="evenodd" d="M4.90308 12.5C4.90308 11.9477 5.35079 11.5 5.90308 11.5H19.9031C20.4554 11.5 20.9031 11.9477 20.9031 12.5C20.9031 13.0523 20.4554 13.5 19.9031 13.5H5.90308C5.35079 13.5 4.90308 13.0523 4.90308 12.5Z" fill="black"/>
<path fill-rule="evenodd" clip-rule="evenodd" d="M13.6102 4.79289C14.0007 5.18342 14.0007 5.81658 13.6102 6.20711L7.31729 12.5L13.6102 18.7929C14.0007 19.1834 14.0007 19.8166 13.6102 20.2071C13.2197 20.5976 12.5865 20.5976 12.196 20.2071L5.19597 13.2071C4.80545 12.8166 4.80545 12.1834 5.19597 11.7929L12.196 4.79289C12.5865 4.40237 13.2197 4.40237 13.6102 4.79289Z" fill="black"/>
</svg>
