<svg width="1512" height="982" viewBox="0 0 1512 982" fill="none" xmlns="http://www.w3.org/2000/svg">
<g clip-path="url(#clip0_8_1372)">
<rect width="1512" height="982" fill="white"/>
<rect width="1512" height="982" fill="white"/>
<path d="M1156.57 643.354C1151.05 593.333 1249.84 536.078 1299.86 530.558C1349.89 525.037 1357.11 587.4 1362.63 637.421C1368.15 687.442 1332.67 734.707 1282.65 740.227C1232.63 745.747 1162.09 693.374 1156.57 643.354Z" fill="url(#paint0_linear_8_1372)"/>
<path d="M725.721 813.068C732.448 786.93 792.87 776.966 819.009 783.693C845.147 790.421 836.932 823.073 830.205 849.212C823.478 875.35 796.709 892.322 770.57 885.595C744.432 878.867 718.994 839.206 725.721 813.068Z" fill="url(#paint1_linear_8_1372)"/>
<path d="M686.202 146.986C697.225 181.01 643.227 172.963 609.202 183.986C575.178 195.008 557.264 208.082 546.241 174.058C535.219 140.034 488.098 110.63 522.122 99.6069C556.146 88.5843 675.179 112.961 686.202 146.986Z" fill="url(#paint2_linear_8_1372)"/>
<path d="M69.3145 320.027C46.1803 275.335 117.781 186.392 162.473 163.258C207.165 140.123 192.068 220.877 215.202 265.569C238.337 310.261 266.483 341.962 221.791 365.096C177.099 388.23 92.4487 364.719 69.3145 320.027Z" fill="url(#paint3_linear_8_1372)"/>
<rect width="1512" height="80" fill="#0071F2"/>
<path d="M1376.66 201.738C1417.98 260.114 1334.62 399.343 1276.25 440.663C1217.87 481.984 1284.94 354.287 1243.62 295.91C1202.3 237.534 1094.83 209.493 1153.2 168.172C1211.58 126.851 1335.34 143.361 1376.66 201.738Z" fill="url(#paint4_linear_8_1372)"/>
</g>
<defs>
<linearGradient id="paint0_linear_8_1372" x1="1167.61" y1="743.366" x2="1267.01" y2="504.572" gradientUnits="userSpaceOnUse">
<stop stop-color="#0071F2" stop-opacity="0"/>
<stop offset="1" stop-color="#0071F2"/>
</linearGradient>
<linearGradient id="paint1_linear_8_1372" x1="773.5" y1="864" x2="837.233" y2="654.282" gradientUnits="userSpaceOnUse">
<stop stop-color="#0071F2" stop-opacity="0"/>
<stop offset="0.947717" stop-color="#0071F2"/>
</linearGradient>
<linearGradient id="paint2_linear_8_1372" x1="452.15" y1="80.4821" x2="645.178" y2="228.108" gradientUnits="userSpaceOnUse">
<stop stop-color="#0071F2" stop-opacity="0"/>
<stop offset="1" stop-color="#0071F2"/>
</linearGradient>
<linearGradient id="paint3_linear_8_1372" x1="115.569" y1="409.384" x2="129.57" y2="104.779" gradientUnits="userSpaceOnUse">
<stop stop-color="#0071F2" stop-opacity="0"/>
<stop offset="1" stop-color="#0071F2"/>
</linearGradient>
<linearGradient id="paint4_linear_8_1372" x1="1294.05" y1="85.0186" x2="1325.98" y2="512.66" gradientUnits="userSpaceOnUse">
<stop stop-color="#0071F2"/>
<stop offset="1" stop-color="#0071F2" stop-opacity="0"/>
</linearGradient>
<clipPath id="clip0_8_1372">
<rect width="1512" height="982" fill="white"/>
</clipPath>
</defs>
</svg>
