<svg width="649" height="512" viewBox="0 0 649 512" fill="none" xmlns="http://www.w3.org/2000/svg">
<path d="M283.518 72.0965L285.954 70.3346L312.266 68.4077L313.42 133.546L321.501 191.967L298.15 198.79L283.518 72.0965Z" fill="#CCCCCC"/>
<path d="M503.407 354.139L503.339 370.446L295.984 484.626L283.66 487.071L61.5672 356.261L59.5432 370.716C59.4614 372.894 59.9832 375.052 61.0507 376.952C62.1183 378.852 63.6902 380.42 65.5927 381.483L280.737 502.193C282.747 503.317 285.014 503.901 287.317 503.888C289.62 503.875 291.88 503.265 293.878 502.118L503.407 381.625L505.791 380.073C507.741 378.825 509.323 377.08 510.377 375.018C511.431 372.956 511.918 370.651 511.788 368.34C511.465 363.526 509.621 357.768 503.407 354.139Z" fill="#CCCCCC"/>
<path opacity="0.2" d="M503.407 354.139L503.339 370.446L295.984 481.41L283.66 483.854L61.5672 356.261L59.5432 370.716C59.4614 372.894 59.9832 375.052 61.0507 376.952C62.1183 378.852 63.6902 380.42 65.5927 381.483L280.737 502.193C282.747 503.317 285.014 503.901 287.317 503.888C289.62 503.875 291.88 503.265 293.878 502.118L503.407 381.625L505.791 380.073C507.741 378.825 509.323 377.08 510.377 375.018C511.431 372.956 511.918 370.651 511.788 368.34C511.465 363.526 509.621 357.768 503.407 354.139Z" fill="black"/>
<path d="M67.2343 365.34L282.656 483.802C284.12 484.672 285.791 485.132 287.495 485.132C289.198 485.132 290.869 484.672 292.333 483.802L503.347 370.589C504.777 369.736 505.961 368.528 506.786 367.082C507.611 365.636 508.047 364.001 508.053 362.336C508.06 360.671 507.635 359.033 506.821 357.581C506.006 356.129 504.83 354.912 503.407 354.049L284.912 224.499C283.457 223.623 281.793 223.154 280.095 223.14C278.396 223.127 276.725 223.571 275.257 224.424L67.3393 345.187C65.5787 346.21 64.1158 347.675 63.0954 349.437C62.0751 351.199 61.5328 353.197 61.5222 355.234C61.5116 357.27 62.0331 359.274 63.035 361.047C64.0369 362.819 65.4845 364.299 67.2343 365.34Z" fill="#CCCCCC"/>
<path d="M263.72 361.382L262.371 382.84C262.371 382.84 266.756 385.149 274.14 382.84C274.993 382.73 275.859 382.868 276.636 383.236C277.414 383.604 278.069 384.187 278.525 384.916C278.525 384.916 283.84 391.364 294.11 390.51C295.487 390.414 296.795 389.871 297.834 388.962C298.874 388.054 299.588 386.831 299.867 385.479C300.265 383.103 299.727 380.666 298.368 378.679C298.368 378.679 296.336 375.02 289.335 374.06C287.313 373.8 285.433 372.881 283.985 371.446C282.537 370.011 281.601 368.14 281.321 366.12C281.131 364.543 281.083 362.952 281.179 361.367L263.72 361.382Z" fill="#0071F2"/>
<path d="M263.255 354.214L268.105 300.187L265.684 206.003C265.684 206.003 305.962 199.307 319.807 190.303C319.807 190.303 333.061 247.322 333.046 292.269C333.096 293.67 332.805 295.062 332.199 296.326L307.116 344.512L290.497 336.895L307.971 290.8C308.614 289.098 308.714 287.238 308.255 285.477L299.725 252.667C299.725 252.667 285.197 346.132 281.156 354.252C281.156 354.214 275.954 358.825 263.255 354.214Z" fill="#2F2E41"/>
<path fill-rule="evenodd" clip-rule="evenodd" d="M273.095 354.229C273.095 354.23 273.095 354.23 272.603 354.139C272.112 354.048 272.112 354.047 272.112 354.047L272.124 353.982L272.16 353.786C272.191 353.613 272.238 353.356 272.298 353.018C272.419 352.344 272.595 351.351 272.815 350.078C273.253 347.531 273.866 343.862 274.561 339.378C275.953 330.408 277.675 318.176 279.001 305.124C280.328 292.07 281.256 278.205 281.063 265.968C280.868 253.708 279.547 243.162 276.426 236.69L277.326 236.255C280.551 242.942 281.868 253.683 282.062 265.952C282.257 278.245 281.324 292.152 279.996 305.225C278.668 318.3 276.943 330.55 275.55 339.531C274.853 344.022 274.239 347.696 273.8 350.247C273.58 351.523 273.404 352.518 273.283 353.195C273.222 353.533 273.175 353.792 273.143 353.966L273.107 354.163L273.095 354.229Z" fill="#3F3D56"/>
<path fill-rule="evenodd" clip-rule="evenodd" d="M304.539 241.226L314.382 287.119C314.633 288.301 314.522 289.534 314.063 290.652L294.317 338.637L293.393 338.256L313.138 290.272C313.521 289.34 313.613 288.314 313.404 287.328C313.404 287.328 313.404 287.328 313.404 287.328L303.561 241.436L304.539 241.226Z" fill="#3F3D56"/>
<path d="M290.954 341.888C290.954 341.888 282.026 357.251 281.591 359.327C281.591 359.327 278.488 363.024 290.032 366.48C291.142 366.546 292.215 366.9 293.146 367.507C294.076 368.115 294.833 368.955 295.339 369.944C295.339 369.944 299.56 380.958 310.939 379.743C311.677 379.674 312.393 379.459 313.048 379.113C313.702 378.766 314.282 378.294 314.754 377.723C315.226 377.152 315.581 376.493 315.799 375.785C316.016 375.077 316.092 374.333 316.022 373.595C315.891 372.304 315.506 371.051 314.889 369.91C314.271 368.768 313.433 367.76 312.423 366.945C312.423 366.945 311.569 365.386 308.308 363.264C307.173 362.526 306.228 361.53 305.552 360.357C304.876 359.185 304.487 357.868 304.417 356.516C304.226 353.88 304.593 351.232 305.497 348.748L290.954 341.888Z" fill="#0071F2"/>
<path d="M237.325 255.172C237.325 255.172 265.062 269.207 281.591 265.946C281.591 265.946 306.576 204.383 306.269 143.128C306.269 143.128 294.275 109.269 281.029 93.5696L283.795 88.3213H278.862L279.785 74.7808C279.785 74.7808 249.627 94.1694 250.549 103.714L263.24 192.057L237.325 255.172Z" fill="#0071F2"/>
<path d="M265.924 215.442C269.961 216.101 274.101 215.649 277.9 214.134C281.699 212.619 285.015 210.099 287.491 206.843C283.048 196.272 279.482 185.354 276.831 174.198C274.461 163.909 273.833 153.295 274.972 142.798L278.263 111.421C278.263 111.421 282.491 85.8696 260.984 88.9286C260.984 88.9286 249.335 95.8563 248.87 106.923C248.877 106.96 242.251 168.215 265.924 215.442Z" fill="#0071F2"/>
<path opacity="0.2" d="M265.924 215.442C269.961 216.101 274.101 215.649 277.9 214.134C281.699 212.619 285.015 210.099 287.491 206.843C283.048 196.272 279.482 185.354 276.831 174.198C274.461 163.909 273.833 153.295 274.972 142.798L278.263 111.421C278.263 111.421 282.491 85.8696 260.984 88.9286C260.984 88.9286 249.335 95.8563 248.87 106.923C248.877 106.96 242.251 168.215 265.924 215.442Z" fill="black"/>
<path d="M269.957 215.734C269.957 215.734 281.704 246.512 303.863 232.694C304.083 232.557 304.265 232.366 304.39 232.139C304.515 231.912 304.578 231.656 304.575 231.397C304.575 231.195 304.534 230.994 304.455 230.809C304.376 230.623 304.26 230.455 304.115 230.314C303.969 230.174 303.797 230.065 303.608 229.994C303.419 229.922 303.217 229.889 303.016 229.897C301.667 229.933 300.318 229.83 298.99 229.59C293.743 228.548 293.788 221.005 299.073 220.09H299.103C299.349 220.071 299.59 220.007 299.815 219.903C300.031 219.768 300.201 219.572 300.303 219.338C300.405 219.105 300.434 218.846 300.386 218.596C300.338 218.346 300.216 218.117 300.035 217.938C299.854 217.759 299.623 217.639 299.372 217.594C294.387 216.709 285.437 214.595 283.788 210.673C283.795 210.681 278.863 215.547 269.957 215.734Z" fill="#F9B499"/>
<path d="M273.982 223.427L260.069 223.134C259.963 223.133 259.858 223.159 259.764 223.21C259.671 223.261 259.592 223.336 259.536 223.426C259.48 223.517 259.449 223.621 259.445 223.727C259.441 223.834 259.465 223.94 259.515 224.034L262.408 229.44C262.408 229.44 257.026 230.977 259.027 236.443C259.027 236.443 259.949 241.211 268.413 238.827L285.482 234.538C280.825 231.794 276.885 227.987 273.982 223.427Z" fill="#CCCCCC"/>
<path d="M338.271 241.324C338.271 241.324 350.265 235.783 356.127 226.239C356.127 226.239 328.428 171.139 330.579 134.506L332.693 90.5105C332.821 87.9491 332.352 85.3932 331.325 83.0436C330.297 80.694 328.738 78.615 326.771 76.9699C322.888 73.7385 317.701 70.0497 312.656 68.4077L318.653 76.4901L316.576 79.7215L318.885 82.2557C318.885 82.2557 319.957 107.312 311.996 131.432C311.342 133.42 311.068 135.513 311.187 137.603C311.921 151.331 316.112 203.761 338.271 241.324Z" fill="#0071F2"/>
<path d="M305.497 141.029C305.497 141.029 298.42 88.4712 285.954 70.3271L279.8 74.8257L278.862 88.3363H283.78L281.014 93.5845C291.077 108.813 299.424 125.11 305.902 142.176" fill="#0071F2"/>
<path opacity="0.2" d="M305.497 141.029C305.497 141.029 298.42 88.4712 285.954 70.3271L279.8 74.8257L278.862 88.3363H283.78L281.014 93.5845C291.077 108.813 299.424 125.11 305.902 142.176" fill="white"/>
<path d="M311.157 134.206C311.157 134.206 311.037 78.9566 310.115 71.2641L312.656 68.415L318.653 76.4974L316.576 79.7288L318.885 82.263C318.885 82.263 323.743 89.7606 311.157 134.978" fill="#0071F2"/>
<path opacity="0.2" d="M311.157 134.206C311.157 134.206 311.037 78.9566 310.115 71.2641L312.656 68.415L318.653 76.4974L316.576 79.7288L318.885 82.263C318.885 82.263 323.743 89.7606 311.157 134.978" fill="white"/>
<path d="M306.269 70.3271V77.0749C302.423 82.923 291.231 80.5912 291.231 80.5912C290.227 78.0271 287.266 72.3439 287.266 72.3439L287.521 59.0508H292.393L306.269 70.3271Z" fill="#F9B499"/>
<path d="M84.0635 91.7252C84.0635 91.7252 117.917 95.1065 137.924 87.4141C137.924 87.4141 144.671 122.503 161.913 134.971C161.913 134.971 135.751 141.899 122.977 138.51C122.992 138.51 95.7578 115.732 84.0635 91.7252Z" fill="#2F2E41"/>
<path d="M218.555 422.314L265.946 454.329L301.344 430.629L253.637 403.233L218.555 422.314Z" fill="#2F2E41"/>
<path d="M218.555 427.705V422.314L265.946 454.329L301.344 430.629V435.855L266.876 459.255L218.555 427.705Z" fill="#3F3D56"/>
<path opacity="0.2" d="M218.555 427.705V422.314L265.946 454.329L301.344 430.629V435.855L266.876 459.255L218.555 427.705Z" fill="#231F20"/>
<path d="M310.272 338.447H346.891L358.586 298.882H330.872L310.272 338.447Z" fill="white"/>
<path d="M495.333 152.2C495.333 152.2 555.199 131.282 580.176 108.145C580.176 108.145 559.239 146.457 540.513 154.847C540.483 154.862 518.474 161.377 495.333 152.2Z" fill="#CCCCCC"/>
<path d="M580.214 108.16C586.961 96.9582 562.583 95.3013 562.583 95.3013C562.583 95.3013 559.344 119.406 549.764 128.47C549.726 128.47 570.626 116.609 580.214 108.16Z" fill="#CCCCCC"/>
<path opacity="0.2" d="M580.214 108.16C586.961 96.9582 562.583 95.3013 562.583 95.3013C562.583 95.3013 559.344 119.406 549.764 128.47C549.726 128.47 570.626 116.609 580.214 108.16Z" fill="#231F20"/>
<path fill-rule="evenodd" clip-rule="evenodd" d="M330.596 134.006C368.727 134.719 396.095 141.168 415.711 150.406C455.617 169.189 471.803 217.045 452.19 256.518L452.19 256.519C427.508 306.1 386.837 342.2 352.361 365.897C335.12 377.747 319.42 386.502 308.03 392.294C302.334 395.191 297.715 397.347 294.519 398.779C292.921 399.495 291.678 400.031 290.834 400.387C290.413 400.566 290.09 400.699 289.873 400.789C289.765 400.833 289.683 400.867 289.627 400.889L289.565 400.914L289.549 400.921L289.544 400.922C289.543 400.923 289.543 400.923 289.357 400.459C289.172 399.994 289.172 399.994 289.173 399.994L289.176 399.993L289.191 399.987L289.252 399.962C289.306 399.94 289.386 399.908 289.493 399.864C289.707 399.776 290.026 399.643 290.445 399.466C291.283 399.112 292.519 398.58 294.11 397.867C297.293 396.44 301.897 394.291 307.576 391.403C318.936 385.626 334.597 376.894 351.795 365.073C386.197 341.426 426.718 305.444 451.295 256.073C470.662 217.093 454.674 169.85 415.285 151.31L415.285 151.31C395.83 142.149 368.61 135.717 330.578 135.006L330.596 134.006Z" fill="#2F2E41"/>
<path fill-rule="evenodd" clip-rule="evenodd" d="M381.115 258.449C381.113 258.45 381.112 258.45 381.052 257.953L381.112 258.45L381.104 258.451L381.095 258.451C241.971 270.475 187.74 242.737 167.599 224.714C157.996 216.112 152.78 203.416 154.513 190.611C156.089 178.95 162.776 169.895 171.857 162.883C180.933 155.875 192.426 150.887 203.692 147.349C214.963 143.809 226.034 141.711 234.284 140.498C238.41 139.892 241.833 139.506 244.225 139.272C245.421 139.155 246.36 139.076 247 139.026C247.32 139.001 247.566 138.984 247.732 138.972C247.775 138.969 247.813 138.967 247.845 138.965C247.875 138.963 247.9 138.961 247.92 138.96L247.968 138.957L247.984 138.956C247.985 138.956 247.985 138.956 248.015 139.455C248.045 139.954 248.045 139.954 248.045 139.954L248.031 139.955L247.985 139.958C247.944 139.96 247.882 139.964 247.8 139.97C247.637 139.981 247.395 139.999 247.078 140.023C246.444 140.073 245.512 140.151 244.322 140.268C241.944 140.5 238.537 140.884 234.43 141.488C226.212 142.696 215.196 144.784 203.992 148.303C192.783 151.823 181.414 156.767 172.468 163.674C163.528 170.577 157.035 179.418 155.504 190.745C153.819 203.192 158.888 215.567 168.266 223.969C188.109 241.725 242.003 269.467 381 257.456L381.029 257.452L381.141 257.438C381.24 257.426 381.389 257.407 381.585 257.382C381.978 257.331 382.561 257.253 383.321 257.147C384.841 256.936 387.069 256.611 389.898 256.159C395.558 255.255 403.622 253.842 413.241 251.807C432.481 247.735 457.928 241.175 482.775 231.219C507.628 221.26 531.839 207.92 548.645 190.308C565.434 172.714 574.824 150.869 570.096 123.833L571.081 123.661C575.874 151.069 566.332 173.221 549.368 190.999C532.42 208.759 508.058 222.165 483.147 232.147C458.229 242.132 432.721 248.707 413.448 252.785C403.811 254.825 395.729 256.24 390.056 257.146C387.22 257.6 384.985 257.925 383.459 258.138C382.696 258.244 382.11 258.322 381.714 258.373C381.517 258.399 381.366 258.418 381.266 258.431L381.151 258.445L381.122 258.448L381.115 258.449Z" fill="#2F2E41"/>
<path d="M193.659 247.322C197.162 247.322 200.001 244.482 200.001 240.979C200.001 237.476 197.162 234.636 193.659 234.636C190.157 234.636 187.318 237.476 187.318 240.979C187.318 244.482 190.157 247.322 193.659 247.322Z" fill="#2F2E41"/>
<path d="M237.325 215.352C239.027 215.352 240.406 213.972 240.406 212.27C240.406 210.569 239.027 209.189 237.325 209.189C235.624 209.189 234.245 210.569 234.245 212.27C234.245 213.972 235.624 215.352 237.325 215.352Z" fill="#2F2E41"/>
<path d="M363.248 371.376C364.95 371.376 366.329 369.996 366.329 368.294C366.329 366.593 364.95 365.213 363.248 365.213C361.547 365.213 360.167 366.593 360.167 368.294C360.167 369.996 361.547 371.376 363.248 371.376Z" fill="#2F2E41"/>
<path d="M366.329 350.503C368.031 350.503 369.41 349.123 369.41 347.421C369.41 345.719 368.031 344.34 366.329 344.34C364.628 344.34 363.248 345.719 363.248 347.421C363.248 349.123 364.628 350.503 366.329 350.503Z" fill="#2F2E41"/>
<path d="M450.146 294.969C451.847 294.969 453.227 293.589 453.227 291.887C453.227 290.185 451.847 288.806 450.146 288.806C448.444 288.806 447.065 290.185 447.065 291.887C447.065 293.589 448.444 294.969 450.146 294.969Z" fill="#2F2E41"/>
<path d="M434.756 183.037C436.457 183.037 437.837 181.658 437.837 179.956C437.837 178.254 436.457 176.875 434.756 176.875C433.054 176.875 431.675 178.254 431.675 179.956C431.675 181.658 433.054 183.037 434.756 183.037Z" fill="#0071F2"/>
<path d="M261.411 354.012V360.31C261.405 360.636 261.506 360.955 261.698 361.219C261.89 361.483 262.163 361.677 262.476 361.772C264.725 362.447 270.624 363.556 282.513 361.584C282.872 361.532 283.2 361.351 283.435 361.075C283.671 360.799 283.799 360.448 283.795 360.085V354.312C283.804 354.064 283.752 353.817 283.642 353.594C283.533 353.371 283.37 353.179 283.167 353.035C282.965 352.891 282.731 352.799 282.484 352.768C282.238 352.737 281.988 352.768 281.756 352.857C278.758 353.959 272.536 355.301 263.39 352.557C263.162 352.489 262.921 352.474 262.686 352.515C262.452 352.555 262.23 352.65 262.038 352.791C261.846 352.932 261.689 353.115 261.581 353.327C261.472 353.539 261.414 353.774 261.411 354.012Z" fill="#3F3D56"/>
<path d="M291.479 334.293C291.237 334.151 290.968 334.061 290.69 334.027C290.411 333.993 290.129 334.016 289.86 334.096C289.591 334.175 289.341 334.309 289.126 334.488C288.91 334.668 288.734 334.89 288.608 335.14L287.416 337.554C286.992 338.424 286.921 339.424 287.217 340.344C287.513 341.265 288.154 342.036 289.005 342.495L303.203 350.045C303.65 350.279 304.139 350.42 304.641 350.46C305.143 350.5 305.648 350.439 306.126 350.279C306.604 350.119 307.045 349.865 307.422 349.531C307.8 349.197 308.106 348.791 308.323 348.336L310.137 344.467C310.255 344.217 310.32 343.945 310.33 343.668C310.34 343.391 310.294 343.115 310.194 342.857C310.095 342.599 309.944 342.363 309.752 342.164C309.559 341.965 309.328 341.808 309.073 341.701L291.479 334.293Z" fill="#3F3D56"/>
<path d="M300.422 218.749C300.422 218.749 322.581 204.226 326.119 205.613C326.119 205.613 340.505 210.599 333.233 223.307C332.951 223.794 332.572 224.217 332.119 224.551C331.667 224.885 331.15 225.123 330.602 225.249L304.575 231.397C304.575 231.397 304.642 229.343 301.876 229.897C301.876 229.897 295.842 230.22 295.129 225.594C295.129 225.594 294.102 221.388 299.11 220.098C299.454 220.068 299.776 219.915 300.017 219.668C300.258 219.42 300.402 219.094 300.422 218.749Z" fill="#CCCCCC"/>
<path opacity="0.2" d="M328.78 223.142C331.782 223.142 334.215 220.708 334.215 217.706C334.215 214.704 331.782 212.271 328.78 212.271C325.779 212.271 323.346 214.704 323.346 217.706C323.346 220.708 325.779 223.142 328.78 223.142Z" fill="black"/>
<path d="M161.92 148.054C161.92 148.054 182.692 155.837 193.772 145.482C193.772 145.482 203.465 172.983 212.7 179.911C212.7 179.911 198.54 182.438 187.31 179.911C187.318 179.941 168.389 167.443 161.92 148.054Z" fill="#CCCCCC"/>
<path d="M385.362 152.2C385.362 152.2 401.06 160.845 404.441 170.599C404.441 170.599 414.291 152.043 416.135 138.187C416.135 138.187 406.6 124.954 393.054 120.335C393.054 120.35 394.905 137.602 385.362 152.2Z" fill="#2F2E41"/>
<path d="M384.133 236.323C384.133 236.323 402.289 224.934 412.139 194.464C412.139 194.464 435.528 204.623 448.121 200.312C448.121 200.312 433.968 229.71 418.579 238.864C418.601 238.864 400.445 244.945 384.133 236.323Z" fill="#CCCCCC"/>
<path d="M437.837 173.448C441.339 173.448 444.179 170.608 444.179 167.105C444.179 163.602 441.339 160.762 437.837 160.762C434.334 160.762 431.495 163.602 431.495 167.105C431.495 170.608 434.334 173.448 437.837 173.448Z" fill="#2F2E41"/>
<path d="M306.269 73.7682V71.264C306.269 71.264 298.435 68.0476 292.686 65.2285C292.686 65.2285 296.366 70.8817 306.269 73.7682Z" fill="#F4A48E"/>
<path d="M288.848 60.6325C290.047 66.0233 304.267 70.8592 304.267 70.8592C304.267 70.8592 317.843 76.5498 318.226 45.1201L308.728 34.6235C308.728 34.6235 287.648 35.0959 287.266 36.4754C286.884 37.855 286.516 51.7929 286.516 51.7929L288.848 60.6325Z" fill="#F9B499"/>
<path d="M285.804 46.0123C285.804 46.0123 287.648 44.6252 293.188 51.7854L293.81 47.6243C293.825 47.5276 293.865 47.4365 293.927 47.3604C293.988 47.2843 294.069 47.2257 294.16 47.1907C294.251 47.1557 294.35 47.1454 294.447 47.161C294.543 47.1766 294.634 47.2174 294.71 47.2794C296.192 48.5521 297.766 49.7149 299.417 50.7582C299.673 50.911 299.964 50.9931 300.261 50.9964C300.559 50.9996 300.852 50.9237 301.11 50.7765C301.369 50.6293 301.584 50.4161 301.733 50.1586C301.882 49.9012 301.96 49.6087 301.959 49.3112V45.9073L302.761 45.4874C303.246 45.2386 303.64 44.8431 303.888 44.3572C304.136 43.8713 304.224 43.3197 304.14 42.7808L303.908 41.2363C303.856 40.8963 303.878 40.5491 303.973 40.2186C304.068 39.888 304.233 39.5818 304.457 39.3212C304.682 39.0605 304.96 38.8514 305.272 38.7083C305.585 38.5653 305.925 38.4915 306.269 38.4922L308.615 41.8811C308.986 42.3883 309.495 42.7777 310.081 43.0024C310.668 43.2272 311.307 43.2778 311.921 43.1482C312.45 43.0598 312.992 43.1009 313.501 43.268C314.01 43.4352 314.471 43.7234 314.845 44.1079C315.454 44.6786 316.259 44.9927 317.094 44.9851C318.218 44.9851 317.281 45.8023 318.196 47.7217C318.196 47.7217 329.777 33.2065 313.008 22.7399C313.008 22.7399 294.08 7.50487 279.77 24.8992C279.77 24.8992 269.972 40.0367 281.861 52.91L285.804 46.0123Z" fill="#2F2E41"/>
<path d="M284.252 56.8616C284.252 56.8616 285.189 62.6347 287.251 63.4069C287.251 63.4069 289.072 63.1295 289.35 56.3442C289.357 56.3442 286.299 58.481 284.252 56.8616Z" fill="#2F2E41"/>
<path d="M286.494 57.5584C289.085 57.5584 291.186 54.9737 291.186 51.7853C291.186 48.5969 289.085 46.0122 286.494 46.0122C283.902 46.0122 281.801 48.5969 281.801 51.7853C281.801 54.9737 283.902 57.5584 286.494 57.5584Z" fill="#F9B499"/>
</svg>
