<svg width="536" height="423" viewBox="0 0 536 423" fill="none" xmlns="http://www.w3.org/2000/svg">
<path d="M106.982 415.431C106.982 415.431 75.9709 417.586 76.5095 378.494C76.5095 378.494 77.7477 345.863 88.9598 316.453C88.9598 316.453 95.3862 301.754 83.3383 275.93C83.3383 275.93 38.7624 200.261 55.0202 166.911C55.0202 166.911 132.737 18.0875 246.003 11.9923C246.003 11.9923 374.933 -5.22153 447.214 24.9012C447.214 24.9012 497.819 37.81 464.084 109.893C464.084 109.893 415.1 181.975 446.006 225.546C446.006 225.546 519.507 320.801 421.911 415.456L106.982 415.431Z" fill="#0071F2"/>
<path opacity="0.7" d="M106.982 415.431C106.982 415.431 75.9709 417.586 76.5095 378.494C76.5095 378.494 77.7477 345.863 88.9598 316.453C88.9598 316.453 95.3862 301.754 83.3383 275.93C83.3383 275.93 38.7624 200.261 55.0202 166.911C55.0202 166.911 132.737 18.0875 246.003 11.9923C246.003 11.9923 374.933 -5.22153 447.214 24.9012C447.214 24.9012 497.819 37.81 464.084 109.893C464.084 109.893 415.1 181.975 446.006 225.546C446.006 225.546 519.507 320.801 421.911 415.456L106.982 415.431Z" fill="white"/>
<path d="M237.459 85.71H60.2641V195.671H237.459V85.71Z" fill="white"/>
<path d="M229.429 227.348H107.663V406.951H229.429V227.348Z" fill="white"/>
<path d="M229.881 407.409H107.211V226.896H229.881V407.409ZM108.115 406.499H228.971V227.807H108.115V406.499Z" fill="#2F2E41"/>
<path d="M319.597 339.57C319.355 353.525 315.622 388.164 315.622 388.164L302.169 388.411C302.169 388.411 301.909 385.116 301.432 379.938C299.934 363.591 296.299 328.414 291.96 318.385C291.96 318.385 289.211 310.413 287.725 294.463L286.22 273.037L284.982 307.675C284.982 307.675 281.459 350.459 275.33 362.736C275.166 363.063 274.919 363.342 274.614 363.544C274.308 363.746 273.956 363.865 273.591 363.888C271.578 364.037 267.399 363.888 264.304 360.995C264.304 360.995 264.304 358.586 264.304 354.677C264.304 339.192 264.217 299.982 263.815 293.218C263.815 293.218 257.593 245.38 260.571 224.462L262.57 223.718L315.628 228.785L316.662 228.884C316.662 228.884 319.597 232.18 319.101 274.796C319.101 274.796 319.101 305.941 319.844 313.17C320.587 320.398 319.844 325.614 319.597 339.57Z" fill="#2F2E41"/>
<path opacity="0.2" d="M319.597 339.569C319.355 353.525 315.622 388.163 315.622 388.163L302.169 388.411C302.169 388.411 301.909 385.116 301.432 379.937C308.706 379.838 311.387 375.701 311.387 375.701C315.102 368.472 314.377 329.107 314.377 329.107C310.143 321.631 314.117 319.389 314.117 319.389C317.832 315.672 314.867 310.413 314.867 310.413C309.641 304.683 314.117 293.719 314.117 293.719C320.847 274.034 314.619 229.919 314.619 229.919L315.628 228.76L316.662 228.859C316.662 228.859 319.597 232.155 319.101 274.771C319.101 274.771 319.101 305.916 319.844 313.145C320.587 320.373 319.844 325.614 319.597 339.569Z" fill="black"/>
<path d="M356.836 161.67C352.378 159.533 338.628 173.439 338.628 173.439L322.915 149.505C319.516 145.039 306.304 143.781 306.304 143.781L284.524 143.428C281.843 143.472 269.313 146.185 269.313 146.185C258.788 148.334 254.856 174.771 254.856 174.771L249.854 203.352C246.814 219.073 256.664 218.534 256.664 218.534L259.599 221.346L260.589 222.294C266.304 234.8 289.879 236.404 289.879 236.404C305.233 239.439 316.662 228.903 316.662 228.903C314.873 224.79 316.303 219.971 316.303 219.971C318.625 212.463 320.587 195.491 320.587 195.491C338.263 210.147 348.979 194.06 348.979 194.06L365.77 167.623C359.164 168.131 356.836 161.67 356.836 161.67ZM265.827 181.548H263.573C263.573 181.548 264.075 178.159 265.827 176.654V181.548Z" fill="#0071F2"/>
<path opacity="0.2" d="M286.22 273.037L284.982 307.675C284.982 307.675 281.459 350.459 275.33 362.736C275.166 363.063 274.919 363.341 274.614 363.543C274.308 363.746 273.956 363.864 273.591 363.888C271.578 364.037 267.4 363.888 264.304 360.995C264.304 360.995 264.304 358.586 264.304 354.677C266.997 352.472 274.111 344.822 275.516 325.112C275.19 323.658 275.177 322.152 275.478 320.693C275.779 319.234 276.387 317.856 277.262 316.65C277.262 316.65 279.998 314.65 277.262 310.915C277.262 310.915 273.101 310.109 277.881 303.481C277.881 303.481 284.369 266.081 285.409 251.27C285.409 251.27 287.013 265.963 286.22 273.037Z" fill="black"/>
<path d="M302.169 388.411C302.169 388.411 301.741 393.8 300.027 396.575C300.027 396.575 285.366 412.166 292.232 412.563C292.232 412.563 297.909 415.87 308.614 405.167L313.994 399.672C314.864 398.785 315.366 397.601 315.399 396.359L315.622 388.164L302.169 388.411Z" fill="#0071F2"/>
<path d="M264.316 360.996C264.316 360.996 258.571 366.905 253.903 366.626C253.903 366.626 232.667 369.172 236.915 373.706C236.915 373.706 253.408 379.467 271.164 371.346C271.805 371.051 272.353 370.586 272.747 370C273.141 369.414 273.367 368.731 273.399 368.026L273.584 363.888C273.584 363.888 268.217 364.433 264.316 360.996Z" fill="#0071F2"/>
<path d="M356.836 161.67C356.836 161.67 355.443 151.704 359.932 147.752L369.782 139.619C369.976 139.46 370.218 139.37 370.47 139.365C370.721 139.359 370.967 139.438 371.168 139.588C371.401 139.765 371.555 140.026 371.599 140.315C371.643 140.603 371.573 140.898 371.404 141.136L366.383 148.148C366.383 148.148 369.274 148.408 369.54 151.041C369.54 151.041 371.249 150.515 372.568 152.899C372.568 152.899 375.465 152.503 375.991 155.928L376.053 157.254C376.107 157.771 376.004 158.293 375.757 158.751C375.511 159.209 375.133 159.583 374.671 159.823C374.21 160.064 373.688 160.16 373.171 160.099C372.655 160.039 372.168 159.824 371.775 159.484C371.775 159.484 372.295 165.932 365.782 167.58C365.77 167.592 359.548 168.484 356.836 161.67Z" fill="#F9B499"/>
<path d="M359.393 152.912C360.086 152.02 360.805 151.146 361.516 150.267C362.228 149.387 362.953 148.526 363.671 147.653L364.767 146.339C364.85 146.254 364.957 146.195 365.073 146.168C365.189 146.142 365.311 146.15 365.423 146.191C365.537 146.232 365.636 146.305 365.709 146.402C365.782 146.499 365.824 146.615 365.832 146.736C365.857 147.026 365.868 147.318 365.863 147.609C365.837 148.763 365.66 149.909 365.336 151.016C365.261 151.51 365.238 152.01 365.268 152.509C365.293 152.989 365.408 153.46 365.609 153.896C365.703 154.095 365.84 154.27 366.01 154.408C366.181 154.546 366.38 154.644 366.593 154.696C367.06 154.788 367.541 154.769 367.999 154.64L368.395 154.565L368.351 154.943C368.305 155.372 368.317 155.806 368.389 156.232C368.434 156.636 368.598 157.017 368.859 157.328C368.993 157.466 369.158 157.571 369.339 157.634C369.521 157.698 369.715 157.718 369.905 157.694C370.114 157.673 370.321 157.638 370.525 157.588L371.144 157.359L371.571 157.204L371.428 157.619C371.354 157.85 371.33 158.094 371.356 158.336C371.383 158.577 371.46 158.81 371.583 159.019C371.854 159.451 372.272 159.77 372.76 159.917C373.254 160.094 373.794 160.094 374.289 159.917C374.793 159.724 375.247 159.422 375.62 159.031C375.281 159.467 374.844 159.815 374.344 160.047C373.821 160.275 373.235 160.314 372.685 160.159C372.413 160.078 372.151 159.966 371.905 159.824C371.655 159.666 371.444 159.455 371.286 159.205C371.124 158.951 371.018 158.666 370.975 158.368C370.932 158.07 370.954 157.766 371.038 157.477L371.317 157.743L370.661 158.016C370.426 158.086 370.186 158.138 369.943 158.17C369.679 158.212 369.41 158.192 369.156 158.11C368.902 158.028 368.671 157.888 368.481 157.7C368.141 157.317 367.925 156.839 367.862 156.331C367.779 155.852 367.76 155.365 367.807 154.881L368.16 155.191C367.609 155.355 367.027 155.383 366.463 155.272C366.168 155.202 365.892 155.069 365.653 154.882C365.415 154.695 365.22 154.458 365.083 154.188C364.829 153.679 364.69 153.121 364.674 152.552C364.648 152.005 364.681 151.457 364.773 150.917V150.886C365.101 149.829 365.286 148.734 365.324 147.628C365.34 147.356 365.34 147.083 365.324 146.81C365.323 146.788 365.316 146.767 365.304 146.749C365.292 146.731 365.275 146.716 365.255 146.707C365.235 146.698 365.213 146.695 365.191 146.698C365.17 146.701 365.149 146.71 365.132 146.723L364.005 147.962C363.244 148.799 362.495 149.647 361.721 150.471C360.947 151.295 360.179 152.1 359.393 152.912Z" fill="#F7A48B"/>
<path d="M369.528 151.065C369.538 151.7 369.429 152.33 369.206 152.924C369.011 153.521 368.704 154.076 368.302 154.559C368.292 153.925 368.401 153.294 368.624 152.701C368.824 152.105 369.13 151.551 369.528 151.065Z" fill="#F7A48B"/>
<path d="M372.555 152.912C372.55 153.722 372.429 154.527 372.196 155.303C371.986 156.085 371.662 156.832 371.236 157.52C371.276 155.897 371.73 154.31 372.555 152.912Z" fill="#F7A48B"/>
<path opacity="0.2" d="M290.548 153.927C288.883 154.157 288.072 149.771 288.072 149.771C286.406 149.92 283.081 152.416 283.081 152.416C283.081 152.416 283.385 177.224 286.406 176.543C286.406 176.543 288.072 177.298 291.396 169.054L299.488 154.082C299.488 154.082 295.197 152.224 293.031 151.803C292.644 152.521 292.115 153.154 291.477 153.661C291.3 153.764 291.108 153.837 290.907 153.878C290.789 153.907 290.669 153.923 290.548 153.927Z" fill="white"/>
<path d="M302.305 140.437L293.34 151.345C292.871 152.231 292.241 153.023 291.483 153.68C291.225 153.894 290.897 154.005 290.563 153.992C290.228 153.98 289.91 153.844 289.669 153.612C287.329 151.264 287.273 141.459 287.329 138.07C287.926 138.172 288.531 138.223 289.136 138.225C293.637 138.225 297.643 135.481 300.28 131.17C300.32 134.364 301.008 137.517 302.305 140.437Z" fill="#F9B499"/>
<path d="M287.304 138.07C287.304 138.07 287.056 142.839 287.514 144.778C287.514 144.778 292.69 143.577 295.278 136.181C295.278 136.181 292.455 138.949 287.304 138.07Z" fill="#F7A48B"/>
<path d="M293.012 151.803C293.012 151.803 302.088 154.312 303.927 156.864L305.871 143.162C305.871 143.162 306.304 140.684 302.305 140.437L293.012 151.803Z" fill="#0071F2"/>
<path d="M279.286 156.423C279.286 156.423 283.973 150.446 288.053 149.771C288.053 149.771 286.994 143.261 287.298 141.148C287.298 141.148 281.175 143.416 279.286 156.423Z" fill="#0071F2"/>
<path opacity="0.2" d="M293.012 151.803C293.012 151.803 302.088 154.312 303.927 156.864L305.871 143.162C305.871 143.162 306.304 140.684 302.305 140.437L293.012 151.803Z" fill="black"/>
<path opacity="0.2" d="M279.286 156.423C279.286 156.423 283.973 150.446 288.053 149.771C288.053 149.771 286.994 143.261 287.298 141.148C287.298 141.148 281.175 143.416 279.286 156.423Z" fill="black"/>
<path d="M303.562 118.93C303.603 123.234 302.464 127.468 300.268 131.17C297.612 135.506 293.606 138.225 289.124 138.225C288.518 138.223 287.913 138.171 287.316 138.07C280.19 136.893 274.68 128.779 274.68 118.868C274.68 108.195 281.15 99.5356 289.124 99.5356C297.098 99.5356 303.562 108.226 303.562 118.93Z" fill="#F9B499"/>
<path d="M309.722 122.083C309.146 122.951 308.447 123.731 307.648 124.399L302.627 120.943C302.627 120.943 300.899 113.398 291.483 112.618C291.539 113.334 291.859 114.003 292.381 114.496C292.903 114.989 293.588 115.271 294.306 115.287C294.306 115.287 290.907 116.371 287.273 112.605C286.439 111.691 285.339 111.062 284.128 110.809C282.89 110.567 281.422 110.722 280.642 112.296C280.642 112.296 278.271 115.808 274.86 115.269C274.86 115.269 274.624 118.001 274.674 118.899H274.637C274.216 118.62 270.656 116.068 271.151 111.831C271.393 109.886 272.482 107.569 275.145 104.955C275.145 104.955 273.727 97.1011 283.62 93.8058C283.62 93.8058 299.017 88.9309 299.958 96.1596C299.958 96.1596 311.722 95.6826 312.681 106.368C312.65 106.324 313.888 116 309.722 122.083Z" fill="#2F2E41"/>
<path d="M274.767 115.102L274.711 117.344C274.711 117.344 277.85 117.852 283.069 113.98C283.069 113.98 290.498 117.796 295.922 116.334C295.922 116.334 299.568 116.557 301.927 121.612L302.621 120.943C302.621 120.943 301.16 113.553 291.477 112.611C291.477 112.611 291.477 114.965 294.306 115.287C294.306 115.287 290.895 116.334 287.248 112.568C286.42 111.676 285.341 111.058 284.153 110.797C282.877 110.543 281.398 110.679 280.642 112.302C280.636 112.302 278.023 116.056 274.767 115.102Z" fill="#F7A48B"/>
<path opacity="0.2" d="M309.722 122.083C309.146 122.951 308.447 123.731 307.648 124.399L302.627 120.943C302.627 120.943 300.899 113.398 291.483 112.618C291.539 113.334 291.859 114.003 292.381 114.496C292.903 114.989 293.588 115.271 294.306 115.288C294.306 115.288 290.907 116.372 287.273 112.605C286.439 111.691 285.339 111.062 284.128 110.809C282.89 110.568 281.422 110.722 280.642 112.296C280.642 112.296 278.271 115.808 274.86 115.269C274.86 115.269 274.624 118.001 274.674 118.899H274.637C274.21 118.639 270.644 116.248 271.108 111.837H271.17C271.566 111.72 274.47 110.667 276.469 105.693C276.469 105.693 281.23 94.8341 294.708 98.4577C294.708 98.4577 293.229 95.98 292.071 95.4102C292.071 95.4102 297.086 95.4907 299.222 99.7461C299.222 99.7461 305.877 100.403 308.836 104.702C308.836 104.702 303.822 103.382 305.122 106.182C305.116 106.132 310.539 110.673 309.722 122.083Z" fill="black"/>
<path d="M307.441 126.507C308.281 123.953 307.36 121.354 305.382 120.702C303.404 120.051 301.119 121.593 300.278 124.147C299.438 126.701 300.359 129.299 302.337 129.951C304.315 130.603 306.6 129.061 307.441 126.507Z" fill="#F9B499"/>
<path opacity="0.2" d="M316.662 228.872C316.662 228.872 305.233 239.402 289.879 236.373C289.879 236.373 266.304 234.769 260.589 222.263L259.599 221.315L267.208 223.514C279.342 236.373 305.413 229.944 305.413 229.944C312.019 228.16 309.524 224.406 309.524 224.406C306.657 219.94 312.378 211.893 312.378 211.893C317.021 202.249 316.13 187.067 316.13 187.067L320.587 195.46C320.587 195.46 318.625 212.432 316.303 219.94C316.303 219.94 314.873 224.759 316.662 228.872Z" fill="black"/>
<path opacity="0.2" d="M320.005 147.256C320.005 147.256 321.411 155.098 326.091 157.557C326.091 157.557 327.725 158.022 325.738 162.587C325.738 162.587 323.516 166.217 329.013 169.611C329.013 169.611 333.694 171.718 331.49 175.112L328.437 178.166C328.415 178.189 328.4 178.219 328.396 178.251C328.391 178.283 328.397 178.316 328.412 178.345C328.427 178.374 328.451 178.397 328.48 178.411C328.509 178.426 328.542 178.431 328.574 178.426L334.065 177.453C334.065 177.453 332.028 181.913 332.982 185.184C332.982 185.266 333.014 185.345 333.072 185.403C333.13 185.461 333.209 185.494 333.291 185.494C333.373 185.494 333.452 185.461 333.51 185.403C333.568 185.345 333.601 185.266 333.601 185.184C334.17 182.768 335.879 176.419 338.678 173.501L322.965 149.567C322.1 148.652 321.102 147.873 320.005 147.256Z" fill="black"/>
<path d="M245.675 183.133L258.918 224.87L288.301 221.978L274.903 182.372L245.675 183.133Z" fill="#0071F2"/>
<path opacity="0.4" d="M245.675 183.133L258.918 224.87L288.301 221.978L274.903 182.372L245.675 183.133Z" fill="white"/>
<path d="M276.884 180.693L290.127 220.603L288.301 221.978L274.903 182.372L245.675 183.133L248.87 181.455L276.884 180.693Z" fill="#0071F2"/>
<path opacity="0.5" d="M276.884 180.693L290.127 220.603L288.301 221.978L274.903 182.372L245.675 183.133L248.87 181.455L276.884 180.693Z" fill="white"/>
<path opacity="0.4" d="M264.446 206.102C267.336 206.102 269.678 203.797 269.678 200.954C269.678 198.111 267.336 195.807 264.446 195.807C261.557 195.807 259.215 198.111 259.215 200.954C259.215 203.797 261.557 206.102 264.446 206.102Z" fill="white"/>
<path d="M255.692 204.64C256.111 204.763 256.482 205.014 256.751 205.358C256.858 205.495 256.923 205.659 256.94 205.832C256.956 206.005 256.922 206.178 256.843 206.332C256.763 206.486 256.641 206.614 256.491 206.701C256.341 206.787 256.169 206.829 255.995 206.82C255.103 206.715 254.231 206.479 253.408 206.12C253.254 206.051 253.091 206.003 252.925 205.978C252.107 205.866 249.408 205.21 249.538 201.642C249.56 201.187 249.403 200.742 249.099 200.403C248.3 199.511 246.777 197.616 246.43 195.733C246.367 195.286 246.404 194.832 246.54 194.402C246.676 193.972 246.907 193.578 247.215 193.25C247.524 192.922 247.902 192.667 248.323 192.505C248.743 192.343 249.194 192.277 249.643 192.313L255.395 192.679C255.69 192.684 255.972 192.806 256.177 193.019C256.383 193.231 256.496 193.517 256.491 193.812C256.486 194.108 256.364 194.39 256.151 194.595C255.939 194.801 255.653 194.914 255.358 194.909L253.333 194.965C253.221 194.985 253.117 195.035 253.032 195.11C252.947 195.186 252.884 195.283 252.85 195.392C252.828 195.536 252.858 195.684 252.934 195.808C253.009 195.933 253.127 196.027 253.265 196.073H255.55C255.837 196.078 256.111 196.196 256.313 196.401C256.514 196.606 256.627 196.882 256.627 197.17C256.626 197.437 256.527 197.695 256.349 197.895C256.171 198.094 255.927 198.222 255.661 198.254L254.664 198.371C254.528 198.387 254.397 198.43 254.278 198.499C254.16 198.568 254.057 198.66 253.976 198.771C253.895 198.882 253.838 199.008 253.809 199.142C253.779 199.275 253.777 199.414 253.804 199.548C253.846 199.777 253.967 199.985 254.145 200.134C254.324 200.283 254.549 200.365 254.782 200.366H256.02C256.353 200.366 256.672 200.495 256.911 200.726C257.151 200.957 257.291 201.272 257.302 201.605C257.314 201.94 257.194 202.266 256.968 202.514C256.743 202.762 256.429 202.911 256.095 202.93L254.72 203.011C254.654 203.015 254.59 203.033 254.532 203.064C254.474 203.095 254.423 203.138 254.384 203.19C254.344 203.242 254.315 203.303 254.301 203.367C254.286 203.431 254.286 203.498 254.299 203.562C254.299 203.562 254.138 204.188 255.692 204.64Z" fill="#F9B499"/>
<path opacity="0.4" d="M479.06 72.9062H357.294V252.509H479.06V72.9062Z" fill="white"/>
<path opacity="0.4" d="M479.512 252.967H356.836V72.4727H479.512V252.967ZM357.746 252.057H478.602V73.3646H357.746V252.057Z" fill="#2F2E41"/>
<path d="M256.485 193.93C256.485 193.93 256.175 194.915 255.358 194.909L253.333 194.964C253.248 194.974 253.166 195.004 253.094 195.052C253.023 195.099 252.963 195.163 252.921 195.238C252.879 195.313 252.855 195.397 252.851 195.483C252.847 195.569 252.864 195.654 252.9 195.732C252.749 195.678 252.611 195.592 252.496 195.48C252.381 195.368 252.291 195.233 252.232 195.083C252.174 194.934 252.148 194.773 252.156 194.613C252.164 194.452 252.207 194.296 252.281 194.153C252.281 194.153 252.429 193.787 253.569 193.856L256.485 193.93Z" fill="#F7A48B"/>
<path d="M197.415 144.45H125.246V145.361H197.415V144.45Z" fill="#2F2E41"/>
<path d="M121.283 141.824H116.448V146.661H121.283V141.824Z" fill="#0071F2"/>
<path d="M197.415 155.018H125.246V155.928H197.415V155.018Z" fill="#2F2E41"/>
<path d="M121.283 152.379H116.448V157.217H121.283V152.379Z" fill="#0071F2"/>
<path d="M197.415 165.573H125.246V166.483H197.415V165.573Z" fill="#2F2E41"/>
<path d="M121.283 162.934H116.448V167.772H121.283V162.934Z" fill="#0071F2"/>
<path d="M197.415 176.127H125.246V177.038H197.415V176.127Z" fill="#2F2E41"/>
<path d="M121.283 173.501H116.448V178.339H121.283V173.501Z" fill="#0071F2"/>
<path d="M107.601 95.6206H106.691V195.193H107.601V95.6206Z" fill="#2F2E41"/>
<path d="M130.861 134.044C127.745 134.045 124.698 133.121 122.107 131.389C119.515 129.657 117.495 127.195 116.303 124.315C115.111 121.434 114.799 118.264 115.408 115.206C116.018 112.148 117.52 109.34 119.724 107.136C121.929 104.933 124.738 103.433 127.795 102.828C130.852 102.222 134.02 102.537 136.898 103.733C139.776 104.93 142.234 106.953 143.962 109.548C145.69 112.143 146.61 115.192 146.605 118.31C146.597 122.484 144.935 126.484 141.984 129.433C139.032 132.382 135.032 134.04 130.861 134.044ZM130.861 103.438C127.922 103.438 125.05 104.31 122.606 105.943C120.163 107.577 118.258 109.899 117.134 112.615C116.009 115.332 115.715 118.321 116.288 121.204C116.861 124.088 118.276 126.737 120.354 128.816C122.433 130.895 125.08 132.311 127.962 132.885C130.845 133.458 133.832 133.164 136.547 132.039C139.262 130.914 141.583 129.008 143.216 126.563C144.848 124.119 145.72 121.244 145.72 118.304C145.72 114.361 144.154 110.58 141.368 107.792C138.581 105.004 134.802 103.438 130.861 103.438Z" fill="#2F2E41"/>
<path d="M130.861 122.423C129.698 122.425 128.56 122.081 127.592 121.435C126.624 120.789 125.869 119.87 125.423 118.795C124.977 117.72 124.859 116.537 125.086 115.395C125.312 114.253 125.872 113.204 126.694 112.38C127.516 111.556 128.564 110.995 129.705 110.768C130.846 110.54 132.029 110.656 133.104 111.102C134.179 111.547 135.098 112.301 135.745 113.269C136.391 114.237 136.736 115.375 136.736 116.539C136.736 118.098 136.118 119.594 135.016 120.698C133.914 121.801 132.42 122.422 130.861 122.423ZM130.861 111.565C129.882 111.565 128.924 111.855 128.109 112.4C127.295 112.944 126.66 113.718 126.285 114.624C125.91 115.529 125.812 116.526 126.003 117.487C126.195 118.448 126.666 119.331 127.359 120.024C128.052 120.717 128.934 121.189 129.895 121.38C130.856 121.572 131.851 121.474 132.757 121.098C133.662 120.723 134.435 120.088 134.979 119.273C135.524 118.458 135.814 117.5 135.814 116.52C135.814 115.206 135.292 113.946 134.363 113.016C133.434 112.087 132.175 111.565 130.861 111.565Z" fill="#2F2E41"/>
<path d="M130.861 134.044C127.436 134.051 124.105 132.927 121.383 130.848L121.154 130.687L121.203 130.414C121.584 128.129 122.762 126.053 124.529 124.556C126.296 123.058 128.536 122.236 130.852 122.236C133.167 122.236 135.408 123.058 137.175 124.556C138.941 126.053 140.12 128.129 140.501 130.414L140.544 130.687L140.321 130.848C137.603 132.922 134.279 134.045 130.861 134.044ZM122.163 130.297C124.69 132.141 127.737 133.134 130.864 133.134C133.992 133.134 137.039 132.141 139.566 130.297C139.166 128.282 138.08 126.469 136.493 125.166C134.906 123.863 132.917 123.151 130.864 123.151C128.811 123.151 126.822 123.863 125.236 125.166C123.649 126.469 122.563 128.282 122.163 130.297Z" fill="#2F2E41"/>
<path d="M84.2979 124.976C82.7529 124.977 81.2422 124.52 79.9568 123.662C78.6714 122.804 77.669 121.585 77.0763 120.157C76.4836 118.73 76.3273 117.158 76.6271 115.642C76.9268 114.125 77.6692 112.732 78.7604 111.637C79.8516 110.543 81.2426 109.797 82.7576 109.493C84.2726 109.19 85.8434 109.343 87.2717 109.932C88.6999 110.522 89.9214 111.522 90.7817 112.806C91.642 114.09 92.1024 115.6 92.1049 117.146C92.1065 119.22 91.2851 121.21 89.8212 122.678C88.3573 124.146 86.3707 124.972 84.2979 124.976ZM84.2979 110.258C82.9311 110.256 81.5943 110.659 80.4566 111.417C79.3189 112.174 78.4314 113.253 77.9064 114.515C77.3813 115.778 77.2424 117.168 77.5071 118.51C77.7718 119.851 78.4282 121.084 79.3934 122.052C80.3586 123.021 81.5891 123.681 82.9293 123.949C84.2695 124.218 85.6591 124.082 86.9224 123.56C88.1858 123.039 89.266 122.153 90.0265 121.017C90.787 119.881 91.1936 118.545 91.1948 117.177C91.1948 115.345 90.4688 113.588 89.1759 112.291C87.883 110.994 86.1288 110.263 84.2979 110.258Z" fill="#2F2E41"/>
<path d="M84.2979 119.394C83.6932 119.388 83.1037 119.203 82.6038 118.863C82.104 118.522 81.716 118.041 81.4888 117.48C81.2616 116.92 81.2053 116.304 81.327 115.711C81.4487 115.119 81.743 114.575 82.1728 114.149C82.6026 113.724 83.1487 113.435 83.7423 113.319C84.3359 113.203 84.9505 113.266 85.5087 113.499C86.0669 113.731 86.5437 114.124 86.8791 114.628C87.2145 115.132 87.3934 115.723 87.3935 116.328C87.3853 117.144 87.0556 117.924 86.4759 118.498C85.8963 119.072 85.1136 119.394 84.2979 119.394ZM84.2979 114.179C83.8715 114.179 83.4547 114.305 83.1003 114.543C82.7459 114.78 82.4697 115.117 82.3068 115.511C82.144 115.905 82.1016 116.339 82.1853 116.757C82.2689 117.176 82.4747 117.56 82.7767 117.861C83.0786 118.162 83.4631 118.367 83.8814 118.449C84.2997 118.532 84.7331 118.488 85.1267 118.324C85.5203 118.16 85.8563 117.883 86.0923 117.527C86.3283 117.172 86.4536 116.755 86.4524 116.328C86.4524 116.045 86.3966 115.765 86.2883 115.504C86.18 115.243 86.0212 115.006 85.821 114.806C85.6209 114.606 85.3833 114.448 85.1219 114.341C84.8606 114.233 84.5806 114.178 84.2979 114.179Z" fill="#2F2E41"/>
<path d="M84.2979 124.975C82.6013 124.982 80.9499 124.429 79.5989 123.402L79.376 123.228V122.956C79.5806 121.811 80.1812 120.775 81.0725 120.028C81.9638 119.282 83.0891 118.873 84.2515 118.873C85.4138 118.873 86.5391 119.282 87.4304 120.028C88.3217 120.775 88.9223 121.811 89.1269 122.956V123.228L88.9041 123.402C87.5765 124.406 85.962 124.957 84.2979 124.975ZM80.3727 122.838C81.5296 123.625 82.896 124.045 84.2948 124.045C85.6935 124.045 87.06 123.625 88.2169 122.838C88.0029 121.959 87.5 121.177 86.7888 120.618C86.0776 120.059 85.1993 119.755 84.2948 119.755C83.3903 119.755 82.512 120.059 81.8008 120.618C81.0896 121.177 80.5867 121.959 80.3727 122.838Z" fill="#2F2E41"/>
<path d="M84.2979 155.817C82.7511 155.819 81.2384 155.362 79.951 154.505C78.6636 153.647 77.6595 152.426 77.0656 150.997C76.4716 149.568 76.3147 147.995 76.6145 146.477C76.9143 144.959 77.6574 143.564 78.7499 142.468C79.8423 141.372 81.235 140.625 82.7517 140.322C84.2684 140.018 85.8411 140.172 87.2707 140.762C88.7003 141.353 89.9227 142.355 90.7832 143.641C91.6437 144.927 92.1037 146.44 92.1049 147.987C92.1049 150.06 91.283 152.049 89.8194 153.517C88.3559 154.985 86.3702 155.812 84.2979 155.817ZM84.2979 141.087C82.9311 141.084 81.5943 141.487 80.4566 142.245C79.3189 143.003 78.4314 144.081 77.9064 145.344C77.3813 146.607 77.2424 147.997 77.5071 149.338C77.7718 150.68 78.4282 151.913 79.3934 152.881C80.3585 153.849 81.5891 154.509 82.9293 154.778C84.2695 155.046 85.6591 154.911 86.9224 154.389C88.1858 153.867 89.266 152.982 90.0265 151.846C90.787 150.71 91.1936 149.373 91.1948 148.006C91.1964 146.173 90.4709 144.415 89.1777 143.118C87.8844 141.821 86.1293 141.09 84.2979 141.087Z" fill="#2F2E41"/>
<path d="M84.2979 150.217C83.6932 150.211 83.1037 150.026 82.6038 149.685C82.104 149.345 81.716 148.864 81.4888 148.303C81.2616 147.742 81.2053 147.127 81.327 146.534C81.4487 145.941 81.743 145.398 82.1728 144.972C82.6026 144.546 83.1487 144.257 83.7423 144.142C84.3359 144.026 84.9505 144.088 85.5087 144.321C86.0669 144.554 86.5437 144.947 86.8791 145.451C87.2145 145.954 87.3934 146.546 87.3935 147.151C87.3853 147.967 87.0556 148.747 86.4759 149.321C85.8963 149.895 85.1136 150.217 84.2979 150.217ZM84.2979 144.995C83.8718 144.995 83.4552 145.122 83.1009 145.359C82.7466 145.596 82.4705 145.932 82.3074 146.326C82.1444 146.72 82.1017 147.153 82.1848 147.572C82.268 147.99 82.4731 148.374 82.7745 148.675C83.0758 148.977 83.4597 149.182 83.8776 149.265C84.2955 149.348 84.7287 149.306 85.1224 149.142C85.5161 148.979 85.8526 148.703 86.0893 148.349C86.3261 147.994 86.4524 147.577 86.4524 147.151C86.4524 146.579 86.2254 146.031 85.8214 145.627C85.4173 145.222 84.8693 144.995 84.2979 144.995Z" fill="#2F2E41"/>
<path d="M84.2979 155.817C82.6005 155.815 80.9502 155.258 79.5989 154.231L79.376 154.064V153.797C79.5806 152.652 80.1812 151.616 81.0725 150.87C81.9638 150.123 83.0891 149.714 84.2515 149.714C85.4138 149.714 86.5391 150.123 87.4304 150.87C88.3217 151.616 88.9223 152.652 89.1269 153.797V154.064L88.9041 154.231C87.5776 155.239 85.9633 155.794 84.2979 155.817ZM80.3727 153.667C81.5283 154.457 82.8953 154.88 84.2948 154.88C85.6943 154.88 87.0613 154.457 88.2169 153.667C88.0029 152.788 87.5 152.006 86.7888 151.447C86.0776 150.888 85.1993 150.584 84.2948 150.584C83.3903 150.584 82.512 150.888 81.8008 151.447C81.0896 152.006 80.5867 152.788 80.3727 153.667Z" fill="#2F2E41"/>
<path d="M84.2979 186.627C82.7511 186.63 81.2384 186.173 79.951 185.315C78.6636 184.457 77.6595 183.237 77.0656 181.808C76.4716 180.379 76.3147 178.806 76.6145 177.287C76.9143 175.769 77.6574 174.374 78.7499 173.278C79.8423 172.183 81.235 171.436 82.7517 171.132C84.2684 170.829 85.8411 170.982 87.2707 171.573C88.7003 172.164 89.9227 173.166 90.7832 174.452C91.6437 175.738 92.1037 177.25 92.1049 178.798C92.1049 180.871 91.283 182.86 89.8194 184.327C88.3559 185.795 86.3702 186.622 84.2979 186.627ZM84.2979 171.897C82.9311 171.895 81.5943 172.298 80.4566 173.056C79.3189 173.814 78.4314 174.892 77.9064 176.155C77.3813 177.417 77.2424 178.807 77.5071 180.149C77.7718 181.49 78.4282 182.723 79.3934 183.692C80.3585 184.66 81.5891 185.32 82.9293 185.588C84.2695 185.857 85.6591 185.721 86.9224 185.2C88.1858 184.678 89.266 183.793 90.0265 182.656C90.787 181.52 91.1936 180.184 91.1948 178.816C91.1932 176.985 90.4666 175.229 89.1741 173.932C87.8815 172.635 86.1283 171.904 84.2979 171.897Z" fill="#2F2E41"/>
<path d="M84.2979 181.034C83.6929 181.027 83.1032 180.842 82.6032 180.501C82.1032 180.16 81.7152 179.679 81.4882 179.118C81.2612 178.557 81.2052 177.941 81.3275 177.348C81.4497 176.755 81.7446 176.212 82.175 175.786C82.6054 175.361 83.1521 175.072 83.7461 174.957C84.3401 174.842 84.9549 174.906 85.513 175.139C86.071 175.373 86.5474 175.767 86.8821 176.272C87.2167 176.776 87.3946 177.368 87.3935 177.974C87.3837 178.789 87.0532 179.567 86.4738 180.14C85.8943 180.712 85.1125 181.034 84.2979 181.034ZM84.2979 175.818C83.8718 175.818 83.4552 175.944 83.1009 176.181C82.7466 176.418 82.4705 176.755 82.3074 177.149C82.1443 177.543 82.1017 177.976 82.1848 178.394C82.2679 178.812 82.4731 179.196 82.7744 179.498C83.0758 179.799 83.4597 180.005 83.8776 180.088C84.2955 180.171 84.7287 180.128 85.1224 179.965C85.5161 179.802 85.8526 179.526 86.0893 179.171C86.326 178.817 86.4524 178.4 86.4524 177.974C86.4524 177.402 86.2254 176.854 85.8214 176.449C85.4173 176.045 84.8693 175.818 84.2979 175.818Z" fill="#2F2E41"/>
<path d="M84.2979 186.627C82.6005 186.632 80.9489 186.077 79.5989 185.048L79.376 184.874V184.589C79.5657 183.429 80.1615 182.374 81.0569 181.613C81.9522 180.852 83.0889 180.434 84.2638 180.434C85.4388 180.434 86.5754 180.852 87.4708 181.613C88.3662 182.374 88.962 183.429 89.1517 184.589V184.856L88.9288 185.029C87.5989 186.049 85.9738 186.61 84.2979 186.627ZM80.3727 184.484C81.5296 185.271 82.896 185.691 84.2948 185.691C85.6935 185.691 87.06 185.271 88.2169 184.484C88.0029 183.605 87.5 182.823 86.7888 182.264C86.0776 181.704 85.1993 181.401 84.2948 181.401C83.3903 181.401 82.512 181.704 81.8008 182.264C81.0896 182.823 80.5867 183.605 80.3727 184.484Z" fill="#2F2E41"/>
<path d="M193.106 109.112H154.387V110.022H193.106V109.112Z" fill="#2F2E41"/>
<path d="M193.106 118.019H154.387V118.93H193.106V118.019Z" fill="#2F2E41"/>
<path d="M193.106 126.933H154.387V127.843H193.106V126.933Z" fill="#2F2E41"/>
<path d="M165.89 323.223C187.432 323.223 204.894 305.751 204.894 284.199C204.894 262.647 187.432 245.175 165.89 245.175C144.349 245.175 126.886 262.647 126.886 284.199C126.886 305.751 144.349 323.223 165.89 323.223Z" fill="white"/>
<path d="M165.921 323.675C158.118 323.675 150.489 321.36 144.001 317.022C137.512 312.685 132.455 306.519 129.469 299.306C126.483 292.093 125.701 284.155 127.224 276.498C128.746 268.84 132.504 261.806 138.022 256.285C143.54 250.765 150.57 247.005 158.224 245.482C165.878 243.958 173.811 244.74 181.02 247.728C188.23 250.716 194.392 255.776 198.728 262.267C203.063 268.759 205.377 276.392 205.377 284.199C205.377 289.383 204.357 294.517 202.374 299.306C200.391 304.095 197.485 308.447 193.821 312.113C190.157 315.779 185.807 318.686 181.02 320.67C176.233 322.654 171.103 323.675 165.921 323.675ZM165.921 245.628C158.298 245.629 150.846 247.892 144.508 252.13C138.17 256.368 133.231 262.392 130.314 269.439C127.398 276.486 126.635 284.24 128.123 291.721C129.611 299.201 133.283 306.072 138.674 311.465C144.065 316.858 150.933 320.53 158.41 322.018C165.887 323.505 173.637 322.741 180.68 319.822C187.723 316.903 193.742 311.96 197.978 305.618C202.213 299.276 204.473 291.82 204.473 284.193C204.458 273.97 200.391 264.17 193.164 256.944C185.936 249.717 176.139 245.654 165.921 245.646V245.628Z" fill="#0071F2"/>
<path d="M207.674 335.351H125.5V336.262H207.674V335.351Z" fill="#2F2E41"/>
<path d="M207.674 343.713H125.5V344.624H207.674V343.713Z" fill="#2F2E41"/>
<path d="M207.674 357.787H135.504V358.697H207.674V357.787Z" fill="#2F2E41"/>
<path d="M131.554 355.154H126.719V359.992H131.554V355.154Z" fill="#0071F2"/>
<path d="M207.674 368.342H135.504V369.252H207.674V368.342Z" fill="#2F2E41"/>
<path d="M131.554 365.715H126.719V370.553H131.554V365.715Z" fill="#0071F2"/>
<path d="M207.674 378.897H135.504V379.808H207.674V378.897Z" fill="#2F2E41"/>
<path d="M131.554 376.271H126.719V381.108H131.554V376.271Z" fill="#0071F2"/>
<path d="M207.674 389.452H135.504V390.362H207.674V389.452Z" fill="#2F2E41"/>
<path d="M131.554 386.826H126.719V391.663H131.554V386.826Z" fill="#0071F2"/>
<path d="M157.254 258.301C159.027 255.613 161.464 253.429 164.329 251.96C167.193 250.491 170.388 249.786 173.604 249.914C184.891 250.279 187.627 262.643 187.225 266.279C187.045 268.369 186.487 270.409 185.578 272.3L180.662 268.106C184.046 271.474 186.677 275.521 188.383 279.981C191.107 287.253 189.8 296.705 186.34 298.892C182.879 301.078 180.514 300.168 180.514 300.168L180.879 295.243C180.879 295.243 177.604 301.072 172.143 302.162C166.683 303.252 151.026 303.983 148.654 301.258C147.226 299.58 146.227 297.58 145.745 295.429L145.385 300.168C145.385 300.168 140.47 296.526 140.284 292.326C140.098 288.126 142.649 282.328 143.918 279.219C145.187 276.109 146.104 274.48 146.463 269.742C146.822 265.003 146.283 262.469 149.558 259.36C152.833 256.25 157.254 258.301 157.254 258.301Z" fill="#2F2E41"/>
<path d="M149.663 307.985C146.648 309.286 141.77 310.463 138.451 311.918C145.732 319.131 155.556 323.188 165.802 323.212C176.047 323.236 185.891 319.226 193.205 312.049C191.931 311.421 190.594 310.927 189.218 310.574C183.386 308.958 175.096 304.213 174.124 302.59C173.152 300.967 172.199 295.318 172.199 295.318L158.721 293.503C158.721 293.503 159.396 300.558 159.396 301.859C159.396 303.16 154.208 306.04 149.663 307.985Z" fill="#F9B499"/>
<path d="M180.594 306.982L166.472 320.374L152.79 306.536C151.762 307.05 150.697 307.539 149.694 307.985C146.679 309.286 141.801 310.463 138.482 311.918C145.763 319.131 155.587 323.187 165.833 323.212C176.078 323.236 185.922 319.226 193.236 312.049C191.962 311.421 190.625 310.927 189.249 310.574C186.249 309.675 183.349 308.472 180.594 306.982Z" fill="#0071F2"/>
<path d="M457.324 180.91H375.149V181.82H457.324V180.91Z" fill="#2F2E41"/>
<path d="M457.324 189.272H375.149V190.183H457.324V189.272Z" fill="#2F2E41"/>
<path d="M457.33 203.345H385.16V204.256H457.33V203.345Z" fill="#2F2E41"/>
<path d="M381.204 200.707H376.369V205.544H381.204V200.707Z" fill="#0071F2"/>
<path d="M457.33 213.9H385.16V214.811H457.33V213.9Z" fill="#2F2E41"/>
<path d="M381.204 211.274H376.369V216.112H381.204V211.274Z" fill="#0071F2"/>
<path d="M457.33 224.455H385.16V225.366H457.33V224.455Z" fill="#2F2E41"/>
<path d="M381.204 221.829H376.369V226.667H381.204V221.829Z" fill="#0071F2"/>
<path d="M457.33 235.01H385.16V235.921H457.33V235.01Z" fill="#2F2E41"/>
<path d="M381.204 232.384H376.369V237.222H381.204V232.384Z" fill="#0071F2"/>
<path d="M415.552 168.781C437.094 168.781 454.556 151.31 454.556 129.757C454.556 108.205 437.094 90.7334 415.552 90.7334C394.011 90.7334 376.548 108.205 376.548 129.757C376.548 151.31 394.011 168.781 415.552 168.781Z" fill="white"/>
<path d="M395.252 146.884L385.526 154.671C392.126 162.63 401.615 167.643 411.907 168.607C422.199 169.571 432.453 166.407 440.416 159.812C442.091 158.426 443.647 156.901 445.065 155.253L430.324 145.608L395.252 146.884Z" fill="#0071F2"/>
<path d="M407.454 135.865C407.454 135.865 398.886 136.98 396.496 140.467C394.106 143.955 392.367 147.281 394.113 149.368C397.002 152.49 400.201 155.311 403.659 157.786C406.513 159.694 410.971 166.217 410.971 166.217C411.326 163.475 411.532 160.717 411.59 157.954C411.59 154.454 408.569 150.675 407.956 147.461C407.343 144.246 412.562 139.204 416.202 140.783C419.843 142.363 422.722 147.151 422.567 149.368C422.412 151.586 423.186 154.324 423.991 158.108C424.796 161.893 425.421 165.188 425.421 165.188C425.421 165.188 430.813 159.731 432.572 153.816C434.33 147.9 433.476 141.904 427 137.934C420.524 133.963 407.454 135.865 407.454 135.865Z" fill="#0071F2"/>
<path opacity="0.2" d="M407.454 135.865C407.454 135.865 398.886 136.98 396.496 140.467C394.106 143.955 392.367 147.281 394.113 149.368C397.002 152.49 400.201 155.311 403.659 157.786C406.513 159.694 410.971 166.217 410.971 166.217C411.326 163.475 411.532 160.717 411.59 157.954C411.59 154.454 408.569 150.675 407.956 147.461C407.343 144.246 412.562 139.204 416.202 140.783C419.843 142.363 422.722 147.151 422.567 149.368C422.412 151.586 423.186 154.324 423.991 158.108C424.796 161.893 425.421 165.188 425.421 165.188C425.421 165.188 430.813 159.731 432.572 153.816C434.33 147.9 433.476 141.904 427 137.934C420.524 133.963 407.454 135.865 407.454 135.865Z" fill="white"/>
<path opacity="0.2" d="M429.798 140.102C428.95 139.273 428.009 138.546 426.993 137.934C420.474 133.957 407.454 135.865 407.454 135.865C407.454 135.865 398.886 136.98 396.496 140.468C396.224 140.876 395.951 141.285 395.698 141.706C395.393 143.844 395.903 146.018 397.128 147.795C400.694 153.469 408.036 156.189 411.571 157.799C411.46 154.361 408.55 150.632 407.937 147.517C407.324 144.401 412.543 139.26 416.184 140.839C419.824 142.419 422.703 147.207 422.548 149.424C422.393 151.642 423.167 154.38 423.972 158.158L424.108 158.852C424.381 158.586 424.653 158.313 424.926 158.003C428.455 154.132 430.385 149.065 430.324 143.825C430.324 142.565 430.147 141.312 429.798 140.102Z" fill="white"/>
<path d="M406.024 129.665C406.024 129.665 406.984 141.105 407.3 144.289C407.615 147.473 409.361 155.569 414.729 157.148C420.097 158.728 423.304 152.552 422.517 147.944C421.731 143.335 420.301 139.043 420.301 137.451C420.338 136.759 420.282 136.065 420.134 135.388L406.024 129.665Z" fill="#F9B499"/>
<path d="M420.158 135.357L406.024 129.64C406.024 129.64 406.755 138.343 407.145 142.679L420.332 137.178C420.348 136.566 420.29 135.955 420.158 135.357Z" fill="#F7A48B"/>
<path d="M423.508 108.245C423.508 108.245 426.046 122.213 426.046 124.758C426.046 127.304 423.718 134.706 422.666 136.397C421.613 138.088 416.301 139.123 414.203 138.293C412.104 137.463 406.154 131.931 404.916 129.621C404.154 128.222 403.585 126.726 403.226 125.173C403.226 125.173 400.26 126.449 397.939 123.055C395.617 119.661 396.88 116.501 399.177 116.291L401.294 116.91C401.294 116.91 397.487 110.351 398.75 107.39C400.013 104.429 415.255 103.37 418.425 103.37C421.595 103.37 423.508 108.245 423.508 108.245Z" fill="#F9B499"/>
<path d="M425.155 129.411C425.155 129.411 424.746 124.585 423.78 123.891C422.814 123.198 415.602 123.755 415.602 123.755C415.602 123.755 408.334 121.692 408.173 123.346C408.067 124.585 408.395 131.021 408.699 134.038C410.736 135.995 413.033 137.841 414.153 138.293C416.264 139.142 421.582 138.089 422.616 136.398C423.677 134.17 424.507 131.839 425.093 129.441L425.155 129.411ZM423.502 130.241C422.672 132.966 420.883 134.651 420.059 134.242C419.236 133.833 418.536 131.201 417.849 130.928C417.162 130.656 416.611 132.031 415.788 133.276C414.964 134.521 412.754 134.93 411.788 134.106C410.822 133.282 409.714 125.688 409.714 124.721C409.714 123.755 419.787 125.279 419.787 125.279C420.838 125.144 421.898 125.098 422.957 125.143C423.638 125.279 424.325 127.484 423.502 130.241Z" fill="#2F2E41"/>
<path d="M397.914 99.1453C397.914 99.1453 392.46 104.602 394.534 109.31C396.608 114.018 401.963 122.628 401.963 122.628H403.015L402.805 118.992C402.805 118.992 406.185 117.753 405.535 114.767C405.17 113.016 404.451 111.357 403.424 109.892C403.424 109.892 407.058 112.618 411.249 112.011C415.441 111.404 417.385 106.3 418.865 107.991C420.344 109.682 422.672 110.722 427.105 108.412C431.538 106.101 434.373 98.2038 429.526 95.0261C424.678 91.8485 420.127 94.6668 417.589 95.2925C415.051 95.9181 413.15 91.6564 407.442 93.3908C403.856 94.5283 400.59 96.5004 397.914 99.1453Z" fill="#2F2E41"/>
<path d="M415.552 169.233C407.748 169.236 400.119 166.923 393.629 162.587C387.139 158.251 382.08 152.087 379.092 144.874C376.103 137.661 375.32 129.724 376.84 122.066C378.361 114.408 382.117 107.372 387.634 101.85C393.151 96.3278 400.18 92.5663 407.834 91.0415C415.488 89.5166 423.421 90.2967 430.632 93.2832C437.842 96.2698 444.006 101.329 448.342 107.82C452.679 114.311 454.994 121.943 454.996 129.751C454.986 140.216 450.828 150.25 443.433 157.652C436.039 165.054 426.012 169.219 415.552 169.233ZM415.552 91.1856C407.927 91.182 400.472 93.4409 394.13 97.6767C387.787 101.912 382.843 107.935 379.922 114.982C377.001 122.03 376.235 129.785 377.72 137.269C379.205 144.752 382.874 151.626 388.265 157.023C393.655 162.419 400.524 166.095 408.002 167.586C415.48 169.076 423.233 168.314 430.278 165.396C437.324 162.479 443.346 157.536 447.584 151.193C451.822 144.85 454.084 137.393 454.086 129.764C454.076 119.54 450.013 109.739 442.789 102.509C435.565 95.2789 425.77 91.2111 415.552 91.198V91.1856Z" fill="#0071F2"/>
<path d="M173.01 299.263L172.18 295.256L158.702 293.435C158.702 293.435 162.77 301.177 173.01 299.263Z" fill="#F7A48B"/>
<path d="M155.273 277.806C155.273 277.806 156.362 269.624 158.907 265.238C161.451 260.853 166.918 262.141 169.104 263.597C171.289 265.052 174.744 272.888 176.725 277.98C178.706 283.072 179.635 285.989 179.635 285.989C179.635 285.989 176.489 292.629 172.205 295.28C167.661 298.117 162.646 298.006 158.727 293.459C157.379 291.877 156.277 290.1 155.458 288.188C155.458 288.188 150.914 286.726 149.818 282.904C148.722 279.082 149.633 277.069 151.453 276.543C153.273 276.016 155.273 277.806 155.273 277.806Z" fill="#F9B499"/>
<path d="M237.459 85.71H60.2641V95.3606H237.459V85.71Z" fill="#0071F2"/>
<path d="M218.292 142.189C228.259 142.189 236.339 134.105 236.339 124.133C236.339 114.161 228.259 106.077 218.292 106.077C208.325 106.077 200.245 114.161 200.245 124.133C200.245 134.105 208.325 142.189 218.292 142.189Z" fill="#0071F2"/>
<path d="M228.259 139.185L251.451 166.285L254.559 163.875L231.664 136.255L229.888 136.051L227.857 137.915L228.259 139.185Z" fill="#0071F2"/>
<path d="M218.292 138.999C226.498 138.999 233.15 132.343 233.15 124.133C233.15 115.922 226.498 109.267 218.292 109.267C210.086 109.267 203.433 115.922 203.433 124.133C203.433 132.343 210.086 138.999 218.292 138.999Z" fill="white"/>
<path d="M362.21 342.908C358.837 340.795 355.025 339.483 351.066 339.074C349.277 338.888 347.252 338.944 345.797 340.04C345.629 340.138 345.49 340.28 345.395 340.45C345.299 340.619 345.25 340.811 345.252 341.006C345.343 341.278 345.527 341.509 345.772 341.657C348.135 343.341 350.913 344.346 353.806 344.564C356.699 344.783 359.596 344.206 362.185 342.896" fill="#0071F2"/>
<path d="M361.925 342.543C359.352 340.657 356.951 338.546 354.75 336.237C352.539 333.906 350.984 331.032 350.242 327.906C350.099 327.442 350.056 326.954 350.118 326.473C350.18 325.992 350.345 325.53 350.602 325.118C356.335 329.584 360.829 335.382 361.937 342.561" fill="#0071F2"/>
<path d="M362.179 342.834C361.645 339.705 361.691 336.505 362.315 333.394C362.957 330.261 364.748 327.483 367.336 325.607C368.327 327.924 367.9 330.594 367.206 333.041C366.107 336.777 364.409 340.31 362.179 343.503" fill="#0071F2"/>
<path d="M367.751 352.899C364.382 353.437 361.266 355.014 358.836 357.409C356.278 359.737 354.495 362.794 353.728 366.168C357.071 365.963 359.919 363.603 361.968 360.958C364.018 358.313 365.448 355.383 367.708 352.906" fill="#0071F2"/>
<path d="M368.989 354.516C367.648 351.109 367.178 347.42 367.621 343.785C368.064 340.15 369.407 336.682 371.527 333.697C373.471 340.604 372.766 348.409 368.989 354.516Z" fill="#0071F2"/>
<path d="M376.418 363.349C373.31 363.163 370.215 363.894 367.518 365.451C364.821 367.008 362.639 369.322 361.244 372.108C361.122 372.279 361.049 372.48 361.032 372.689C361.014 372.898 361.053 373.108 361.145 373.297C361.276 373.426 361.437 373.52 361.613 373.572C361.788 373.623 361.974 373.631 362.154 373.594C365.151 373.402 367.8 371.6 369.998 369.537C372.196 367.475 374.103 365.115 376.524 363.343" fill="#0071F2"/>
<path d="M376.158 362.866C374.561 357.723 374.462 352.231 375.874 347.033C376.437 344.989 377.378 342.846 379.26 341.892C379.312 341.848 379.372 341.814 379.437 341.793C379.502 341.772 379.57 341.764 379.638 341.77C379.706 341.776 379.773 341.795 379.833 341.827C379.894 341.858 379.947 341.902 379.991 341.954C380.043 342.019 380.079 342.096 380.096 342.177C380.733 343.604 381.008 345.166 380.895 346.724C380.787 348.273 380.55 349.81 380.189 351.32C379.57 354.132 379.297 357.149 377.712 359.571C377.352 360.145 377.028 360.741 376.74 361.355C376.443 361.974 376.443 362.197 376.177 362.68" fill="#0071F2"/>
<path d="M395.796 365.79C395.139 362.901 395.117 359.903 395.734 357.005C396.351 354.108 397.591 351.379 399.369 349.009C399.629 348.669 399.988 348.309 400.384 348.353C401.003 348.408 401.195 349.251 401.17 349.907C400.911 355.599 399.055 361.103 395.815 365.79" fill="#0071F2"/>
<path d="M397.567 367.022C401.002 367.829 404.57 367.882 408.027 367.179C411.485 366.475 414.749 365.031 417.595 362.946C414.247 361.255 410.416 360.777 406.755 361.596C403.133 362.42 399.833 364.074 397.573 367.004" fill="#0071F2"/>
<path d="M399.053 363.312C401.04 360.247 403.723 357.695 406.883 355.865C410.043 354.035 413.59 352.979 417.236 352.782C416.407 355.705 413.998 357.979 411.293 359.354C408.515 360.605 405.577 361.466 402.563 361.912C401.406 362.135 399.815 362.383 399.053 363.293" fill="#0071F2"/>
<path d="M396.174 345.423C397.311 341.965 398.089 338.399 398.496 334.781C398.893 331.137 398.153 327.459 396.379 324.251C392.862 331.065 392.503 339.012 396.069 345.801" fill="#0071F2"/>
<path d="M407.993 339.445C412.104 331.957 420.487 325.985 428.981 325.155C425.706 333.307 416.784 339.613 407.993 339.445Z" fill="#0071F2"/>
<path d="M405.417 340.907C411.559 341.843 416.784 345.757 422.511 348.142C423.716 348.716 425.049 348.968 426.381 348.873C427 348.864 427.601 348.665 428.103 348.302C428.605 347.939 428.983 347.431 429.186 346.845C429.389 346.26 429.407 345.626 429.237 345.031C429.067 344.435 428.719 343.906 428.238 343.515C427.428 342.766 426.477 342.186 425.439 341.812C419.186 339.21 412.494 339.13 405.913 340.721" fill="#0071F2"/>
<path d="M401.876 345.212C403.263 345.603 403.734 346.327 404.842 347.263C408.592 350.452 413.026 352.732 417.8 353.928C418.289 354.052 418.945 354.095 419.187 353.649C419.268 353.434 419.279 353.198 419.219 352.976C419.159 352.753 419.031 352.555 418.852 352.41C416.769 349.967 414.066 348.13 411.027 347.095C408.036 345.981 405.455 344.618 401.876 344.927" fill="#0071F2"/>
<path d="M397.871 319.215C400.384 321.533 403.354 323.301 406.589 324.404C409.825 325.507 413.255 325.921 416.661 325.62C416.988 325.626 417.307 325.514 417.558 325.304C418.029 324.796 417.459 324.003 416.902 323.52C411.38 319.215 404.687 317.419 397.889 319.184" fill="#0071F2"/>
<path d="M402.619 317.474C405.949 315.025 409.809 313.397 413.887 312.723C417.964 312.049 422.143 312.349 426.083 313.597C423.016 316.448 419.076 318.179 414.902 318.509C410.779 318.888 406.621 318.538 402.619 317.474Z" fill="#0071F2"/>
<path d="M400.737 305.532C400.192 300.007 400.539 295.621 400.155 290.102C400.155 289.662 400.031 289.13 399.616 288.969C399.041 288.746 398.558 289.458 398.378 290.046C397.577 292.618 397.372 295.338 397.781 298C398.19 300.663 399.201 303.196 400.737 305.408" fill="#0071F2"/>
<path d="M400.335 306.139C403.935 303.808 407.041 300.79 409.473 297.256C411.256 294.778 412.803 291.818 412.389 288.789C411.118 288.822 409.87 289.132 408.732 289.697C407.593 290.262 406.591 291.068 405.795 292.059C404.217 294.06 403.068 296.364 402.421 298.829C401.69 301.258 401.183 303.754 400.316 306.139" fill="#0071F2"/>
<path d="M409.312 303.612C417.542 300.564 425.163 296.071 431.816 290.344C429.136 289.266 426.046 289.916 423.359 290.963C417.252 293.29 412.211 297.78 409.194 303.581" fill="#0071F2"/>
<path d="M402.861 309.162C407.003 309.752 411.206 309.773 415.354 309.224C419.409 308.542 423.235 306.938 427.018 305.346C427.351 305.244 427.635 305.024 427.817 304.727C427.877 304.552 427.882 304.363 427.831 304.186C427.78 304.009 427.676 303.852 427.532 303.736C427.237 303.507 426.894 303.346 426.529 303.265C422.35 302.257 417.965 302.52 413.936 304.021C410.077 305.338 406.367 307.057 402.867 309.149" fill="#0071F2"/>
<path d="M379.143 319.401C377.808 316.541 377.1 313.429 377.065 310.273C377.031 307.118 377.672 303.991 378.944 301.103C380.672 303.729 380.876 307.08 380.56 310.202C380.245 313.324 379.322 316.545 379.229 319.686" fill="#0071F2"/>
<path d="M367.825 313.696C364.28 313.645 360.764 314.335 357.501 315.722C354.238 317.109 351.299 319.161 348.874 321.748C352.449 322.17 356.069 321.501 359.257 319.828C362.422 318.143 365.413 316.147 368.184 313.869" fill="#0071F2"/>
<path d="M360.223 311.144C356.756 310.865 353.412 310.438 350.1 311.454C348.416 311.923 346.853 312.751 345.518 313.881C344.183 315.011 343.108 316.417 342.367 318.001C345.634 318.269 348.912 317.652 351.858 316.217C354.787 314.782 357.58 313.087 360.204 311.15" fill="#0071F2"/>
<path d="M371.466 311.255C368.37 309.224 365.157 307.142 361.56 306.3C357.963 305.458 353.734 306.077 351.208 308.809C354.143 310.537 357.709 310.741 361.114 310.729C364.519 310.717 368.68 310.729 371.893 311.832" fill="#0071F2"/>
<path d="M371.503 311.429C366.147 306.195 364.166 296.811 366.308 289.656C370.505 296.094 372.341 303.789 371.503 311.429Z" fill="#0071F2"/>
<path d="M386.138 296.612C387.141 294.271 387.847 291.824 388.745 289.47C389.566 287.059 390.825 284.82 392.46 282.867C394.128 280.908 396.497 279.68 399.059 279.448C398.241 283.051 396.681 286.444 394.477 289.409C392.274 292.374 389.476 294.847 386.262 296.668" fill="#0071F2"/>
<path d="M383.526 299.703C381.867 297.405 379.954 294.345 377.694 292.604C375.434 290.864 372.512 289.891 369.763 290.511C371.186 293.007 373.171 295.137 375.56 296.732C377.949 298.328 380.676 299.345 383.526 299.703Z" fill="#0071F2"/>
<path d="M384.015 296.798C382.82 294.072 381.933 291.222 381.371 288.299C380.823 285.341 381.292 282.285 382.702 279.627C385.631 285.153 386.566 291.087 384.151 296.841" fill="#0071F2"/>
<path d="M386.2 279.646C387.853 274.171 392.868 270.132 398.279 268.286C398.95 268.013 399.675 267.902 400.397 267.964C400.756 268.006 401.094 268.152 401.371 268.385C401.649 268.617 401.852 268.925 401.957 269.271C402.155 270.163 401.387 271.055 400.663 271.65C396.439 275.289 391.518 278.029 386.2 279.702" fill="#0071F2"/>
<path d="M386.2 275.161C386.417 271.637 386.64 268.019 387.785 264.706C388.931 261.392 391.147 258.22 394.36 256.758C394.917 260.326 393.345 263.9 391.444 266.935C389.544 269.971 387.259 272.901 386.089 276.332" fill="#0071F2"/>
<path d="M386.138 277.602C384.764 273.607 384.634 268.534 382.238 265.052C380.573 262.624 377.904 260.97 376.456 258.394C375.59 260.864 375.712 263.574 376.796 265.957C377.892 268.318 379.404 270.462 381.26 272.287C383.043 274.177 384.541 275.601 386.213 277.602" fill="#0071F2"/>
<path d="M386.2 395.151C386.095 395.151 385.996 368.515 385.996 335.686C385.996 302.856 386.07 276.221 386.176 276.221C386.281 276.221 386.374 302.856 386.38 335.686C386.386 368.515 386.275 395.151 386.2 395.151Z" fill="#2F2E41"/>
<path d="M409.411 315.387C409.087 315.542 408.749 315.667 408.402 315.759L405.653 316.651C403.331 317.45 400.136 318.59 396.676 320.008C393.215 321.427 390.039 322.721 388.182 324.276C387.447 324.888 386.864 325.662 386.479 326.537C386.207 327.156 386.163 327.547 386.126 327.54C386.089 327.534 386.126 327.441 386.126 327.262C386.166 326.998 386.233 326.738 386.324 326.487C386.684 325.585 387.258 324.783 387.996 324.152C389.103 323.209 390.345 322.437 391.679 321.86C393.153 321.173 394.775 320.448 396.527 319.736C400 318.311 403.213 317.208 405.56 316.471C406.736 316.106 407.696 315.852 408.364 315.66C408.704 315.535 409.054 315.444 409.411 315.387Z" fill="#2F2E41"/>
<path d="M417.051 296.649C416.969 296.762 416.873 296.864 416.766 296.953L415.918 297.758L412.723 300.651L402.111 310.103C397.97 313.82 394.385 317.32 391.909 319.977C390.67 321.296 389.692 322.393 389.023 323.161L388.25 324.053C388.165 324.162 388.068 324.26 387.959 324.344C388.024 324.222 388.103 324.108 388.194 324.003C388.415 323.693 388.652 323.395 388.906 323.111C389.525 322.312 390.485 321.191 391.71 319.835C394.916 316.332 398.303 313.002 401.858 309.856C406.012 306.176 409.795 302.875 412.568 300.49L415.843 297.684L416.741 296.934C416.829 296.824 416.933 296.728 417.051 296.649Z" fill="#2F2E41"/>
<path d="M397.635 313.857C397.53 313.801 398.397 311.801 399.264 309.273C400.13 306.746 400.539 304.615 400.657 304.634C400.557 306.267 400.21 307.875 399.629 309.403C399.253 310.494 398.822 311.561 398.335 312.606C398.168 313.057 397.932 313.479 397.635 313.857Z" fill="#2F2E41"/>
<path d="M386.2 329.975C385.976 329.744 385.769 329.498 385.581 329.237L383.947 327.138C382.572 325.347 380.672 322.901 378.548 320.225C376.425 317.549 374.462 315.133 373.038 313.411L371.373 311.348C371.152 311.102 370.957 310.835 370.791 310.549C371.045 310.76 371.279 310.995 371.49 311.249L373.273 313.238C374.747 314.935 376.734 317.32 378.845 320.008C380.956 322.696 382.845 325.18 384.201 326.989C384.863 327.887 385.389 328.643 385.736 329.169C385.922 329.419 386.077 329.689 386.2 329.975Z" fill="#2F2E41"/>
<path d="M381.086 323.421C380.06 322.282 379.328 320.908 378.957 319.419C378.555 318.115 378.387 316.75 378.461 315.387H378.635C378.561 315.69 378.511 315.845 378.474 315.845C378.437 315.845 378.474 315.672 378.474 315.356H378.641C378.728 316.688 378.956 318.006 379.322 319.289C379.807 320.708 380.397 322.089 381.086 323.421Z" fill="#2F2E41"/>
<path d="M374.499 315.133C374.045 314.771 373.546 314.471 373.013 314.241C371.672 313.839 370.26 313.727 368.871 313.913C367.465 314.026 366.069 314.251 364.699 314.588C364.138 314.767 363.565 314.905 362.984 315.003C363.493 314.689 364.049 314.459 364.631 314.321C366 313.9 367.412 313.634 368.841 313.529C370.283 313.331 371.752 313.491 373.119 313.993C373.7 314.196 374.19 314.6 374.499 315.133Z" fill="#2F2E41"/>
<path d="M372.945 313.126C372.945 313.188 372.054 312.779 370.661 312.296C366.958 311.025 362.993 310.718 359.139 311.404C357.666 311.658 356.774 311.937 356.755 311.875C356.947 311.757 357.156 311.669 357.375 311.615C357.939 311.423 358.514 311.261 359.096 311.132C361.032 310.708 363.02 310.57 364.996 310.723C366.972 310.873 368.915 311.309 370.766 312.017C371.324 312.235 371.87 312.483 372.4 312.761C372.598 312.856 372.782 312.979 372.945 313.126Z" fill="#2F2E41"/>
<path d="M386.138 304.634C385.458 302.742 384.901 300.807 384.473 298.842C383.912 296.911 383.479 294.946 383.179 292.958C383.86 294.85 384.416 296.784 384.844 298.749C385.396 300.682 385.829 302.647 386.138 304.634Z" fill="#2F2E41"/>
<path d="M386.25 304.634C385.708 303.438 385.088 302.279 384.393 301.165C383.611 300.117 382.695 299.175 381.668 298.365C382.059 298.456 382.422 298.639 382.727 298.898C383.495 299.466 384.164 300.157 384.708 300.942C385.533 302.018 386.064 303.29 386.25 304.634Z" fill="#2F2E41"/>
<path d="M386.2 380.947C386.2 380.947 386.077 380.328 385.786 379.163C385.34 377.569 384.74 376.021 383.996 374.542C381.438 369.726 378.266 365.262 374.561 361.262C372.456 358.846 370.413 356.579 368.68 354.399C367.122 352.487 365.714 350.457 364.47 348.328C363.638 346.902 362.928 345.408 362.346 343.862C362.148 343.311 362.006 342.883 361.925 342.58C361.875 342.431 361.839 342.278 361.82 342.122C361.82 342.122 362.049 342.741 362.488 343.813C363.113 345.354 363.856 346.846 364.711 348.272C365.975 350.371 367.395 352.371 368.958 354.256C370.698 356.412 372.741 358.673 374.858 361.07C378.581 365.106 381.74 369.627 384.25 374.511C384.978 376.011 385.541 377.585 385.928 379.207C386.029 379.646 386.106 380.091 386.157 380.538C386.187 380.673 386.201 380.81 386.2 380.947Z" fill="#2F2E41"/>
<path d="M407.176 357.198C406.826 357.431 406.46 357.638 406.08 357.818C405.084 358.38 404.13 359.013 403.226 359.713C401.889 360.754 400.634 361.897 399.474 363.132C398.155 364.526 396.799 366.143 395.413 367.871C392.645 371.346 390.057 374.431 388.503 376.884C387.717 378.122 387.148 379.126 386.776 379.851C386.59 380.229 386.386 380.6 386.157 380.959C386.167 380.849 386.198 380.742 386.25 380.644C386.349 380.445 386.448 380.142 386.628 379.752C387.111 378.704 387.657 377.686 388.262 376.704C390.375 373.557 392.663 370.532 395.116 367.642C396.509 365.907 397.883 364.291 399.22 362.897C400.403 361.658 401.691 360.524 403.071 359.509C403.997 358.827 404.981 358.227 406.012 357.719C406.303 357.573 406.603 357.444 406.91 357.335C406.993 357.28 407.082 357.234 407.176 357.198Z" fill="#2F2E41"/>
<path d="M407.628 364.91C406.858 365.076 406.078 365.19 405.294 365.251C403.424 365.446 401.575 365.811 399.771 366.341C397.987 366.921 396.313 367.797 394.818 368.93C393.679 369.822 393.141 370.547 393.085 370.504C393.172 370.306 393.291 370.123 393.438 369.965C393.807 369.51 394.222 369.095 394.676 368.726C396.149 367.496 397.845 366.562 399.672 365.976C401.499 365.429 403.384 365.097 405.287 364.985C406.064 364.887 406.847 364.862 407.628 364.91Z" fill="#2F2E41"/>
<path d="M393.754 369.698C393.636 369.63 394.645 368.026 395.537 365.87C396.428 363.715 396.428 361.788 396.614 361.807C396.667 362.219 396.652 362.638 396.57 363.046C396.458 364.051 396.232 365.04 395.896 365.994C395.544 366.934 395.091 367.833 394.546 368.676C394.342 369.06 394.074 369.405 393.754 369.698Z" fill="#2F2E41"/>
<path d="M413.986 336.522C413.871 336.604 413.746 336.67 413.615 336.72L412.525 337.222C412.042 337.426 411.46 337.68 410.804 338.033C410.148 338.386 409.386 338.721 408.581 339.204L407.312 339.916C406.872 340.177 406.42 340.48 405.975 340.808C405.083 341.378 404.117 342.047 403.102 342.791C398.812 345.987 395.07 349.86 392.02 354.256C391.345 355.284 390.677 356.251 390.163 357.205C389.89 357.675 389.599 358.097 389.37 358.574C389.141 359.05 388.906 359.465 388.689 359.868C388.237 360.68 387.915 361.454 387.593 362.123C387.312 362.706 387.062 363.303 386.844 363.913L386.38 365.022C386.329 365.154 386.269 365.282 386.2 365.406C386.216 365.263 386.252 365.124 386.306 364.991L386.702 363.857C386.869 363.355 387.092 362.761 387.395 362.073C387.699 361.386 388.014 360.599 388.442 359.769C388.658 359.348 388.881 358.877 389.104 358.456C389.327 358.035 389.618 357.564 389.89 357.062C390.417 356.096 391.073 355.123 391.748 354.076C394.786 349.627 398.554 345.724 402.892 342.53C403.907 341.818 404.854 341.13 405.808 340.567C406.272 340.282 406.705 339.985 407.17 339.737L408.464 339.031C409.275 338.56 410.048 338.225 410.717 337.909C411.299 337.624 411.897 337.369 412.506 337.148L413.627 336.72C413.735 336.635 413.856 336.568 413.986 336.522Z" fill="#2F2E41"/>
<path d="M397.35 347.665C397.504 347.134 397.815 346.661 398.242 346.309C399.274 345.411 400.59 344.909 401.957 344.89C403.284 344.888 404.599 345.147 405.826 345.652C406.348 345.819 406.845 346.058 407.3 346.364C406.767 346.258 406.245 346.105 405.739 345.906C404.522 345.499 403.247 345.29 401.963 345.287C400.689 345.318 399.458 345.752 398.446 346.525C398.061 346.885 397.695 347.266 397.35 347.665Z" fill="#2F2E41"/>
<path d="M394.868 350.242C395.36 349.153 395.712 348.007 395.914 346.829C395.993 345.633 395.916 344.431 395.685 343.255C395.903 343.547 396.049 343.887 396.112 344.246C396.341 345.095 396.404 345.981 396.298 346.854C396.191 347.719 395.929 348.559 395.524 349.331C395.19 349.976 394.905 350.267 394.868 350.242Z" fill="#2F2E41"/>
<path d="M367.782 384.775C368.351 394.952 371.422 405.315 376.134 415.746H396.663C401.127 405.389 404.012 395.057 404.52 384.775H367.782Z" fill="#2F2E41"/>
<path d="M401.183 401.24C401.183 401.345 394.435 401.438 386.107 401.438C377.78 401.438 371.032 401.345 371.032 401.24C371.032 401.134 377.78 401.054 386.107 401.054C394.435 401.054 401.183 401.134 401.183 401.24Z" fill="#FAFAFA"/>
<path d="M400.718 404.931C400.718 405.036 394.385 405.123 386.578 405.123C378.771 405.123 372.45 405.036 372.45 404.931C372.45 404.826 378.777 404.733 386.578 404.733C394.379 404.733 400.718 404.82 400.718 404.931Z" fill="#FAFAFA"/>
<path d="M376.462 391.478C376.728 394.621 376.728 397.781 376.462 400.924C376.214 397.78 376.214 394.621 376.462 391.478Z" fill="#FAFAFA"/>
<path d="M387.451 391.478C387.705 394.747 387.705 398.032 387.451 401.302C387.191 398.032 387.191 394.747 387.451 391.478Z" fill="#FAFAFA"/>
<path d="M397.809 391.372C398.069 394.695 398.069 398.034 397.809 401.357C397.555 398.034 397.555 394.696 397.809 391.372Z" fill="#FAFAFA"/>
<path d="M403.839 391.477C403.839 391.583 395.92 391.676 386.157 391.676C376.394 391.676 368.475 391.583 368.475 391.477C368.475 391.372 376.394 391.292 386.157 391.292C395.92 391.292 403.839 391.347 403.839 391.477Z" fill="#FAFAFA"/>
<path d="M484.552 414.997H60.2641V415.908H484.552V414.997Z" fill="#2F2E41"/>
</svg>
