<svg width="20" height="23" viewBox="0 0 20 23" fill="none" xmlns="http://www.w3.org/2000/svg">
<path fill-rule="evenodd" clip-rule="evenodd" d="M3 11.5C2.44772 11.5 2 11.9477 2 12.5V19.5C2 20.0523 2.44772 20.5 3 20.5H17C17.5523 20.5 18 20.0523 18 19.5V12.5C18 11.9477 17.5523 11.5 17 11.5H3ZM0 12.5C0 10.8431 1.34315 9.5 3 9.5H17C18.6569 9.5 20 10.8431 20 12.5V19.5C20 21.1569 18.6569 22.5 17 22.5H3C1.34315 22.5 0 21.1569 0 19.5V12.5Z" fill="silver"/>
<path fill-rule="evenodd" clip-rule="evenodd" d="M10 2.5C8.93913 2.5 7.92172 2.92143 7.17157 3.67157C6.42143 4.42172 6 5.43913 6 6.5V10.5C6 11.0523 5.55228 11.5 5 11.5C4.44772 11.5 4 11.0523 4 10.5V6.5C4 4.9087 4.63214 3.38258 5.75736 2.25736C6.88258 1.13214 8.4087 0.5 10 0.5C11.5913 0.5 13.1174 1.13214 14.2426 2.25736C15.3679 3.38258 16 4.9087 16 6.5V10.5C16 11.0523 15.5523 11.5 15 11.5C14.4477 11.5 14 11.0523 14 10.5V6.5C14 5.43913 13.5786 4.42172 12.8284 3.67157C12.0783 2.92143 11.0609 2.5 10 2.5Z" fill="silver"/>
</svg>
