<svg width="558" height="440" viewBox="0 0 558 440" fill="none" xmlns="http://www.w3.org/2000/svg">
<path d="M239.579 423.354C341.268 421.206 423.43 406.536 423.093 390.587C422.756 374.638 340.048 363.45 238.359 365.598C136.67 367.746 54.5083 382.416 54.8451 398.365C55.182 414.314 137.89 425.501 239.579 423.354Z" fill="#0071F2"/>
<path d="M500.228 274.36C500.228 274.36 560.734 217.268 527.489 141.457C518.252 120.387 503.32 102.325 484.743 88.765C443.143 58.3929 337.868 -1.71359 179.508 21.5019C162.506 23.9367 146.239 30.0478 131.84 39.4095C108.599 54.6568 83.9597 82.6648 94.4402 130.655C98.1441 147.622 97.3067 165.311 91.2194 181.543C85.1708 197.647 73.7112 217.384 52.383 238.712C52.383 238.712 6.92472 282.625 51.1463 320.63C60.5765 328.663 71.7292 334.418 83.7407 337.449C138.9 351.582 361.857 398.438 500.228 274.36Z" fill="#0071F2"/>
<path opacity="0.7" d="M239.579 423.354C341.268 421.206 423.43 406.536 423.093 390.587C422.756 374.638 340.048 363.45 238.359 365.598C136.67 367.746 54.5083 382.416 54.8451 398.365C55.182 414.314 137.89 425.501 239.579 423.354Z" fill="white"/>
<path opacity="0.7" d="M500.228 274.36C500.228 274.36 560.734 217.268 527.489 141.457C518.252 120.387 503.32 102.325 484.743 88.765C443.143 58.3929 337.868 -1.71359 179.508 21.5019C162.506 23.9367 146.239 30.0478 131.84 39.4095C108.599 54.6568 83.9597 82.6648 94.4402 130.655C98.1441 147.622 97.3067 165.311 91.2194 181.543C85.1708 197.647 73.7112 217.384 52.383 238.712C52.383 238.712 6.92472 282.625 51.1463 320.63C60.5765 328.663 71.7292 334.418 83.7407 337.449C138.9 351.582 361.857 398.438 500.228 274.36Z" fill="white"/>
<path d="M453.913 236.026H200.063C198.431 236.026 196.818 235.671 195.336 234.986C193.855 234.301 192.54 233.302 191.483 232.058C190.426 230.814 189.652 229.355 189.215 227.782C188.778 226.21 188.688 224.561 188.951 222.95L212.573 78.4135C213.112 75.1155 214.806 72.1167 217.353 69.9526C219.899 67.7885 223.132 66.6001 226.474 66.5996H481.702C483.308 66.5994 484.894 66.9496 486.351 67.6258C487.807 68.302 489.098 69.2878 490.134 70.5146C491.17 71.7413 491.926 73.1793 492.349 74.7283C492.772 76.2773 492.851 77.8999 492.582 79.4828L468.104 224.051C467.535 227.402 465.797 230.443 463.2 232.635C460.602 234.827 457.312 236.029 453.913 236.026Z" fill="#2E3135"/>
<path d="M448.528 239.015H194.684C193.053 239.013 191.442 238.657 189.962 237.971C188.482 237.285 187.169 236.286 186.113 235.042C185.058 233.798 184.285 232.34 183.848 230.768C183.412 229.197 183.322 227.549 183.585 225.939L207.22 81.4025C207.755 78.1032 209.445 75.1016 211.989 72.9339C214.533 70.7662 217.765 69.5736 221.108 69.5693H476.324C477.929 69.5691 479.516 69.9194 480.972 70.5955C482.428 71.2717 483.719 72.2576 484.755 73.4843C485.791 74.711 486.547 76.1491 486.97 77.698C487.393 79.247 487.473 80.8696 487.204 82.4525L462.725 227.021C462.159 230.376 460.422 233.422 457.823 235.618C455.224 237.813 451.931 239.017 448.528 239.015Z" fill="#3F4347"/>
<path opacity="0.2" d="M444.328 232.934H199.947C193.261 232.934 188.172 227.227 189.248 220.94L212.006 88.3528C213.075 82.1109 218.744 77.5181 225.385 77.5181H471.087C477.657 77.5181 482.682 83.1545 481.554 89.3319L457.997 221.945C456.851 228.29 451.086 232.934 444.328 232.934Z" fill="black"/>
<path d="M444.328 230.145H199.947C193.261 230.145 188.172 224.432 189.248 218.151L212.006 85.5638C213.075 79.3154 218.744 74.729 225.385 74.729H471.087C477.657 74.729 482.682 80.3654 481.554 86.5429L457.997 219.156C456.851 225.501 451.086 230.145 444.328 230.145Z" fill="white"/>
<path d="M347.666 103.278H392.808L375.371 208.515H368.994L328.927 160.08L288.564 160.48V152.441H332.328L368.994 195.561H370.984L385.336 111.247H347.666V103.278Z" fill="#2F2E41"/>
<path d="M482.843 146.727H409.08C407.984 146.727 406.902 146.485 405.911 146.019C404.919 145.554 404.043 144.875 403.343 144.032C402.644 143.188 402.139 142.201 401.865 141.141C401.59 140.08 401.553 138.972 401.756 137.895L415.348 66.1168C415.816 63.6244 417.148 61.3769 419.11 59.7698C421.071 58.1627 423.537 57.299 426.073 57.3304L500.924 58.3224C501.74 58.3332 502.543 58.5205 503.28 58.8714C504.016 59.2224 504.668 59.7287 505.19 60.3555C505.712 60.9823 506.092 61.7147 506.304 62.5024C506.517 63.2901 506.556 64.1144 506.419 64.9186L494.18 137.116C493.732 139.8 492.347 142.238 490.271 143.998C488.196 145.757 485.564 146.724 482.843 146.727Z" fill="white"/>
<path d="M482.843 147.371H409.08C407.889 147.371 406.714 147.108 405.637 146.602C404.559 146.095 403.607 145.357 402.847 144.441C402.088 143.524 401.539 142.452 401.242 141.299C400.944 140.147 400.904 138.943 401.125 137.773L414.716 66.0006C415.201 63.3827 416.588 61.0175 418.636 59.3158C420.683 57.6142 423.262 56.6837 425.925 56.686H426.079L500.931 57.678C501.839 57.6895 502.735 57.8975 503.555 58.2879C504.376 58.6783 505.102 59.2418 505.684 59.9395C506.266 60.6373 506.69 61.4528 506.927 62.3301C507.164 63.2074 507.208 64.1255 507.056 65.0215L494.817 137.225C494.349 140.062 492.887 142.639 490.693 144.497C488.5 146.356 485.717 147.374 482.843 147.371ZM425.925 57.9744C423.565 57.9728 421.28 58.7962 419.464 60.3019C417.647 61.8076 416.415 63.901 415.979 66.2196L402.393 138.011C402.206 138.995 402.237 140.008 402.487 140.978C402.736 141.948 403.196 142.851 403.835 143.622C404.474 144.393 405.276 145.014 406.182 145.439C407.089 145.864 408.078 146.084 409.08 146.082H482.843C485.412 146.089 487.9 145.182 489.863 143.525C491.826 141.867 493.137 139.566 493.561 137.032L505.8 64.8282C505.923 64.1155 505.889 63.3848 505.701 62.6865C505.513 61.9882 505.176 61.339 504.713 60.7835C504.25 60.2281 503.672 59.7797 503.019 59.4693C502.366 59.159 501.654 58.9939 500.931 58.9857L426.066 57.9744H425.925Z" fill="#0071F2"/>
<path d="M434.163 83.9406C434.163 83.9406 449.713 83.9406 458.88 76.7646C458.88 76.7646 463.176 82.7489 480.066 83.9406C480.066 83.9406 474.03 122.59 445.926 129.186C445.926 129.186 434.054 127.389 431.671 112C431.455 110.585 431.358 109.154 431.381 107.723C431.493 99.7212 432.426 91.7522 434.163 83.9406Z" fill="#0071F2"/>
<path opacity="0.5" d="M436.167 86.53C436.167 86.53 449.121 86.9294 458.287 80.3525C458.287 80.3525 461.985 85.5445 476.581 86.5365C476.581 86.5365 472.639 117.823 446.725 126.597C446.725 126.597 426.994 121.411 436.167 86.53Z" fill="white"/>
<path d="M459.47 108.913C462.634 104.015 461.916 97.9245 457.867 95.3089C453.818 92.6934 447.971 94.5436 444.807 99.4416C441.643 104.34 442.361 110.43 446.41 113.046C450.459 115.662 456.307 113.811 459.47 108.913Z" fill="white"/>
<path d="M451.311 108.277C450.928 108.276 450.558 108.139 450.267 107.89L444.85 103.265C444.677 103.132 444.533 102.965 444.427 102.774C444.32 102.584 444.253 102.374 444.231 102.157C444.208 101.94 444.23 101.72 444.294 101.512C444.359 101.303 444.465 101.11 444.607 100.944C444.749 100.778 444.922 100.642 445.118 100.546C445.314 100.449 445.527 100.393 445.745 100.381C445.963 100.369 446.181 100.402 446.386 100.477C446.591 100.552 446.778 100.667 446.937 100.817L451.227 104.476C455.085 100.707 459.294 97.3145 463.795 94.3434C464.154 94.1336 464.58 94.0709 464.985 94.1685C465.389 94.2661 465.74 94.5163 465.964 94.8668C466.188 95.2174 466.268 95.641 466.186 96.0489C466.105 96.4569 465.869 96.8175 465.528 97.0553C460.823 100.184 456.446 103.779 452.464 107.787C452.314 107.941 452.135 108.064 451.937 108.148C451.739 108.232 451.526 108.276 451.311 108.277Z" fill="#2F2E41"/>
<path d="M291.882 163.606C296.266 156.743 294.859 148.011 288.74 144.103C282.621 140.194 274.107 142.588 269.723 149.451C265.339 156.314 266.746 165.046 272.865 168.955C278.984 172.863 287.498 170.469 291.882 163.606Z" fill="#0071F2"/>
<path opacity="0.2" d="M286.42 158.789C287.858 155.272 286.394 151.346 283.15 150.02C279.907 148.694 276.112 150.469 274.674 153.986C273.236 157.503 274.699 161.429 277.943 162.755C281.186 164.082 284.981 162.306 286.42 158.789Z" fill="black"/>
<path d="M340.568 164.861C345.746 158.576 345.402 149.738 339.798 145.121C334.195 140.503 325.454 141.854 320.275 148.139C315.097 154.423 315.441 163.261 321.045 167.879C326.648 172.497 335.389 171.145 340.568 164.861Z" fill="#0071F2"/>
<path opacity="0.2" d="M335.756 159.477C337.608 156.159 336.628 152.085 333.569 150.377C330.509 148.669 326.527 149.974 324.675 153.292C322.823 156.609 323.802 160.683 326.862 162.391C329.922 164.099 333.904 162.794 335.756 159.477Z" fill="black"/>
<path d="M391.389 164.867C396.568 158.583 396.224 149.745 390.62 145.127C385.016 140.51 376.276 141.861 371.097 148.145C365.918 154.43 366.263 163.268 371.866 167.885C377.47 172.503 386.211 171.152 391.389 164.867Z" fill="#0071F2"/>
<path opacity="0.2" d="M386.584 159.481C388.436 156.163 387.456 152.089 384.397 150.381C381.337 148.673 377.355 149.978 375.503 153.296C373.651 156.613 374.631 160.687 377.69 162.395C380.75 164.103 384.732 162.798 386.584 159.481Z" fill="black"/>
<path d="M283.105 212.248C287.489 205.386 286.082 196.654 279.963 192.745C273.844 188.836 265.33 191.23 260.946 198.093C256.562 204.956 257.969 213.688 264.088 217.597C270.207 221.505 278.721 219.111 283.105 212.248Z" fill="#0071F2"/>
<path opacity="0.2" d="M277.639 207.416C279.076 203.903 277.614 199.98 274.373 198.655C271.133 197.33 267.342 199.105 265.905 202.618C264.468 206.132 265.93 210.054 269.171 211.379C272.411 212.704 276.202 210.93 277.639 207.416Z" fill="black"/>
<path d="M331.797 213.498C336.976 207.214 336.631 198.376 331.028 193.758C325.424 189.14 316.683 190.492 311.505 196.776C306.326 203.061 306.67 211.899 312.274 216.516C317.878 221.134 326.619 219.783 331.797 213.498Z" fill="#0071F2"/>
<path opacity="0.2" d="M326.949 208.112C328.799 204.797 327.821 200.727 324.764 199.021C321.708 197.315 317.73 198.619 315.88 201.933C314.029 205.248 315.008 209.318 318.064 211.024C321.121 212.73 325.099 211.426 326.949 208.112Z" fill="black"/>
<path d="M382.558 213.493C387.734 207.212 387.39 198.378 381.789 193.762C376.188 189.147 367.451 190.498 362.275 196.78C357.099 203.061 357.443 211.895 363.044 216.511C368.644 221.126 377.381 219.775 382.558 213.493Z" fill="#0071F2"/>
<path opacity="0.2" d="M378.04 209.844C379.9 206.541 378.939 202.474 375.894 200.758C372.848 199.043 368.871 200.33 367.011 203.632C365.151 206.935 366.112 211.002 369.158 212.718C372.204 214.433 376.18 213.146 378.04 209.844Z" fill="black"/>
<path d="M299.856 114.968C304.239 108.105 302.833 99.3733 296.714 95.4644C290.594 91.5556 282.08 93.9501 277.696 100.813C273.313 107.675 274.719 116.408 280.838 120.316C286.958 124.225 295.472 121.831 299.856 114.968Z" fill="#0071F2"/>
<path opacity="0.2" d="M294.393 110.165C295.831 106.648 294.368 102.722 291.124 101.395C287.881 100.069 284.085 101.845 282.647 105.362C281.209 108.879 282.673 112.805 285.916 114.131C289.16 115.457 292.955 113.682 294.393 110.165Z" fill="black"/>
<path d="M348.536 116.233C353.715 109.948 353.371 101.111 347.767 96.4929C342.163 91.8753 333.423 93.2265 328.244 99.511C323.065 105.796 323.41 114.633 329.013 119.251C334.617 123.869 343.358 122.517 348.536 116.233Z" fill="#0071F2"/>
<path opacity="0.2" d="M343.724 110.84C345.576 107.522 344.597 103.448 341.537 101.74C338.477 100.032 334.496 101.337 332.644 104.655C330.792 107.973 331.771 112.047 334.831 113.755C337.891 115.463 341.872 114.158 343.724 110.84Z" fill="black"/>
<path d="M399.362 116.228C404.541 109.944 404.196 101.106 398.593 96.488C392.989 91.8704 384.248 93.2217 379.07 99.5062C373.891 105.791 374.235 114.629 379.839 119.246C385.443 123.864 394.183 122.513 399.362 116.228Z" fill="#0071F2"/>
<path opacity="0.2" d="M394.552 110.844C396.404 107.527 395.425 103.453 392.365 101.745C389.305 100.037 385.324 101.342 383.472 104.659C381.62 107.977 382.599 112.051 385.659 113.759C388.719 115.467 392.7 114.162 394.552 110.844Z" fill="black"/>
<path d="M241.908 279.887C235.294 293.412 224.086 304.144 210.286 310.163L185.022 321.262C149.039 337.024 143.061 328.438 142.965 328.296C143.216 328.418 164.164 338.003 192.159 307.039C196.415 302.292 200.355 297.272 203.954 292.01C203.954 292.01 220.296 272.879 240.027 270.289C240.027 270.289 244.169 270.837 244.884 269.439C245.128 272.106 243.866 275.848 241.908 279.887Z" fill="#2F2E41"/>
<path opacity="0.4" d="M241.908 279.887C235.294 293.412 224.086 304.144 210.286 310.163L185.022 321.262C149.039 337.024 143.061 328.438 142.965 328.296C143.216 328.418 164.164 338.003 192.159 307.039C196.415 302.292 200.355 297.272 203.954 292.01C203.954 292.01 220.296 272.879 240.027 270.289C240.027 270.289 244.169 270.837 244.884 269.439C245.128 272.106 243.866 275.848 241.908 279.887Z" fill="black"/>
<path d="M228.271 378.341L225.127 308.179L213.371 283.115C213.371 283.115 226.48 271.9 240.033 270.309C241.698 270.448 243.371 270.155 244.89 269.458C245.935 276.926 246.377 284.466 246.211 292.004V378.321C246.211 378.321 238.236 385.317 228.271 378.341Z" fill="#F7A48B"/>
<path d="M228.271 378.34C228.271 378.34 219.304 389.104 221.494 392.093L266.341 411.618C266.341 411.618 271.326 404.442 263.764 396.473C263.764 396.473 247.66 386.302 246.243 378.334C246.23 378.34 237.637 385.317 228.271 378.34Z" fill="#0071F2"/>
<path opacity="0.2" d="M228.271 378.34C228.271 378.34 219.304 389.104 221.494 392.093L266.341 411.618C266.341 411.618 271.326 404.442 263.764 396.473C263.764 396.473 247.66 386.302 246.243 378.334C246.23 378.34 237.637 385.317 228.271 378.34Z" fill="black"/>
<path d="M221.494 392.093C221.494 392.093 219.504 394.882 221.894 396.48L261.954 413.821C261.954 413.821 265.175 414.613 266.341 411.624L221.494 392.093Z" fill="#2F2E41"/>
<path d="M194.684 301.866C194.684 301.866 203.149 301.055 205.538 314.195C205.538 314.195 211.909 334.924 227.633 348.471L258.308 381.729C258.308 381.729 267.867 381.729 274.412 374.746C274.412 374.746 241.263 325.7 234.551 310.917C231.871 306.701 229.54 302.274 227.582 297.679C227.582 297.679 226.332 286.793 213.346 280.171C213.346 280.171 204.759 287.16 201.036 293.196C200.137 294.66 199.161 296.075 198.111 297.434L194.684 301.866Z" fill="#F9B499"/>
<path d="M244.89 269.458C244.175 270.856 240.033 270.308 240.033 270.308C220.296 272.885 203.96 292.03 203.96 292.03C200.361 297.291 196.422 302.312 192.166 307.058C164.17 338.016 143.21 328.431 142.971 328.315C142.546 309.963 134.823 288.905 130.352 278.187C127.153 270.556 124.999 262.528 123.949 254.32C122.094 239.569 124.632 234.036 124.632 234.036L159.513 226.86L181.827 219.658C180.635 235.807 211.529 249.76 211.529 249.76C220.341 253.902 237.392 262.997 241.772 265.342C242.693 265.821 243.51 266.478 244.175 267.274C244.987 268.312 245.128 268.994 244.89 269.458Z" fill="#2F2E41"/>
<path opacity="0.2" d="M171.604 297.196C177.215 299.605 184.809 303.07 192.159 307.058C163.99 338.203 142.965 328.315 142.965 328.315C142.54 309.963 134.816 288.905 130.346 278.187C127.147 270.556 124.993 262.528 123.943 254.32C122.088 239.569 124.626 234.036 124.626 234.036L159.507 226.86L181.827 219.658C181.827 219.658 179.927 231.82 170.116 238.983C170.116 238.983 186.22 244.961 199.567 260.884C199.567 260.884 157.51 234.777 143.164 246.713C143.164 246.713 131.183 258.952 148.06 279.533C154.381 287.22 162.456 293.277 171.604 297.196Z" fill="black"/>
<path d="M201.963 181.009L206.15 185.795C206.15 185.795 230.068 182.407 248.6 175.43L258.701 165.884C258.701 165.884 266.038 157.304 270.875 156.531C271.117 156.497 271.362 156.559 271.558 156.704C271.754 156.848 271.886 157.064 271.925 157.304C271.956 157.471 271.94 157.643 271.88 157.802C271.82 157.961 271.718 158.101 271.584 158.206C270.044 159.417 264.969 163.52 263.854 165.858L264.75 166.837C264.75 166.837 270.618 160.969 275.745 159.842C275.909 159.807 276.079 159.81 276.242 159.849C276.405 159.889 276.557 159.964 276.687 160.069C276.817 160.175 276.922 160.308 276.994 160.459C277.067 160.61 277.104 160.776 277.104 160.943C277.105 161.138 277.055 161.33 276.959 161.499C276.863 161.668 276.724 161.81 276.557 161.91C274.715 163.011 268.763 166.696 267.661 168.937C267.618 169.02 267.596 169.112 267.596 169.205C267.596 169.298 267.618 169.389 267.661 169.472C267.696 169.545 267.746 169.61 267.808 169.663C267.869 169.715 267.94 169.755 268.018 169.779C268.095 169.803 268.176 169.811 268.257 169.803C268.337 169.794 268.415 169.769 268.486 169.73L277.813 164.641C278.109 164.479 278.455 164.435 278.783 164.517C279.11 164.6 279.394 164.803 279.578 165.085C279.682 165.243 279.751 165.422 279.78 165.608C279.81 165.795 279.8 165.986 279.751 166.169C279.701 166.351 279.614 166.521 279.494 166.667C279.375 166.814 279.225 166.933 279.056 167.018L271.726 170.728C271.636 170.772 271.558 170.836 271.497 170.916C271.437 170.995 271.395 171.087 271.377 171.186C271.358 171.284 271.362 171.385 271.389 171.481C271.416 171.577 271.465 171.666 271.533 171.739C271.613 171.826 271.716 171.888 271.829 171.92C271.943 171.952 272.063 171.952 272.177 171.92L276.351 170.863C276.607 170.798 276.878 170.833 277.109 170.962C277.34 171.09 277.514 171.301 277.594 171.553C277.632 171.685 277.643 171.825 277.627 171.962C277.61 172.099 277.566 172.231 277.498 172.351C277.429 172.471 277.338 172.576 277.228 172.661C277.119 172.745 276.993 172.806 276.86 172.841C274.425 173.485 268.556 175.199 266.798 177.994C266.565 178.369 266.312 178.73 266.038 179.076C264.337 181.138 258.765 187.167 251.821 187.167C251.821 187.167 207.973 211.484 198.607 201.712L189.106 193.892C189.106 193.892 197.873 193.248 201.963 181.009Z" fill="#F9B499"/>
<path d="M201.963 181.009L206.15 185.795C206.15 185.795 204.972 197.705 195.844 199.477L189.106 193.892C189.106 193.892 197.474 191.277 201.963 181.009Z" fill="#F7A48B"/>
<path d="M177.144 148.408C177.144 148.408 182.046 146.726 187.83 161.078L202.002 181.009C202.002 181.009 199.606 191.612 189.119 193.892L184.61 182.87L185.061 176.834L177.144 148.408Z" fill="#0071F2"/>
<path opacity="0.5" d="M177.144 148.408C177.144 148.408 182.046 146.726 187.83 161.078L202.002 181.009C202.002 181.009 199.606 191.612 189.119 193.892L184.61 182.87L185.061 176.834L177.144 148.408Z" fill="white"/>
<path d="M248.6 175.431C248.6 175.431 247.209 183.605 252.588 183.405C252.588 183.405 257.49 182.929 259.674 175.643C260.147 174.009 260.982 172.503 262.117 171.236C263.253 169.969 264.659 168.974 266.231 168.325C266.725 168.128 267.233 167.969 267.751 167.849C267.993 167.792 268.208 167.656 268.362 167.462C268.517 167.268 268.601 167.027 268.602 166.779C268.601 166.522 268.511 166.273 268.346 166.075C268.182 165.878 267.953 165.744 267.7 165.697C265.535 165.304 259.97 164.667 256.807 167.63L248.6 175.431Z" fill="#F7A48B"/>
<path d="M134.79 143.139L122.835 149.645C122.835 149.645 116.355 152.608 119.614 165.884C119.614 165.884 118.132 172.596 123.878 187.869C126.14 193.908 127.233 200.322 127.099 206.769C126.898 215.903 126.061 225.012 124.593 234.03C124.593 234.03 172.635 246.784 181.827 219.658L185.048 176.809C185.048 176.809 179.997 153.31 177.144 148.408C177.144 148.408 162.921 143.776 159.333 142.063L134.79 143.139Z" fill="#0071F2"/>
<path d="M466.462 313.499V390.56C466.462 391.971 465.901 393.325 464.903 394.323C463.905 395.32 462.552 395.881 461.141 395.881H354.584C353.885 395.882 353.192 395.745 352.546 395.478C351.9 395.211 351.312 394.819 350.817 394.325C350.323 393.831 349.93 393.244 349.662 392.598C349.395 391.952 349.257 391.26 349.257 390.56V313.499C349.257 312.499 349.538 311.52 350.069 310.672C350.6 309.824 351.359 309.143 352.259 308.707C352.984 308.359 353.779 308.179 354.584 308.179H461.141C462.552 308.179 463.905 308.739 464.903 309.737C465.901 310.735 466.462 312.088 466.462 313.499Z" fill="#0071F2"/>
<path opacity="0.2" d="M417.795 348.394C420.596 346.757 422.789 344.254 424.043 341.262C425.296 338.27 425.543 334.951 424.745 331.806C423.947 328.662 422.147 325.862 419.618 323.83C417.09 321.798 413.968 320.644 410.726 320.541C407.483 320.439 404.295 321.394 401.643 323.262C398.991 325.13 397.018 327.81 396.023 330.898C395.028 333.986 395.064 337.313 396.126 340.379C397.188 343.444 399.218 346.081 401.91 347.891L395.031 377.265C394.783 378.344 394.782 379.466 395.027 380.545C395.272 381.625 395.757 382.636 396.447 383.502C397.136 384.369 398.012 385.069 399.009 385.55C400.006 386.032 401.099 386.282 402.207 386.283H416.249C417.337 386.283 418.411 386.043 419.394 385.579C420.378 385.115 421.246 384.439 421.938 383.6C422.629 382.761 423.126 381.779 423.394 380.725C423.661 379.671 423.691 378.571 423.483 377.503L417.795 348.394Z" fill="black"/>
<path d="M460.735 308.179H354.584C353.779 308.179 352.984 308.359 352.259 308.707L367.596 297.415H449.52L460.735 308.179Z" fill="#0071F2"/>
<path opacity="0.4" d="M460.735 308.179H354.584C353.779 308.179 352.984 308.359 352.259 308.707L367.596 297.415H449.52L460.735 308.179Z" fill="black"/>
<path d="M369.451 304.791H378.051C379.335 304.791 380.568 304.28 381.476 303.372C382.384 302.463 382.895 301.231 382.895 299.947V291.573C382.895 284.568 385.677 277.85 390.63 272.897C395.583 267.945 402.301 265.162 409.305 265.162C416.31 265.162 423.027 267.945 427.98 272.897C432.933 277.85 435.716 284.568 435.716 291.573V299.302C435.716 300.756 436.293 302.151 437.321 303.179C438.349 304.207 439.744 304.784 441.198 304.784H447.42C448.874 304.784 450.268 304.207 451.296 303.179C452.324 302.151 452.902 300.756 452.902 299.302V290.761C452.911 279.261 448.352 268.229 440.228 260.09C432.105 251.951 421.082 247.371 409.582 247.357H408.809C403.001 247.356 397.25 248.499 391.884 250.721C386.518 252.943 381.642 256.201 377.536 260.309C373.43 264.416 370.173 269.292 367.953 274.659C365.732 280.026 364.591 285.777 364.594 291.585V299.959C364.596 300.596 364.723 301.225 364.968 301.812C365.213 302.399 365.571 302.932 366.022 303.381C366.473 303.83 367.008 304.185 367.596 304.427C368.185 304.669 368.815 304.792 369.451 304.791Z" fill="#0071F2"/>
<path d="M148.943 157.89C148.943 157.89 142.565 153.903 134.771 143.139C134.771 143.139 134.056 141.458 136.704 140.305L139.853 138.771C139.853 138.771 140.498 138.391 140.923 138.771C140.923 138.771 145.535 144.936 152.311 147.526C152.331 147.513 146.752 153.104 148.943 157.89Z" fill="#0071F2"/>
<path d="M158.708 154.856C158.708 154.856 155.603 147.719 152.453 147.532V147.48C153.046 147.223 155.726 145.735 155.635 140.195C156.647 140.418 157.679 140.537 158.714 140.549C158.714 140.549 161.497 145.245 158.708 154.856Z" fill="#0071F2"/>
<g opacity="0.5">
<path d="M148.943 157.89C148.943 157.89 142.565 153.903 134.771 143.139C134.771 143.139 134.056 141.458 136.704 140.305L139.853 138.771C139.853 138.771 140.498 138.391 140.923 138.771C140.923 138.771 145.535 144.936 152.311 147.526C152.331 147.513 146.752 153.104 148.943 157.89Z" fill="white"/>
<path d="M158.708 154.856C158.708 154.856 155.603 147.719 152.453 147.532V147.48C153.046 147.223 155.726 145.735 155.635 140.195C156.647 140.418 157.679 140.537 158.714 140.549C158.714 140.549 161.497 145.245 158.708 154.856Z" fill="white"/>
</g>
<path d="M157.117 160.879L157.806 217.867L189.106 210.311L189.544 156.55L157.117 160.879Z" fill="white"/>
<path d="M258.372 381.729C258.372 381.729 259.364 394.483 264.75 402.258L311.586 383.919C311.586 383.919 309.796 373.155 297.634 375.744C297.634 375.744 282.29 378.141 274.515 374.952C274.515 374.952 269.329 381.342 258.372 381.729Z" fill="#0071F2"/>
<path d="M264.75 402.258L265.671 403.823C265.969 404.331 266.439 404.714 266.995 404.906C267.551 405.097 268.158 405.083 268.705 404.867L310.575 388.183C311.165 387.947 311.64 387.492 311.903 386.914C312.166 386.335 312.196 385.678 311.986 385.078L311.573 383.919L264.75 402.258Z" fill="#2F2E41"/>
<path d="M128.465 112.2C124.735 119.736 97.8478 119.286 89.8151 119.157C86.9164 119.086 83.3735 118.841 80.5006 119.015L77.7694 119.279C63.6623 121.018 54.2189 131.441 50.515 144.762C49.8378 147.172 49.351 149.632 49.0592 152.118C48.717 154.667 47.7694 157.097 46.2957 159.204C43.3133 163.417 37.9217 165.285 32.9359 165.085C41.0587 165.201 47.6678 160.331 48.4923 152.022C50.5794 130.655 63.8362 115.749 86.1048 116.213C89.725 116.213 93.6994 116.136 97.3132 115.852C104.682 115.285 112.174 114.661 119.215 112.522C120.941 111.878 122.964 111.317 123.994 109.881L128.503 112.181L128.465 112.2Z" fill="#2F2E41"/>
<path d="M154.63 145.445C154.14 146.372 153.35 147.106 152.389 147.525C146.405 145.535 140.871 138.855 140.871 138.855V125.102L145.528 124.355L151.867 126.197L154.225 134.275L155.513 138.784C155.964 142.037 155.397 144.131 154.63 145.445Z" fill="#F9B499"/>
<path d="M154.63 145.445C151.674 144.156 143.602 139.782 145.155 130.023L154.225 134.275L155.513 138.784C155.964 142.037 155.397 144.131 154.63 145.445Z" fill="#F7A48B"/>
<path d="M143.403 116.232H147.545V126.197H143.403C142.229 126.197 141.103 125.731 140.274 124.901C139.444 124.071 138.977 122.945 138.977 121.772V120.664C138.977 120.082 139.09 119.506 139.312 118.968C139.534 118.431 139.86 117.942 140.271 117.53C140.682 117.119 141.17 116.792 141.708 116.569C142.245 116.347 142.821 116.232 143.403 116.232Z" fill="#F9B499"/>
<path d="M160.215 94.9038H157.201C150.548 94.9038 145.155 100.297 145.155 106.95V128.503C145.155 135.156 150.548 140.549 157.201 140.549H160.215C166.868 140.549 172.261 135.156 172.261 128.503V106.95C172.261 100.297 166.868 94.9038 160.215 94.9038Z" fill="#F9B499"/>
<path d="M172.261 114.815V108.457C172.261 108.457 167.681 101.88 159.507 102.479C159.507 102.479 153.329 102.28 151.332 106.467C151.332 106.467 153.909 120.104 143.261 130.024C144.496 127.249 145.141 124.248 145.155 121.211C145.155 121.211 144.137 122.957 141.11 125.302C137.612 128.02 131.447 131.557 121.018 134.146C116.125 135.359 111.102 135.969 106.061 135.963H89.9569C89.9569 135.963 78.1559 135.763 70.3809 145.928C70.3809 145.928 58.6249 170.644 32.9101 165.066H33.3481C36.4079 165.169 53.7229 164.654 60.8924 140.523C60.8924 140.523 63.2114 126.352 81.7309 126.172L101.648 125.373C101.648 125.373 117.598 126.172 125.772 106.641C125.772 106.641 132.349 89.1259 147.493 88.1146C147.493 88.1146 157.858 86.3045 162.644 92.8878C162.644 92.8878 174.606 93.2807 175.798 103.652C175.856 103.71 177.047 110.209 172.261 114.815Z" fill="#2F2E41"/>
<path d="M141.11 125.302L140.942 138.771C140.51 138.391 139.873 138.771 139.873 138.771L136.227 140.549C134.082 141.747 134.79 143.126 134.79 143.126L122.835 149.632C116.657 153.948 119.614 165.871 119.614 165.871C109.037 161.909 98.6981 190.169 98.6981 190.169C97.3499 193.676 95.6966 197.057 93.7574 200.275C89.6898 207.078 83.8557 212.651 76.8749 216.404C69.894 220.157 62.027 221.95 54.1094 221.591C53.6778 221.591 53.2527 221.539 52.8211 221.507C45.5712 220.871 38.6958 218.007 33.138 213.309C27.5803 208.61 23.6125 202.307 21.779 195.264C14.9058 169.233 32.9294 165.098 32.9294 165.098C58.6443 170.676 70.4002 145.96 70.4002 145.96C78.1752 135.795 89.9762 135.995 89.9762 135.995H104.824C112.574 136.012 120.273 134.743 127.608 132.239C134.159 129.959 138.423 127.389 141.11 125.302Z" fill="#2F2E41"/>
<path opacity="0.3" d="M141.11 125.302L140.942 138.771C140.51 138.391 139.873 138.771 139.873 138.771L136.227 140.549C134.082 141.747 134.79 143.126 134.79 143.126L122.835 149.632C116.657 153.948 119.614 165.871 119.614 165.871C109.037 161.909 98.6981 190.169 98.6981 190.169C97.3499 193.676 95.6966 197.057 93.7574 200.275C89.6898 207.078 83.8557 212.651 76.8749 216.404C69.894 220.157 62.027 221.95 54.1094 221.591C53.6778 221.591 53.2527 221.539 52.8211 221.507C45.5712 220.871 38.6958 218.007 33.138 213.309C27.5803 208.61 23.6125 202.307 21.779 195.264C14.9058 169.233 32.9294 165.098 32.9294 165.098C58.6443 170.676 70.4002 145.96 70.4002 145.96C78.1752 135.795 89.9762 135.995 89.9762 135.995H104.824C112.574 136.012 120.273 134.743 127.608 132.239C134.159 129.959 138.423 127.389 141.11 125.302Z" fill="black"/>
<path d="M32.9359 165.066C37.8641 167.62 43.4488 168.627 48.9588 167.955C54.4689 167.282 59.6475 164.962 63.8169 161.298C66.8122 159.03 68.6996 155.726 71.302 153.091C76.865 147.646 84.2359 144.436 92.0117 144.073C104.251 143.519 116.883 141.618 127.769 135.763C132.059 133.367 135.956 129.966 137.979 125.392C132.426 140.072 109.816 144.472 95.8702 145.754C87.2771 145.793 78.8065 148.195 72.6032 154.392C69.9364 157.04 67.933 160.318 64.8733 162.56C55.7327 170.058 43.0685 171.346 32.9359 165.066Z" fill="#2F2E41"/>
<path opacity="0.3" d="M143.261 130.024C143.261 130.024 148.144 121.244 147.545 106.776C147.545 106.776 145.954 100.682 156.318 99.0912C156.318 99.0912 180.036 93.661 172.261 114.815V108.457C172.261 108.457 167.681 101.681 159.507 102.48C159.507 102.48 153.922 102.08 151.332 106.467C151.332 106.467 154.128 120.303 143.261 130.024Z" fill="black"/>
<path d="M132.8 200.746C132.8 200.746 139.783 219.897 149.741 217.726C149.741 217.726 160.898 215.523 180.661 204.765L192.533 199.187C192.533 199.187 197.003 196.61 196.398 188.236C196.398 188.236 192.41 171.952 189.125 178.703C189.125 178.703 189.222 188.036 180.854 190.832L152.569 199.206C152.396 199.261 152.213 199.274 152.034 199.245C151.313 199.135 149.574 198.568 149.22 195.766L132.8 200.746Z" fill="#F9B499"/>
<path d="M119.627 165.884C119.627 165.884 120.149 174.161 125.779 189.544L130.803 202.337C130.803 202.337 144.556 204.913 149.741 194.762L138.977 165.079C138.977 165.079 136.968 155.049 129.586 152.247C128.37 151.792 127.061 151.644 125.775 151.815C124.488 151.987 123.264 152.472 122.21 153.23C121.156 153.987 120.305 154.992 119.732 156.157C119.159 157.321 118.882 158.609 118.925 159.906C118.998 161.914 119.233 163.913 119.627 165.884Z" fill="#0071F2"/>
<path opacity="0.5" d="M119.627 165.884C119.627 165.884 120.149 174.161 125.779 189.544L130.803 202.337C130.803 202.337 144.556 204.913 149.741 194.762L138.977 165.079C138.977 165.079 136.968 155.049 129.586 152.247C128.37 151.792 127.061 151.644 125.775 151.815C124.488 151.987 123.264 152.472 122.21 153.23C121.156 153.987 120.305 154.992 119.732 156.157C119.159 157.321 118.882 158.609 118.925 159.906C118.998 161.914 119.233 163.913 119.627 165.884Z" fill="white"/>
<path d="M414.194 348.394C416.996 346.757 419.188 344.254 420.442 341.262C421.696 338.27 421.942 334.951 421.144 331.806C420.346 328.662 418.546 325.862 416.018 323.83C413.489 321.798 410.368 320.644 407.125 320.541C403.883 320.439 400.695 321.394 398.042 323.262C395.39 325.13 393.418 327.81 392.422 330.898C391.427 333.986 391.463 337.313 392.525 340.379C393.587 343.444 395.617 346.081 398.31 347.891L391.43 377.265C391.182 378.344 391.181 379.466 391.426 380.545C391.671 381.625 392.156 382.636 392.846 383.502C393.535 384.369 394.411 385.069 395.408 385.55C396.406 386.032 397.498 386.282 398.606 386.283H412.649C413.736 386.283 414.81 386.043 415.793 385.579C416.777 385.115 417.645 384.439 418.337 383.6C419.028 382.761 419.526 381.779 419.793 380.725C420.06 379.671 420.091 378.571 419.882 377.503L414.194 348.394Z" fill="#0071F2"/>
<path opacity="0.4" d="M414.194 348.394C416.996 346.757 419.188 344.254 420.442 341.262C421.696 338.27 421.942 334.951 421.144 331.806C420.346 328.662 418.546 325.862 416.018 323.83C413.489 321.798 410.368 320.644 407.125 320.541C403.883 320.439 400.695 321.394 398.042 323.262C395.39 325.13 393.418 327.81 392.422 330.898C391.427 333.986 391.463 337.313 392.525 340.379C393.587 343.444 395.617 346.081 398.31 347.891L391.43 377.265C391.182 378.344 391.181 379.466 391.426 380.545C391.671 381.625 392.156 382.636 392.846 383.502C393.535 384.369 394.411 385.069 395.408 385.55C396.406 386.032 397.498 386.282 398.606 386.283H412.649C413.736 386.283 414.81 386.043 415.793 385.579C416.777 385.115 417.645 384.439 418.337 383.6C419.028 382.761 419.526 381.779 419.793 380.725C420.06 379.671 420.091 378.571 419.882 377.503L414.194 348.394Z" fill="black"/>
<path opacity="0.2" d="M434.131 395.881H402.071L361.702 308.179H394.019L434.131 395.881Z" fill="white"/>
<path opacity="0.2" d="M460.426 395.881H442.892L403.199 308.179H420.456L460.426 395.881Z" fill="white"/>
<path d="M106.422 361.566L106.306 362.417L106.17 363.422L106.009 364.613L105.326 369.612L105.256 370.153L104.541 375.384L104.47 375.944L101.642 396.686L101.565 397.246L100.109 407.946H70.0459L69.6336 404.905L69.5563 404.358L69.3309 402.722L69.26 402.187L68.0039 392.963L67.9202 392.331L65.1116 371.686L65.0214 371.036L64.5126 367.306L63.7331 361.566H106.422Z" fill="#2F2E41"/>
<g opacity="0.2">
<path d="M106.422 361.566L106.306 362.417L106.17 363.422L106.009 364.613L105.198 364.671L104.347 364.723L91.87 365.534L91.0197 365.586L64.5126 367.306L63.7331 361.566H106.422Z" fill="black"/>
</g>
<path d="M110.229 361.818C93.4934 363.242 76.6677 363.242 59.9326 361.818V357.251H110.229V361.818Z" fill="#2F2E41"/>
<path d="M98.7754 303.399C97.2037 305.28 96.0699 312.25 93.0617 313.371C90.994 314.144 89.8989 311.155 93.9056 307.38C95.9267 305.442 97.3867 302.994 98.1312 300.294C97.4525 297.19 96.5174 294.148 95.3356 291.199C93.0231 293.337 89.3191 296.352 88.2498 294.916C87.0968 293.337 90.5495 288.365 92.4755 285.814C91.6422 284.562 90.6334 283.436 89.4802 282.47C87.7079 280.949 85.4317 280.142 83.0966 280.209C81.3461 280.277 79.6609 280.892 78.2783 281.968C80.3396 286.046 83.38 292.919 81.2478 294.536C79.2703 296.011 76.4038 290.297 74.613 286.033C72.0879 289.93 70.3937 295.276 69.6594 300.43C70.3523 301.651 71.3179 302.696 72.4808 303.483C76.3909 306.291 81.0353 311.967 78.7098 313.229C76.3844 314.492 73.9688 311.161 72.2682 308.185C71.5223 306.812 70.5158 305.598 69.3051 304.61C69.2665 305.512 69.2665 306.395 69.3051 307.245C69.9493 323.452 85.7441 323.445 85.7441 323.445C85.7441 323.445 101.571 319.799 98.7754 303.399ZM78.8516 303.721C77.2863 303.721 74.7934 300.777 73.6274 299.154C72.4615 297.531 73.3955 296.41 74.5164 296.719H74.5615C76.1396 297.228 80.8871 303.76 78.8516 303.741V303.721ZM92.6623 299.856H92.7074C93.8283 299.541 94.7558 300.294 94.2276 301.724C93.5319 303.605 92.6172 304.346 91.213 303.657C90.3305 303.187 91.0841 300.327 92.6623 299.856Z" fill="#0071F2"/>
<path d="M84.0242 299.36C85.4155 306.446 84.9646 313.776 84.4364 320.933C83.8696 328.586 83.1094 336.245 83.3993 343.93C83.5376 348.289 84.1181 352.622 85.1321 356.864C85.2223 357.225 85.7763 357.07 85.6925 356.71C81.9306 341.501 85.3962 326.015 85.5057 310.639C85.584 306.807 85.2732 302.976 84.5781 299.206C84.5073 298.838 83.934 298.993 84.0242 299.36Z" fill="#2F2E41"/>
<path d="M76.9126 323.529C76.7516 325.977 79.9466 332.27 78.201 334.95C76.9835 336.792 74.336 335.027 75.3473 329.616C75.8314 326.857 75.5644 324.018 74.5743 321.397C72.1839 319.294 69.6243 317.392 66.9217 315.709C66.3162 318.794 65.1052 323.439 63.3982 322.885C61.5365 322.292 61.3884 316.237 61.4657 313.042C60.0555 312.523 58.5783 312.209 57.079 312.108C54.7671 311.937 52.4736 312.626 50.6374 314.041C49.2645 315.127 48.2665 316.616 47.7837 318.298C51.8548 320.379 58.3802 324.16 57.5943 326.673C56.8664 329.03 51.1849 326.106 47.2233 323.722C47.481 328.354 49.2653 333.675 51.7324 338.267C53.0135 338.847 54.4112 339.123 55.8164 339.073C60.6347 339.034 67.7269 340.883 66.5996 343.266C65.4724 345.649 61.543 344.393 58.3931 343.008C56.9787 342.339 55.4467 341.954 53.8839 341.875C54.3864 342.622 54.9017 343.337 55.4299 344C65.4852 356.729 78.2654 347.395 78.2654 347.395C78.2654 347.395 88.8296 335.111 76.9126 323.529ZM61.0148 335.536C59.7265 336.451 55.9968 335.536 54.0965 334.931C52.1962 334.325 52.2929 332.856 53.3815 332.444H53.4266C54.979 331.884 62.6638 334.351 61.0148 335.536ZM69.872 324.257V324.218C70.5934 323.304 71.8045 323.368 72.1974 324.862C72.7449 326.795 72.4422 327.929 70.9091 328.186C69.9557 328.322 68.88 325.571 69.872 324.257Z" fill="#0071F2"/>
<path d="M62.5801 328.927C66.2969 332.348 69.9815 335.903 72.9833 339.981C75.2193 343.136 77.1212 346.514 78.6583 350.062C79.7985 352.555 80.8807 355.074 81.9951 357.579C82.1432 357.921 82.6392 357.625 82.4911 357.29C80.6681 353.173 78.9611 348.974 76.8289 345.005C74.8957 341.471 72.5331 338.189 69.7947 335.234C67.6367 332.882 65.3307 330.679 62.9859 328.521C62.7154 328.27 62.3031 328.676 62.5801 328.927Z" fill="#2F2E41"/>
<path d="M90.6719 350.326C90.6719 350.326 103.388 359.75 113.533 347.105C114.061 346.461 114.583 345.733 115.092 344.986C113.531 345.057 111.999 345.433 110.583 346.094C107.42 347.453 103.497 348.67 102.376 346.293C101.255 343.916 108.373 342.1 113.185 342.171C114.59 342.229 115.989 341.964 117.276 341.398C119.749 336.818 121.572 331.516 121.862 326.878C117.881 329.236 112.2 332.122 111.465 329.758C110.699 327.213 117.263 323.484 121.34 321.429C120.866 319.744 119.88 318.247 118.519 317.145C116.683 315.73 114.389 315.042 112.077 315.213C110.575 315.302 109.094 315.606 107.678 316.115C107.71 319.335 107.523 325.365 105.655 325.944C103.942 326.479 102.769 321.835 102.183 318.743C99.4663 320.403 96.8936 322.289 94.4917 324.379C93.4771 326.991 93.1877 329.829 93.6543 332.592C94.6335 338.01 91.9731 339.762 90.7685 337.906C89.0228 335.214 92.2565 328.946 92.1212 326.492C80.1141 337.952 90.6719 350.326 90.6719 350.326ZM115.536 335.51H115.588C116.677 335.922 116.767 337.372 114.854 337.99C112.94 338.609 109.204 339.472 107.929 338.551C106.286 337.378 114.016 334.963 115.536 335.517V335.51ZM98.0668 331.123C96.5208 330.853 96.2245 329.706 96.7785 327.787C97.2037 326.318 98.3953 326.266 99.1104 327.188V327.226C100.135 328.553 99.0395 331.297 98.0668 331.13V331.123Z" fill="#0071F2"/>
<path d="M106.003 331.549C98.318 339.279 92.2179 348.194 86.3109 357.315C86.1112 357.624 86.6072 357.914 86.8134 357.605C92.6881 348.554 98.7625 339.652 106.415 331.98C106.463 331.924 106.488 331.853 106.485 331.779C106.482 331.706 106.451 331.636 106.399 331.584C106.347 331.533 106.276 331.503 106.203 331.501C106.129 331.499 106.058 331.525 106.003 331.574V331.549Z" fill="#2F2E41"/>
<path d="M110.229 357.251C110.229 357.715 98.9687 358.095 85.1063 358.095C71.244 358.095 59.9841 357.715 59.9841 357.251C59.9841 356.787 71.244 356.414 85.1063 356.414C98.9687 356.414 110.229 356.787 110.229 357.251Z" fill="#2F2E41"/>
<g opacity="0.2">
<path d="M110.229 357.251C110.229 357.715 98.9687 358.095 85.1063 358.095C71.244 358.095 59.9841 357.715 59.9841 357.251C59.9841 356.787 71.244 356.414 85.1063 356.414C98.9687 356.414 110.229 356.787 110.229 357.251Z" fill="black"/>
</g>
</svg>
