<svg width="1512" height="982" viewBox="0 0 1512 982" fill="none" xmlns="http://www.w3.org/2000/svg">
<g clip-path="url(#clip0_8_1729)">
<rect width="1512" height="982" fill="white"/>
<rect width="1512" height="982" fill="white"/>
<path d="M134.984 777.573C145.944 734.988 244.387 718.754 286.972 729.714C329.557 740.675 316.174 793.874 305.214 836.46C294.254 879.045 250.64 906.697 208.055 895.737C165.469 884.776 124.023 820.159 134.984 777.573Z" fill="url(#paint0_linear_8_1729)"/>
<path d="M108.89 149.31C140.806 119.06 238.088 179.308 268.339 211.223C298.491 246.412 219.75 242.954 187.835 273.204C155.92 303.455 143.511 341.84 113.261 309.925C83.0104 278.01 76.9755 179.561 108.89 149.31Z" fill="url(#paint1_linear_8_1729)"/>
<path d="M1378.44 601.988C1413.69 651.795 1342.57 770.587 1292.76 805.842C1242.95 841.098 1300.18 732.144 1264.92 682.337C1229.67 632.529 1137.97 608.605 1187.78 573.349C1237.59 538.094 1343.18 552.18 1378.44 601.988Z" fill="url(#paint2_linear_8_1729)"/>
<path d="M1196.31 279.027C1173.18 234.335 1244.78 145.392 1289.47 122.258C1334.16 99.1233 1319.07 179.877 1342.2 224.569C1365.34 269.261 1393.48 300.962 1348.79 324.096C1304.1 347.23 1219.45 323.719 1196.31 279.027Z" fill="url(#paint3_linear_8_1729)"/>
<rect width="1512" height="80" fill="#0071F2"/>
<path d="M875.721 876.068C882.448 849.93 942.87 839.966 969.009 846.693C995.147 853.421 986.932 886.073 980.205 912.212C973.478 938.35 946.709 955.322 920.57 948.595C894.432 941.867 868.994 902.206 875.721 876.068Z" fill="url(#paint4_linear_8_1729)"/>
</g>
<defs>
<linearGradient id="paint0_linear_8_1729" x1="113.069" y1="862.719" x2="268.161" y2="698.317" gradientUnits="userSpaceOnUse">
<stop stop-color="#0071F2" stop-opacity="0"/>
<stop offset="1" stop-color="#0071F2"/>
</linearGradient>
<linearGradient id="paint1_linear_8_1729" x1="9.01527" y1="205.554" x2="227.761" y2="148.704" gradientUnits="userSpaceOnUse">
<stop stop-color="#0071F2" stop-opacity="0"/>
<stop offset="1" stop-color="#0071F2"/>
</linearGradient>
<linearGradient id="paint2_linear_8_1729" x1="1307.95" y1="502.401" x2="1335.2" y2="867.271" gradientUnits="userSpaceOnUse">
<stop stop-color="#0071F2"/>
<stop offset="1" stop-color="#0071F2" stop-opacity="0"/>
</linearGradient>
<linearGradient id="paint3_linear_8_1729" x1="1242.57" y1="368.384" x2="1256.57" y2="63.7794" gradientUnits="userSpaceOnUse">
<stop stop-color="#0071F2" stop-opacity="0"/>
<stop offset="1" stop-color="#0071F2"/>
</linearGradient>
<linearGradient id="paint4_linear_8_1729" x1="923.5" y1="927" x2="987.233" y2="717.282" gradientUnits="userSpaceOnUse">
<stop stop-color="#0071F2" stop-opacity="0"/>
<stop offset="0.947717" stop-color="#0071F2"/>
</linearGradient>
<clipPath id="clip0_8_1729">
<rect width="1512" height="982" fill="white"/>
</clipPath>
</defs>
</svg>
